<svg width="41" height="28" viewBox="0 0 41 28" fill="none" xmlns="http://www.w3.org/2000/svg">
<rect x="0.5" y="0.5" width="39.15" height="26.5314" rx="5.5" fill="white" stroke="#D9D9D9"/>
<path d="M23.0517 13.9114C23.0517 18.2848 19.547 21.8301 15.2238 21.8301C10.9006 21.8301 7.396 18.2848 7.396 13.9114C7.396 9.538 10.9006 5.99268 15.2238 5.99268C19.547 5.99268 23.0517 9.538 23.0517 13.9114Z" fill="#ED0006"/>
<path d="M33.2065 13.9114C33.2065 18.2848 29.7018 21.8301 25.3786 21.8301C21.0554 21.8301 17.5508 18.2848 17.5508 13.9114C17.5508 9.538 21.0554 5.99268 25.3786 5.99268C29.7018 5.99268 33.2065 9.538 33.2065 13.9114Z" fill="#0099DF"/>
<path fill-rule="evenodd" clip-rule="evenodd" d="M20.3016 7.88428C21.9846 9.33671 23.0518 11.4979 23.0518 13.9113C23.0518 16.3246 21.9846 18.4859 20.3016 19.9383C18.6185 18.4859 17.5513 16.3246 17.5513 13.9113C17.5513 11.4979 18.6185 9.33671 20.3016 7.88428Z" fill="#6C6BBD"/>
</svg>
