<svg width="50" height="37" viewBox="0 0 50 37" fill="none" xmlns="http://www.w3.org/2000/svg">
<g filter="url(#filter0_d_142_369)">
<rect x="5.57777" y="5.28675" width="39.572" height="26.9548" rx="3.15429" fill="white" stroke="#D9D9D9" stroke-width="0.573507"/>
<path fill-rule="evenodd" clip-rule="evenodd" d="M16.6464 22.4814H14.8621C14.74 22.4814 14.6361 22.5702 14.6171 22.6907L13.8954 27.2662C13.8811 27.3565 13.951 27.4379 14.0426 27.4379H14.8944C15.0165 27.4379 15.1204 27.3491 15.1394 27.2284L15.3341 25.9943C15.3528 25.8735 15.4569 25.7849 15.5788 25.7849H16.1436C17.319 25.7849 17.9973 25.2161 18.1746 24.089C18.2544 23.5959 18.178 23.2084 17.947 22.937C17.6934 22.6391 17.2436 22.4814 16.6464 22.4814ZM16.8523 24.1526C16.7547 24.7929 16.2655 24.7929 15.7925 24.7929H15.5232L15.7121 23.5971C15.7233 23.5249 15.7859 23.4716 15.859 23.4716H15.9824C16.3046 23.4716 16.6086 23.4716 16.7657 23.6553C16.8593 23.7649 16.888 23.9277 16.8523 24.1526ZM21.9801 24.1321H21.1257C21.0529 24.1321 20.99 24.1853 20.9787 24.2576L20.9409 24.4966L20.8812 24.41C20.6962 24.1415 20.2838 24.0518 19.8721 24.0518C18.9278 24.0518 18.1213 24.7669 17.9643 25.7701C17.8826 26.2705 17.9987 26.749 18.2825 27.0827C18.543 27.3895 18.9156 27.5173 19.3588 27.5173C20.1196 27.5173 20.5415 27.0281 20.5415 27.0281L20.5034 27.2656C20.489 27.3564 20.5589 27.4378 20.65 27.4378H21.4197C21.5421 27.4378 21.6453 27.349 21.6647 27.2283L22.1265 24.3038C22.1411 24.2138 22.0714 24.1321 21.9801 24.1321ZM20.7891 25.7951C20.7066 26.2833 20.3191 26.6109 19.8251 26.6109C19.577 26.6109 19.3786 26.5314 19.2513 26.3806C19.125 26.2309 19.077 26.0176 19.1172 25.7803C19.1942 25.2962 19.5882 24.9579 20.0748 24.9579C20.3173 24.9579 20.5146 25.0384 20.6445 25.1906C20.7747 25.3443 20.8264 25.5587 20.7891 25.7951ZM25.6722 24.1319H26.5309C26.6512 24.1319 26.7213 24.2668 26.653 24.3655L23.7971 28.4877C23.7509 28.5545 23.6747 28.5942 23.5933 28.5942H22.7357C22.615 28.5942 22.5445 28.4582 22.6144 28.3594L23.5036 27.1042L22.5579 24.3286C22.5252 24.2322 22.5964 24.1319 22.699 24.1319H23.5427C23.6524 24.1319 23.7491 24.2039 23.7807 24.3088L24.2826 25.9852L25.467 24.2407C25.5133 24.1726 25.5904 24.1319 25.6722 24.1319Z" fill="#253B80"/>
<path fill-rule="evenodd" clip-rule="evenodd" d="M34.9822 27.2664L35.7145 22.6073C35.7257 22.5349 35.7884 22.4817 35.8612 22.4814H36.6856C36.7766 22.4814 36.8465 22.5631 36.8322 22.6534L36.11 27.2286C36.0912 27.3494 35.9873 27.4381 35.865 27.4381H35.1288C35.0377 27.4381 34.9678 27.3568 34.9822 27.2664ZM29.374 22.4817H27.5894C27.4675 22.4817 27.3637 22.5704 27.3446 22.6909L26.623 27.2664C26.6086 27.3568 26.6785 27.4381 26.7697 27.4381H27.6854C27.7705 27.4381 27.8433 27.3761 27.8566 27.2916L28.0613 25.9946C28.0802 25.8737 28.1842 25.7851 28.3061 25.7851H28.8706C30.0463 25.7851 30.7245 25.2163 30.9018 24.0892C30.9819 23.5961 30.905 23.2087 30.6741 22.9372C30.4207 22.6394 29.9712 22.4817 29.374 22.4817ZM29.5799 24.1528C29.4825 24.7931 28.9933 24.7931 28.52 24.7931H28.251L28.4402 23.5973C28.4514 23.5251 28.5135 23.4719 28.5868 23.4719H28.7102C29.0322 23.4719 29.3365 23.4719 29.4934 23.6555C29.5871 23.7651 29.6156 23.9279 29.5799 24.1528ZM34.7073 24.1323H33.8534C33.78 24.1323 33.7177 24.1856 33.7067 24.2579L33.6689 24.4968L33.6089 24.4102C33.4239 24.1417 33.0117 24.052 32.6 24.052C31.6557 24.052 30.8495 24.7671 30.6925 25.7704C30.6111 26.2707 30.7266 26.7492 31.0105 27.0829C31.2714 27.3897 31.6435 27.5176 32.0868 27.5176C32.8475 27.5176 33.2694 27.0283 33.2694 27.0283L33.2314 27.2658C33.217 27.3566 33.2869 27.438 33.3785 27.438H34.1479C34.2697 27.438 34.3735 27.3493 34.3926 27.2285L34.8547 24.304C34.8688 24.214 34.7989 24.1323 34.7073 24.1323ZM33.5163 25.7954C33.4343 26.2835 33.0464 26.6112 32.5522 26.6112C32.3046 26.6112 32.1058 26.5316 31.9785 26.3808C31.8522 26.2311 31.8047 26.0179 31.8444 25.7805C31.9218 25.2965 32.3153 24.9582 32.8019 24.9582C33.0446 24.9582 33.2417 25.0387 33.3718 25.1908C33.5024 25.3445 33.5541 25.559 33.5163 25.7954Z" fill="#179BD7"/>
<path d="M23.25 20.8446L23.4694 19.4513L22.9807 19.44H20.6475L22.269 9.15831C22.2739 9.12726 22.2904 9.09832 22.3143 9.07777C22.3382 9.05722 22.3688 9.0459 22.4007 9.0459H26.335C27.6411 9.0459 28.5424 9.31769 29.0131 9.85415C29.2337 10.1058 29.3742 10.3688 29.4422 10.6582C29.5134 10.9619 29.5147 11.3247 29.4451 11.7672L29.44 11.7995V12.083L29.6607 12.208C29.8465 12.3066 29.9941 12.4194 30.1073 12.5486C30.2962 12.7638 30.4182 13.0373 30.4698 13.3615C30.523 13.6949 30.5054 14.0917 30.4182 14.5409C30.3175 15.0577 30.1548 15.5077 29.935 15.876C29.7328 16.2153 29.4753 16.4967 29.1696 16.7149C28.8776 16.9221 28.5307 17.0794 28.1386 17.1801C27.7585 17.279 27.3253 17.329 26.85 17.329H26.5439C26.325 17.329 26.1122 17.4078 25.9454 17.5492C25.778 17.6935 25.6672 17.8905 25.6332 18.1062L25.6102 18.2316L25.2226 20.6873L25.205 20.7775C25.2004 20.8061 25.1924 20.8204 25.1807 20.83C25.1702 20.8387 25.1551 20.8446 25.1404 20.8446H23.25Z" fill="#253B80"/>
<path d="M29.8699 11.8325C29.8582 11.9076 29.8448 11.9843 29.8297 12.0632C29.3108 14.727 27.5358 15.6473 25.2687 15.6473H24.1144C23.8372 15.6473 23.6036 15.8486 23.5603 16.1221L22.9693 19.8702L22.802 20.9326C22.7738 21.1121 22.9123 21.274 23.0934 21.274H25.1408C25.3833 21.274 25.5891 21.0979 25.6273 20.8588L25.6474 20.7547L26.0329 18.3086L26.0577 18.1744C26.0954 17.9345 26.3017 17.7584 26.5442 17.7584H26.8503C28.8338 17.7584 30.3867 16.953 30.8405 14.6226C31.0301 13.6491 30.9319 12.8362 30.4303 12.2645C30.2785 12.0921 30.0901 11.9491 29.8699 11.8325Z" fill="#179BD7"/>
<path d="M29.3264 11.6164C29.2472 11.5933 29.1653 11.5724 29.0814 11.5535C28.9972 11.535 28.9107 11.5187 28.8218 11.5044C28.5106 11.4541 28.1696 11.4302 27.8043 11.4302H24.7206C24.6446 11.4302 24.5726 11.4474 24.508 11.4784C24.3657 11.5468 24.2601 11.6814 24.2345 11.8463L23.5784 16.0012L23.5596 16.1224C23.6028 15.8489 23.8364 15.6476 24.1136 15.6476H25.2679C27.535 15.6476 29.3101 14.7269 29.8289 12.0635C29.8444 11.9847 29.8574 11.9079 29.8691 11.8328C29.7379 11.7632 29.5957 11.7036 29.4426 11.6529C29.4049 11.6403 29.3659 11.6282 29.3264 11.6164Z" fill="#222D65"/>
<path d="M24.2346 11.8459C24.2602 11.6811 24.3659 11.5465 24.508 11.4785C24.5731 11.4475 24.6448 11.4303 24.7206 11.4303H27.8044C28.1698 11.4303 28.5108 11.4542 28.8219 11.5045C28.9109 11.5188 28.9973 11.5351 29.0816 11.5536C29.1655 11.5725 29.2473 11.5934 29.3266 11.6165C29.3659 11.6282 29.4049 11.6404 29.4431 11.6526C29.5962 11.7033 29.7384 11.7633 29.8697 11.8325C30.0241 10.8481 29.8685 10.1778 29.3362 9.57091C28.7495 8.90275 27.6903 8.6167 26.3352 8.6167H22.4008C22.1239 8.6167 21.8879 8.81802 21.845 9.09191L20.2064 19.4793C20.174 19.6848 20.3325 19.8702 20.5397 19.8702H22.9687L23.5786 16.0009L24.2346 11.8459Z" fill="#253B80"/>
</g>
<defs>
<filter id="filter0_d_142_369" x="0.955842" y="0.664827" width="48.8159" height="36.1987" filterUnits="userSpaceOnUse" color-interpolation-filters="sRGB">
<feFlood flood-opacity="0" result="BackgroundImageFix"/>
<feColorMatrix in="SourceAlpha" type="matrix" values="0 0 0 0 0 0 0 0 0 0 0 0 0 0 0 0 0 0 127 0" result="hardAlpha"/>
<feOffset/>
<feGaussianBlur stdDeviation="2.16759"/>
<feComposite in2="hardAlpha" operator="out"/>
<feColorMatrix type="matrix" values="0 0 0 0 0 0 0 0 0 0 0 0 0 0 0 0 0 0 0.07 0"/>
<feBlend mode="normal" in2="BackgroundImageFix" result="effect1_dropShadow_142_369"/>
<feBlend mode="normal" in="SourceGraphic" in2="effect1_dropShadow_142_369" result="shape"/>
</filter>
</defs>
</svg>
