<svg width="50" height="37" viewBox="0 0 50 37" fill="none" xmlns="http://www.w3.org/2000/svg">
<g filter="url(#filter0_d_142_368)">
<rect x="5.28675" y="5.28675" width="39.572" height="26.9548" rx="3.15429" fill="white" stroke="#D9D9D9" stroke-width="0.573507"/>
<path fill-rule="evenodd" clip-rule="evenodd" d="M17.1879 23.6483H14.7558L12.9321 16.6907C12.8455 16.3706 12.6617 16.0877 12.3914 15.9543C11.7167 15.6192 10.9732 15.3525 10.1621 15.218V14.9501H14.0799C14.6207 14.9501 15.0262 15.3525 15.0938 15.8198L16.04 20.8386L18.4709 14.9501H20.8353L17.1879 23.6483ZM22.1873 23.6483H19.8905L21.7818 14.9501H24.0786L22.1873 23.6483ZM27.0502 17.3598C27.1178 16.8913 27.5234 16.6234 27.9965 16.6234C28.74 16.5562 29.5499 16.6907 30.2258 17.0247L30.6313 15.1519C29.9554 14.884 29.2119 14.7495 28.5372 14.7495C26.3079 14.7495 24.6858 15.9543 24.6858 17.6265C24.6858 18.8986 25.8348 19.5665 26.6459 19.9689C27.5234 20.3701 27.8613 20.638 27.7937 21.0392C27.7937 21.6411 27.1178 21.9089 26.4431 21.9089C25.632 21.9089 24.821 21.7083 24.0787 21.3732L23.6731 23.2471C24.4842 23.5811 25.3617 23.7156 26.1728 23.7156C28.6724 23.7817 30.2258 22.578 30.2258 20.7714C30.2258 18.4962 27.0502 18.3628 27.0502 17.3598ZM38.2641 23.6483L36.4404 14.9501H34.4815C34.076 14.9501 33.6704 15.218 33.5352 15.6192L30.1581 23.6483H32.5226L32.9945 22.3774H35.8997L36.1701 23.6483H38.2641ZM34.8192 17.2925L35.4939 20.5707H33.6025L34.8192 17.2925Z" fill="#172B85"/>
</g>
<defs>
<filter id="filter0_d_142_368" x="0.664827" y="0.664827" width="48.8159" height="36.1987" filterUnits="userSpaceOnUse" color-interpolation-filters="sRGB">
<feFlood flood-opacity="0" result="BackgroundImageFix"/>
<feColorMatrix in="SourceAlpha" type="matrix" values="0 0 0 0 0 0 0 0 0 0 0 0 0 0 0 0 0 0 127 0" result="hardAlpha"/>
<feOffset/>
<feGaussianBlur stdDeviation="2.16759"/>
<feComposite in2="hardAlpha" operator="out"/>
<feColorMatrix type="matrix" values="0 0 0 0 0 0 0 0 0 0 0 0 0 0 0 0 0 0 0.07 0"/>
<feBlend mode="normal" in2="BackgroundImageFix" result="effect1_dropShadow_142_368"/>
<feBlend mode="normal" in="SourceGraphic" in2="effect1_dropShadow_142_368" result="shape"/>
</filter>
</defs>
</svg>
