<svg width="24" height="24" viewBox="0 0 24 24" fill="none" xmlns="http://www.w3.org/2000/svg">
<path d="M12.0039 22.0026C6.48107 22.0026 2.00391 17.5255 2.00391 12.0026C2.00391 6.47984 6.48107 2.00269 12.0039 2.00269C17.5267 2.00269 22.0039 6.47984 22.0039 12.0026C22.0039 17.5255 17.5267 22.0026 12.0039 22.0026ZM8.50391 14.0026V16.0026H11.0039V18.0026H13.0039V16.0026H14.0039C15.3846 16.0026 16.5039 14.8834 16.5039 13.5026C16.5039 12.1219 15.3846 11.0026 14.0039 11.0026H10.0039C9.72777 11.0026 9.50391 10.7788 9.50391 10.5026C9.50391 10.2265 9.72777 10.0026 10.0039 10.0026H15.5039V8.00269H13.0039V6.00269H11.0039V8.00269H10.0039C8.6232 8.00269 7.50391 9.12197 7.50391 10.5026C7.50391 11.8834 8.6232 13.0026 10.0039 13.0026H14.0039C14.28 13.0026 14.5039 13.2265 14.5039 13.5026C14.5039 13.7788 14.28 14.0026 14.0039 14.0026H8.50391Z" fill="#00707E"/>
</svg>
