<svg width="289" height="245" viewBox="0 0 289 245" fill="none" xmlns="http://www.w3.org/2000/svg">
<path d="M246.792 149.43H32.3955L69.7432 0H284.16L246.792 149.43Z" fill="#00707E"/>
<path d="M242.388 143.342H39.5791L74.1668 6.0874H278.365L242.388 143.342Z" fill="white"/>
<path d="M250.943 149.43H246.793L284.16 0H288.31L250.943 149.43Z" fill="#00434C"/>
<mask id="mask0_143_1286" style="mask-type:luminance" maskUnits="userSpaceOnUse" x="59" y="14" width="90" height="89">
<path d="M122.536 102.999H66.0639C61.6205 102.999 58.3516 98.8302 59.4282 94.5042L78.102 19.5348C78.8654 16.4813 81.6058 14.3477 84.7377 14.3477H141.209C145.653 14.3477 148.922 18.517 147.845 22.8429L129.171 97.8123C128.408 100.846 125.667 102.999 122.536 102.999Z" fill="white"/>
</mask>
<g mask="url(#mask0_143_1286)">
<path d="M127.879 102.999H57.3135L79.3932 14.3477H149.958L127.879 102.999Z" fill="#EDF5F6"/>
</g>
<mask id="mask1_143_1286" style="mask-type:luminance" maskUnits="userSpaceOnUse" x="59" y="14" width="90" height="89">
<path d="M122.536 102.999H66.0639C61.6205 102.999 58.3516 98.8302 59.4282 94.5042L78.102 19.5348C78.8654 16.4813 81.6058 14.3477 84.7377 14.3477H141.209C145.653 14.3477 148.922 18.517 147.845 22.8429L129.171 97.8123C128.408 100.846 125.667 102.999 122.536 102.999Z" fill="white"/>
</mask>
<g mask="url(#mask1_143_1286)">
<path d="M135.258 116.995C135.18 117.23 135.082 117.445 134.965 117.661C133.575 119.912 110.634 120.01 108.011 118.13C106.836 117.289 106.484 105.681 106.445 93.1145C106.406 77.5726 106.836 60.543 106.836 60.543C106.836 60.543 115.821 64.7123 116.252 69.8407C116.682 74.9692 112.924 105.779 115.527 107.658C118.15 109.537 130.247 109.792 134.279 110.966C134.299 110.966 136.002 114.646 135.258 116.995Z" fill="#82B9C0"/>
<path d="M106.131 23.119L105.682 23.4745L106.253 23.5148C106.277 23.5165 106.301 23.5182 106.326 23.5199C107.148 23.5778 108.156 23.6487 109.149 23.893C110.171 24.1444 111.159 24.5751 111.902 25.3459C115.905 29.5137 117.244 32.9523 117.001 35.7252C116.759 38.495 114.931 40.6736 112.426 42.307C109.922 43.9397 106.771 45.0063 103.96 45.5553C102.556 45.8296 101.241 45.9737 100.14 45.9957C99.0328 46.0178 98.1641 45.9157 97.6374 45.7137L97.6371 45.7135C94.2164 44.4081 92.2359 41.2871 91.4995 37.6968C90.7628 34.105 91.2812 30.08 92.8233 27.0344L92.4868 26.7603C92.1527 27.0263 91.8439 27.2845 91.5775 27.5136C92.7582 25.5042 94.0288 24.1961 95.2844 23.3715C96.7593 22.4029 98.2257 22.093 99.5274 22.1084C100.832 22.1239 101.974 22.4663 102.792 22.8068C103.2 22.9767 103.526 23.1456 103.749 23.2713C103.861 23.3342 103.947 23.3862 104.004 23.4222C104.032 23.4401 104.054 23.454 104.068 23.4633L104.083 23.4736L104.087 23.4759L104.087 23.4763L104.087 23.4763L104.087 23.4764L104.175 23.5362L104.276 23.5062L104.276 23.5062L104.276 23.5062L104.276 23.5062L104.277 23.5058L104.282 23.5044L104.302 23.4988C104.319 23.4939 104.344 23.4866 104.377 23.4774C104.443 23.459 104.539 23.433 104.657 23.4025C104.894 23.3414 105.219 23.263 105.575 23.1931C105.767 23.1552 105.967 23.1201 106.166 23.0916C106.154 23.1006 106.142 23.1097 106.131 23.119Z" fill="#00434C" stroke="#00707E" stroke-width="0.444243"/>
<path d="M107.209 63.1071C107.248 63.1267 102.354 64.9275 99.0266 63.5377C95.8947 62.2263 94.3288 57.7437 94.3679 57.7437C95.7773 57.6459 96.4232 55.8059 97.4411 47.7021L98.0479 47.8979L108.226 51.3234C108.226 51.3234 107.561 54.5727 107.15 57.6654C106.798 60.2688 106.641 62.7548 107.209 63.1071Z" fill="#C8C8C8"/>
<path d="M108.226 51.3234C108.226 51.3234 107.561 54.5728 107.15 57.6655C101.336 56.7455 98.9287 51.0103 98.0479 47.8979L108.226 51.3234Z" fill="#C1C1C1"/>
<path d="M97.108 46.6258C97.108 46.6258 94.6808 41.3995 94.4655 37.1518C94.3285 34.1374 97.245 23.3716 108.05 26.386C108.05 26.386 111.201 27.1102 113.942 29.5375C116.115 31.4557 119.109 35.3902 114.02 44.453L112.591 47.5458L97.108 46.6258Z" fill="#00434C"/>
<path d="M109.792 54.4946C109.792 54.4946 95.9335 52.9287 97.0493 44.316C98.165 35.7033 97.108 29.694 106.014 30.34C114.901 30.9664 116.193 34.4897 116.526 37.4454C116.839 40.4207 113.433 54.6904 109.792 54.4946Z" fill="#C8C8C8"/>
<path d="M110.713 74.0101C110.595 72.9922 112.768 72.5224 113.159 73.462C113.903 75.2237 113.825 77.3181 113.981 79.0015C114.451 83.8363 112.533 90.1197 112.533 90.1197L110.713 74.0101Z" fill="#529EA7"/>
<path d="M93.3238 40.1472C93.4592 40.0545 93.6373 39.9277 93.8483 39.7668C94.3432 39.3892 95.0199 38.8227 95.7507 38.0646C97.1969 36.5646 98.8598 34.3092 99.7411 31.2784C99.7495 31.2743 99.7586 31.2698 99.7682 31.2651C99.8429 31.2286 99.9533 31.1754 100.095 31.1093C100.378 30.977 100.786 30.7932 101.283 30.5876C102.278 30.176 103.626 29.6788 105.046 29.3325C106.47 28.9854 107.948 28.7945 109.209 28.9811C110.462 29.1666 111.479 29.7203 112.04 30.8499L112.15 31.0729L112.359 30.9377C112.828 30.6345 113.435 30.4139 114.126 30.5828C114.82 30.7524 115.65 31.3268 116.533 32.7291C117.833 34.8008 117.594 37.4234 117.004 39.5642C116.71 40.629 116.334 41.5609 116.032 42.2245C115.881 42.556 115.749 42.8199 115.655 42.9992C115.629 43.0491 115.606 43.0924 115.587 43.1288C115.447 43.0692 115.307 42.8991 115.179 42.5444C115.021 42.1073 114.92 41.4893 114.845 40.7794C114.787 40.2276 114.747 39.6336 114.707 39.0419C114.695 38.8753 114.684 38.709 114.672 38.5438C114.62 37.7969 114.559 37.0728 114.454 36.4871C114.3 35.5925 113.826 34.6578 113.312 33.8517C112.795 33.0416 112.225 32.3427 111.859 31.9178L111.66 31.6866L111.501 31.9469C110.722 33.2226 109.298 35.3656 107.486 37.2602C105.667 39.1613 103.491 40.7778 101.211 41.0617C98.2327 41.4303 96.183 41.1477 94.8856 40.7797C94.2366 40.5957 93.7746 40.3899 93.4778 40.2326C93.4204 40.2021 93.3691 40.1735 93.3238 40.1472ZM115.703 43.3766L115.505 43.2772C115.504 43.2783 115.503 43.2803 115.502 43.2829C115.5 43.288 115.497 43.2952 115.494 43.3012C115.495 43.3123 115.496 43.3232 115.499 43.3339C114.754 43.0174 114.617 40.9975 114.485 39.0545C114.422 38.1303 114.361 37.2234 114.235 36.5256L115.703 43.3766Z" fill="#00434C" stroke="#00707E" stroke-width="0.444243"/>
<path d="M107.404 48.8769C107.404 48.8769 107.522 50.0122 110.262 50.1884C110.262 50.1884 112.572 50.345 112.65 49.1313C112.65 49.1313 110.536 47.996 107.404 48.8769Z" fill="white"/>
<path d="M135.258 116.995C135.18 117.23 135.082 117.446 134.965 117.661C133.575 119.912 110.634 120.01 108.011 118.131C106.836 117.289 106.464 102.863 109.694 90.4331C110.458 97.8909 109.048 112.787 112.963 114.001C117.387 115.371 129.464 115.41 135.258 116.995Z" fill="#00434C"/>
<path d="M113.296 90.8245C104.194 117.113 108.344 121.869 105.094 124.14C105.075 124.159 102.373 124.923 102.354 124.942C98.9871 127.174 99.3199 123.983 89.2391 126.88C84.4434 128.27 78.2775 130.11 72.9925 130.991C70.9959 131.324 69.1363 131.519 67.5117 131.5C64.3994 131.461 62.1875 130.639 61.6981 128.466C60.3084 122.163 72.7772 107.541 71.6027 96.3053C71.6027 96.2074 71.5831 96.1096 71.5831 96.0117C71.5244 95.033 71.6223 93.9368 71.8767 92.7428C73.1491 86.7139 78.1405 78.3753 83.0928 71.3481C88.5736 63.5967 93.9957 57.4308 94.3871 57.7244C105.075 66.1022 106.876 60.5235 106.876 60.5235C106.876 60.5235 116.408 81.8595 113.296 90.8245Z" fill="#82B9C0"/>
<path d="M103.313 124.688C103.293 124.688 103.333 124.668 103.313 124.688C99.9462 126.919 99.3003 123.983 89.2391 126.88C84.4434 128.27 78.2775 130.11 72.9925 130.991C70.3304 131.108 68.3534 131.245 67.5117 131.5C64.3994 131.46 62.1875 130.638 61.6981 128.466C60.3084 122.163 72.7772 107.541 71.6027 96.305C71.6027 96.2072 71.5831 96.1093 71.5831 96.0114C71.5048 94.8957 71.6027 93.8191 71.8767 92.7425C73.0316 88.2013 77.0639 83.6209 81.8792 76.8091C84.1106 79.8627 103.842 79.2167 95.7965 105.505C93.291 113.589 102.941 118.13 103.313 124.688Z" fill="#529EA7"/>
<path d="M94.3678 57.744C94.3678 57.744 78.6105 55.9236 74.8131 63.1465C71.0157 70.3694 68.4319 97.147 71.505 105.701C74.5782 114.255 96.5797 128.133 99.1439 128.896C101.689 129.66 103.842 125.862 103.783 125.412C103.724 124.962 81.8011 101.962 82.1926 99.907C82.5449 97.8517 94.3678 57.744 94.3678 57.744Z" fill="#82B9C0"/>
</g>
<path d="M136.628 41.9669C134.651 41.9669 133.046 40.3618 133.046 38.3848C133.046 36.4078 134.651 34.8027 136.628 34.8027C138.605 34.8027 140.21 36.4078 140.21 38.3848C140.21 40.3618 138.605 41.9669 136.628 41.9669ZM136.628 36.1925C135.414 36.1925 134.436 37.1712 134.436 38.3848C134.436 39.5984 135.414 40.5771 136.628 40.5771C137.842 40.5771 138.82 39.5984 138.82 38.3848C138.82 37.1908 137.842 36.1925 136.628 36.1925Z" fill="#1F818D"/>
<path d="M138.155 36.1926C137.979 36.1926 137.803 36.1339 137.665 35.9968C137.391 35.7228 137.391 35.2922 137.665 35.0181L148.803 23.8804H236.653C237.044 23.8804 237.338 24.1936 237.338 24.5655C237.338 24.9374 237.024 25.2506 236.653 25.2506H149.39L138.644 35.9968C138.507 36.1339 138.331 36.1926 138.155 36.1926Z" fill="#1F818D"/>
<path d="M233.129 21.1404H155.498C153.384 21.1404 151.661 19.4179 151.661 17.3038C151.661 15.1898 153.384 13.4673 155.498 13.4673H233.129C235.243 13.4673 236.966 15.1898 236.966 17.3038C236.966 19.4179 235.243 21.1404 233.129 21.1404Z" fill="#00707E"/>
<path d="M200.225 112.356C193.824 112.356 188.637 117.544 188.637 123.944C188.637 130.345 193.824 135.532 200.225 135.532C206.625 135.532 211.813 130.345 211.813 123.944C211.813 117.544 206.625 112.356 200.225 112.356Z" fill="#D9EFF2"/>
<path d="M239.587 117.465H220.385C219.68 117.465 219.112 118.033 219.112 118.738C219.112 119.442 219.68 120.01 220.385 120.01H239.587C240.292 120.01 240.859 119.442 240.859 118.738C240.859 118.033 240.292 117.465 239.587 117.465Z" fill="#D9EFF2"/>
<path d="M239.587 122.672H220.385C219.68 122.672 219.112 123.24 219.112 123.945C219.112 124.649 219.68 125.217 220.385 125.217H239.587C240.292 125.217 240.859 124.649 240.859 123.945C240.859 123.24 240.292 122.672 239.587 122.672Z" fill="#D9EFF2"/>
<path d="M239.587 127.879H220.385C219.68 127.879 219.112 128.447 219.112 129.151C219.112 129.856 219.68 130.424 220.385 130.424H239.587C240.292 130.424 240.859 129.856 240.859 129.151C240.859 128.447 240.292 127.879 239.587 127.879Z" fill="#D9EFF2"/>
<path d="M189.615 123.768H200.224V113.159C194.372 113.159 189.615 117.916 189.615 123.768Z" fill="#43A5B2"/>
<path d="M210.834 124.121H200.224H189.615C189.615 129.973 194.372 134.73 200.224 134.73C206.077 134.73 210.834 129.973 210.834 124.121Z" fill="#00707E"/>
<path d="M198.384 118.327H192.629C192.296 118.327 192.042 118.601 192.042 118.914C192.042 119.247 192.316 119.501 192.629 119.501H198.384C198.717 119.501 198.971 119.227 198.971 118.914C198.991 118.581 198.717 118.327 198.384 118.327Z" fill="#018697"/>
<path d="M193.941 120.48H192.629C192.296 120.48 192.042 120.754 192.042 121.067C192.042 121.4 192.316 121.654 192.629 121.654H193.941C194.273 121.654 194.528 121.38 194.528 121.067C194.547 120.754 194.273 120.48 193.941 120.48Z" fill="#018697"/>
<path d="M206.939 126.705H201.184C200.851 126.705 200.597 126.979 200.597 127.292C200.597 127.625 200.871 127.879 201.184 127.879H206.939C207.271 127.879 207.526 127.605 207.526 127.292C207.546 126.979 207.271 126.705 206.939 126.705Z" fill="#00434C"/>
<path d="M202.495 128.877H201.184C200.851 128.877 200.597 129.151 200.597 129.465C200.597 129.797 200.871 130.052 201.184 130.052H202.495C202.828 130.052 203.083 129.778 203.083 129.465C203.083 129.151 202.828 128.877 202.495 128.877Z" fill="#00434C"/>
<path d="M134.377 135.532C140.777 135.532 145.965 130.344 145.965 123.944C145.965 117.545 140.777 112.356 134.377 112.356C127.977 112.356 122.789 117.545 122.789 123.944C122.789 130.344 127.977 135.532 134.377 135.532Z" fill="#D9EFF2"/>
<path d="M154.538 119.99H173.74C174.445 119.99 175.013 119.423 175.013 118.718C175.013 118.013 174.445 117.446 173.74 117.446H154.538C153.833 117.446 153.266 118.013 153.266 118.718C153.266 119.423 153.833 119.99 154.538 119.99Z" fill="#D9EFF2"/>
<path d="M173.74 122.672H154.538C153.833 122.672 153.266 123.24 153.266 123.944C153.266 124.649 153.833 125.217 154.538 125.217H173.74C174.445 125.217 175.013 124.649 175.013 123.944C175.013 123.24 174.425 122.672 173.74 122.672Z" fill="#D9EFF2"/>
<path d="M173.74 127.879H154.538C153.833 127.879 153.266 128.447 153.266 129.151C153.266 129.856 153.833 130.424 154.538 130.424H173.74C174.445 130.424 175.013 129.856 175.013 129.151C174.993 128.447 174.425 127.879 173.74 127.879Z" fill="#D9EFF2"/>
<path d="M134.377 124.12L123.768 123.983C123.768 124.023 123.768 124.081 123.768 124.12C123.768 129.973 128.524 134.73 134.377 134.73C136.471 134.73 138.429 134.123 140.073 133.066L134.377 124.12Z" fill="#00707E"/>
<path d="M134.768 127.468H128.993C128.661 127.468 128.406 127.742 128.406 128.055C128.406 128.388 128.68 128.642 128.993 128.642H134.748C135.081 128.642 135.336 128.368 135.336 128.055C135.355 127.742 135.081 127.468 134.768 127.468Z" fill="#00434C"/>
<path d="M130.305 129.641H128.993C128.661 129.641 128.406 129.915 128.406 130.228C128.406 130.561 128.68 130.815 128.993 130.815H130.305C130.638 130.815 130.892 130.541 130.892 130.228C130.912 129.915 130.638 129.641 130.305 129.641Z" fill="#00434C"/>
<path d="M67.9434 135.532C74.3433 135.532 79.5314 130.344 79.5314 123.944C79.5314 117.545 74.3433 112.356 67.9434 112.356C61.5436 112.356 56.3555 117.545 56.3555 123.944C56.3555 130.344 61.5436 135.532 67.9434 135.532Z" fill="#D9EFF2"/>
<path d="M67.9432 113.335C62.0905 113.335 57.334 118.092 57.334 123.944C57.334 127.957 59.5655 131.461 62.8539 133.262C64.5569 130.11 67.9432 123.944 67.9432 123.944L72.9738 133.301C76.3014 131.5 78.5525 127.996 78.5525 123.944C78.5525 118.072 73.7959 113.335 67.9432 113.335Z" fill="#43A5B2"/>
<path d="M107.307 117.465H88.1044C87.3997 117.465 86.832 118.033 86.832 118.738C86.832 119.442 87.3997 120.01 88.1044 120.01H107.307C108.011 120.01 108.579 119.442 108.579 118.738C108.579 118.033 108.011 117.465 107.307 117.465Z" fill="#D9EFF2"/>
<path d="M107.307 122.672H88.1044C87.3997 122.672 86.832 123.24 86.832 123.945C86.832 124.649 87.3997 125.217 88.1044 125.217H107.307C108.011 125.217 108.579 124.649 108.579 123.945C108.579 123.24 108.011 122.672 107.307 122.672Z" fill="#D9EFF2"/>
<path d="M107.307 127.879H88.1044C87.3997 127.879 86.832 128.447 86.832 129.151C86.832 129.856 87.3997 130.424 88.1044 130.424H107.307C108.011 130.424 108.579 129.856 108.579 129.151C108.579 128.447 108.011 127.879 107.307 127.879Z" fill="#D9EFF2"/>
<path d="M68.3352 118.875H62.5804C62.2476 118.875 61.9932 119.149 61.9932 119.462C61.9932 119.795 62.2672 120.049 62.5804 120.049H68.3352C68.668 120.049 68.9225 119.775 68.9225 119.462C68.9225 119.149 68.668 118.875 68.3352 118.875Z" fill="#018697"/>
<path d="M63.8919 121.047H62.5804C62.2476 121.047 61.9932 121.321 61.9932 121.635C61.9932 121.967 62.2672 122.222 62.5804 122.222H63.8919C64.2246 122.222 64.4791 121.948 64.4791 121.635C64.4791 121.302 64.2051 121.047 63.8919 121.047Z" fill="#018697"/>
<path d="M144.615 103H241.351C243.328 103 245.07 101.649 245.54 99.7111L260.925 36.9561C261.59 34.2353 259.535 31.6123 256.736 31.6123H160.313C158.336 31.6123 156.614 32.9629 156.124 34.8812L140.426 97.6363C139.76 100.357 141.816 103 144.615 103Z" fill="#00707E"/>
<path d="M248.965 67.9813C248.965 67.9813 231.504 65.7303 217.998 75.8893C204.472 86.0484 186.268 76.7897 178.223 75.8893C164.267 74.3234 151.837 79.0212 147.198 84.2084L143.322 99.7503H241.174L248.965 67.9813Z" fill="#00434C"/>
<path d="M234.441 67.2377H235.205L241.155 43.0635H240.392L234.441 67.2377Z" fill="#D9EFF2"/>
<path d="M202.261 77.6313H203.005L209.014 53.4375H208.25L202.261 77.6313Z" fill="#D9EFF2"/>
<path d="M173.057 72.1508H173.8L179.829 47.957H179.086L173.057 72.1508Z" fill="#D9EFF2"/>
<path d="M231.075 46.7625H236.849C237.201 46.7625 237.554 46.4885 237.632 46.1361C237.71 45.7838 237.495 45.5098 237.162 45.5098H231.388C231.035 45.5098 230.683 45.7838 230.605 46.1361C230.507 46.4885 230.722 46.7625 231.075 46.7625Z" fill="#D9EFF2"/>
<path d="M230.506 49.0335H236.281C236.633 49.0335 236.985 48.7595 237.064 48.4071C237.142 48.0548 236.927 47.7808 236.594 47.7808H230.82C230.467 47.7808 230.115 48.0548 230.037 48.4071C229.958 48.7399 230.174 49.0335 230.506 49.0335Z" fill="#D9EFF2"/>
<path d="M198.874 59.0945H204.649C205.001 59.0945 205.353 58.8205 205.432 58.4682C205.51 58.1158 205.314 57.8418 204.962 57.8418H199.187C198.835 57.8418 198.483 58.1158 198.405 58.4682C198.307 58.8009 198.522 59.0945 198.874 59.0945Z" fill="#D9EFF2"/>
<path d="M198.327 61.3065H204.102C204.454 61.3065 204.806 61.0324 204.885 60.6801C204.963 60.3278 204.767 60.0537 204.415 60.0537H198.641C198.288 60.0537 197.936 60.3278 197.858 60.6801C197.76 61.0324 197.975 61.3065 198.327 61.3065Z" fill="#D9EFF2"/>
<path d="M170.101 49.973H175.875C176.228 49.973 176.58 49.6989 176.658 49.3466C176.737 48.9943 176.541 48.7202 176.188 48.7202H170.414C170.062 48.7202 169.709 48.9943 169.631 49.3466C169.533 49.6794 169.749 49.973 170.101 49.973Z" fill="#D9EFF2"/>
<path d="M169.533 52.1849H175.307C175.659 52.1849 176.012 51.9108 176.09 51.5585C176.168 51.2062 175.973 50.9321 175.62 50.9321H169.846C169.494 50.9321 169.141 51.2062 169.063 51.5585C168.985 51.9108 169.2 52.1849 169.533 52.1849Z" fill="#D9EFF2"/>
<path d="M28.2061 219.447L31.475 233.228L36.3685 233.188L36.5643 219.447H28.2061Z" fill="#D9D9D9"/>
<path d="M69.4297 220.034L78.7275 233.227L82.3487 228.569L76.7505 218.214L69.4297 220.034Z" fill="#D9D9D9"/>
<path d="M45.2159 38.3852C43.5325 37.426 41.4968 37.3281 40.0874 37.4064C40.4593 37.0345 41.164 36.8975 41.164 36.8975C40.2832 36.7605 38.3257 37.6413 38.3257 37.6413C26.0918 32.9239 24.1736 50.9323 24.428 55.1211C24.6825 59.31 20.3174 60.6802 13.9558 63.9687C1.81975 70.252 0.743164 78.6886 0.743164 78.6886C0.841035 78.7473 0.938907 78.806 1.03678 78.8843C1.64358 77.8664 2.87676 75.9482 3.93377 75.6545C3.89462 75.7524 2.70059 78.2971 2.25038 79.7456C5.83247 82.4664 12.5269 88.5148 17.2051 92.782C17.1855 91.9403 17.2247 90.7659 17.5183 90.1395L18.086 93.6041C20.5915 95.8943 22.314 97.519 22.314 97.519C22.0008 94.1326 37.6015 76.3005 45.7444 70.9567C47.7214 68.0402 48.4261 62.8921 48.4848 62.4811C48.152 66.5721 47.4473 68.8623 46.821 70.1542C53.7111 63.7925 49.6984 40.9494 45.2159 38.3852Z" fill="#00434C"/>
<path d="M45.2749 71.211C45.3141 71.2306 41.3405 73.2859 38.3652 72.4833C35.5465 71.72 33.7261 68.0791 33.7653 68.0596C34.9593 67.8247 35.2921 66.1804 35.2725 59.1729L35.801 59.2707L44.8443 61.052C44.8443 61.052 44.629 63.8903 44.629 66.5719C44.629 68.8425 44.7464 70.9761 45.2749 71.211Z" fill="#D9D9D9"/>
<path d="M35.0371 41.3406C35.0371 41.3406 39.5 36.5841 45.0983 41.1058C45.0983 41.1058 41.849 40.5381 35.0371 41.3406Z" fill="#00434C"/>
<path d="M44.8441 61.0718C44.8441 61.0718 44.6288 63.9101 44.6288 66.5918C39.559 66.4548 36.8969 61.8352 35.8008 59.271L44.8441 61.0718Z" fill="#C1C1C1"/>
<path d="M34.8613 58.2924C34.8613 58.2924 32.2188 54.1035 31.5728 50.5214C31.1226 47.9572 32.4145 38.4833 41.9472 39.8535C41.9472 39.8535 44.7071 40.1275 47.3105 41.8892C49.3854 43.279 52.3607 46.2934 49.0331 54.5733L48.1718 57.3724L34.8613 58.2924Z" fill="#00434C"/>
<path d="M80.8804 224.948L76.0847 225.085L70.8975 225.241C70.8975 225.241 58.918 211.892 52.1845 190.517C52.0279 190.027 51.8713 189.518 51.6951 189.009C48.0152 178.283 40.3812 164.816 36.3685 152.621C35.7225 150.683 35.1549 148.843 34.6459 147.12C34.4894 146.572 34.3132 146.024 34.1762 145.496C31.2205 135.2 30.3592 128.447 29.5566 121.224L58.5853 121.459C58.5657 121.459 63.2635 170.766 80.8804 224.948Z" fill="#59858B"/>
<path d="M54.5138 104.781C54.4355 118.6 56.53 124.512 56.53 124.512C56.53 124.512 44.1003 130.834 29.3413 126.176C29.1652 126.117 17.1074 123.376 17.1074 123.376C17.3619 122.809 19.5542 113.511 19.7891 113.002C22.9014 106.308 25.2699 103.372 25.6418 101.316C26.3269 97.4797 26.3465 93.5061 25.9941 89.7478C25.0937 79.8237 22.412 71.5829 22.412 71.5829C26.4443 70.6629 30.3005 69.097 34.4894 67.531C35.4485 68.7251 38.2868 69.9387 40.851 69.88C43.7871 69.8212 44.7071 68.5685 44.6093 67.1787C47.7411 68.9208 50.2271 70.5846 50.2271 70.5846C52.8892 75.2042 58.2917 79.7062 58.6831 86.8117C58.8202 88.5342 54.5138 104.409 54.5138 104.781Z" fill="#00707E"/>
<path d="M29.5556 106.328C28.2833 108.128 25.8561 119.031 19.8076 120.402C22.9199 112.631 25.2884 109.205 25.6603 106.817C26.3454 102.354 26.365 97.7345 26.0127 93.3695C28.0288 89.8265 29.5556 87.3798 29.5556 87.3798C29.7122 86.8121 32.7658 77.3382 33.7641 85.7942C34.7232 94.2895 30.9649 104.311 29.5556 106.328Z" fill="#D9EFF2"/>
<path d="M46.5275 63.5969C46.5275 63.5969 34.5481 63.7926 34.5481 56.3348C34.5481 48.877 32.9821 43.8856 40.6357 43.4354C48.2696 42.9852 49.7768 45.843 50.3836 48.3289C50.9709 50.8344 49.6398 63.362 46.5275 63.5969Z" fill="#D9D9D9"/>
<path d="M49.8401 44.34L49.8406 44.3406C51.1686 45.9398 51.2571 48.183 50.9857 50.0737C50.8508 51.0131 50.6289 51.8513 50.4383 52.4559C50.343 52.758 50.2558 53.0008 50.1917 53.1677C50.175 53.2112 50.1599 53.2494 50.1467 53.2819C50.0391 53.2427 49.914 53.1226 49.7746 52.8522C49.5934 52.5005 49.4393 51.9874 49.2979 51.39C49.1853 50.9144 49.0836 50.3988 48.9826 49.8861C48.9574 49.7581 48.9322 49.6303 48.9068 49.5033C48.781 48.8725 48.6518 48.2611 48.5012 47.7739L48.5008 47.7728C48.2628 47.0173 47.7518 46.2666 47.2238 45.6345C46.6932 44.9992 46.1315 44.4676 45.7744 44.1502L45.5468 43.9478L45.4237 44.2264C44.9081 45.3937 43.937 47.3741 42.6071 49.186C41.2719 51.0051 39.6029 52.616 37.7028 53.1052C35.2135 53.7445 33.4428 53.7271 32.3029 53.5558C31.7327 53.4701 31.3191 53.3456 31.0511 53.2446C31.0172 53.2318 30.9856 53.2194 30.9563 53.2075C31.0564 53.1167 31.1817 52.9991 31.3263 52.8555C31.7069 52.4774 32.2216 51.9179 32.7615 51.1893C33.8279 49.7503 34.9966 47.6463 35.418 44.9749C35.4214 44.9727 35.4249 44.9704 35.4284 44.968C35.4879 44.9286 35.576 44.8711 35.6892 44.7991C35.9156 44.6551 36.2425 44.4533 36.6429 44.2231C37.4446 43.7621 38.5374 43.1893 39.7074 42.7372C40.8807 42.2839 42.1144 41.9589 43.203 41.9783C44.2845 41.9976 45.2005 42.3545 45.7944 43.2454L45.9349 43.4561L46.1255 43.2893C46.4877 42.9724 46.9761 42.7208 47.5744 42.7875C48.1756 42.8545 48.9402 43.2487 49.8401 44.34Z" fill="#00434C" stroke="#00707E" stroke-width="0.444243"/>
<path d="M31.3179 232.444C31.3179 232.444 31.7094 235.165 30.6915 238.101C30.6915 238.101 29.889 241.762 33.4906 241.82C37.0923 241.879 37.9731 241.546 37.5621 239.315C37.151 237.083 36.3876 233.208 36.3876 233.208L31.3179 232.444Z" fill="#D9D9D9"/>
<path d="M37.8946 243.621H30.4368H30.4172C30.0062 241.703 30.6717 238.101 30.6717 238.101C34.7432 241.997 37.2878 238.003 37.2878 238.003C37.9729 239.667 37.8946 243.621 37.8946 243.621Z" fill="#BEBEBE"/>
<path d="M91.0191 239.844C91.0191 239.844 84.3835 232.308 82.3478 228.569L77.415 231.094L88.4353 241.449L91.0191 241.116V239.844Z" fill="#D9D9D9"/>
<path d="M95.0913 243.602H85.8914C85.0889 242.878 84.3059 241.409 83.3663 239.472C82.8183 238.375 81.6047 237.749 80.3715 237.416V243.602H78.4728L76.7111 237.025C75.5366 234.833 76.4175 232.797 77.2396 231.055C78.1987 231.055 80.9978 231.74 85.8914 237.377C87.4965 239.237 89.2778 239.883 91.0394 239.824C91.059 239.844 91.0786 239.844 91.1177 239.863C93.8973 241.155 94.7977 242.741 95.0913 243.602Z" fill="#BEBEBE"/>
<path d="M94.6412 75.9872C94.6412 75.9872 86.7919 80.3718 83.9733 81.6441C82.975 82.0943 81.1741 82.936 79.3146 83.7973C78.1988 84.3258 77.0635 84.8543 76.0848 85.3045C74.4406 86.0875 72.4636 85.6569 71.2891 84.2671C67.0415 79.2952 56.0212 68.5294 44.6486 67.1788L44.6094 67.1592C44.6094 67.1592 44.6094 67.1592 44.6094 67.1788C44.6094 67.1788 44.6094 67.1788 44.5898 67.1788L44.6486 67.2962C45.2945 68.8817 51.5191 84.4628 51.7149 87.7513C51.9106 91.2159 52.537 144.38 52.537 144.38C52.537 144.38 52.1259 146.826 56.8238 145.809C61.502 144.791 62.7352 143.773 62.7352 143.773C62.7352 143.773 58.2527 110.986 59.4663 99.5742C59.7012 97.3427 59.4859 94.8176 58.9965 92.2142C65.9258 96.4031 74.0883 98.2823 74.0883 98.2823C74.0883 98.2823 77.1418 96.9512 81.8592 94.0151C83.8362 92.7819 86.146 90.8245 88.4166 88.73C91.157 86.2245 95.8744 80.1565 95.8744 80.1565L94.6412 75.9872Z" fill="#018697"/>
<path d="M76.0843 225.084L70.8971 225.241C70.8971 225.241 58.9176 211.891 52.1841 190.516C52.0275 190.027 51.8709 189.518 51.6947 189.009C48.0148 178.282 40.3808 164.815 36.3681 152.62C35.7221 150.683 35.1545 148.843 34.6456 147.12C34.489 146.572 34.3128 146.024 34.1758 145.495L38.443 142.246C38.443 142.246 51.2837 163.034 55.2377 182.569C58.6828 199.579 72.5022 220.015 76.0843 225.084Z" fill="#00434C"/>
<path d="M38.8731 184.409C38.9514 193.922 38.462 215.787 37.2288 224.83H32.6289C30.0842 224.83 28.8119 224.791 28.8119 224.791C25.6996 209.053 23.4877 196.036 21.8826 184.82C20.5711 175.62 19.3967 167.712 18.4963 160.92C17.5959 154.088 16.9499 148.353 16.7346 143.518C16.6954 142.755 16.6759 142.011 16.6563 141.287C16.6367 140.563 16.6367 139.858 16.6367 139.173L41.7113 136.726C41.4177 153.403 38.8339 178.889 38.8731 184.409Z" fill="#59858B"/>
<path d="M32.6296 224.83C30.085 224.83 28.8127 224.791 28.8127 224.791C25.7004 209.053 23.4885 196.036 21.8834 184.82C20.5719 175.62 19.3975 167.712 18.497 160.92C17.5966 154.089 16.9507 148.353 16.7354 143.519L25.9353 148.941C25.9353 148.941 20.063 151.015 22.2944 166.694C24.5455 182.373 29.5173 222.618 32.6296 224.83Z" fill="#00434C"/>
<path d="M33.8243 143.362C33.8243 143.362 32.0626 149.743 25.9554 148.921C19.8482 148.099 11.1377 144.458 11.1377 144.458C11.1377 144.458 13.7411 136.198 16.9904 125.373C20.9248 112.239 25.7792 95.3267 28.089 84.6587C28.735 81.6639 29.1656 79.1779 29.3418 77.3771L34.5094 67.5312C34.5094 67.5312 41.9672 84.5021 42.3782 88.7889C42.7893 93.0561 33.8243 143.362 33.8243 143.362Z" fill="#00707E"/>
<path d="M49.1891 122.555L34.665 120.46C32.5902 120.167 31.1417 118.229 31.4353 116.154L35.722 86.5185C36.0156 84.4437 37.9535 82.9952 40.0284 83.2888L54.5525 85.3832C56.6273 85.6768 58.0758 87.6147 57.7822 89.6896L53.4955 119.305C53.2018 121.419 51.2836 122.848 49.1891 122.555Z" fill="#E4F4F6"/>
<path d="M50.5404 107.404C52.1846 106.19 53.9463 105.975 55.4144 106.151L56.1386 101.121L52.2825 103.607L32.6691 107.776L31.71 114.431C36.4078 113.061 47.4477 109.694 50.5404 107.404Z" fill="#D9EFF2"/>
<path d="M56.7841 97.5384C55.1008 96.6185 53.4957 97.0882 51.8514 98.615C51.0097 99.398 50.54 100.064 49.9527 100.67C47.0166 100.827 40.0482 101.199 34.1759 101.571L33.6865 109.263C38.5018 108.657 44.4132 107.443 51.2251 105.114C51.7536 105.016 52.3799 104.663 53.2216 104.037C55.3356 102.432 57.1365 102.706 57.6063 102.041C58.2326 101.14 59.1331 98.8108 56.7841 97.5384Z" fill="#D9D9D9"/>
<path d="M33.5501 97.7343C33.276 104.664 31.6514 118.111 17.1077 125.295C17.0685 125.314 17.0294 125.334 16.9902 125.354C20.9247 112.219 25.7791 95.3071 28.0888 84.6392C30.7705 88.6323 33.7067 93.9174 33.5501 97.7343Z" fill="#00707E"/>
<path d="M34.5081 67.5117C34.5081 67.5117 22.0785 68.3926 19.0836 75.0478C16.0887 81.7031 15.1492 103.842 18.9466 110.36C18.9466 110.36 24.1729 111.847 33.4315 110.125C33.549 110.105 33.6664 110.086 33.7643 110.066C33.7643 110.066 36.72 102.843 34.0775 101.414C34.0775 101.414 26.2673 101.825 27.0895 99.2416C27.9312 96.6578 34.5081 67.5117 34.5081 67.5117Z" fill="#018697"/>
<path d="M103.077 70.7612C96.3826 69.8999 94.6992 75.9875 94.6992 75.9875L95.952 80.1568C98.0073 80.4505 99.8081 79.9024 101.472 77.5339C103.136 75.1654 103.586 76.0658 104.643 74.3041C106.091 71.8965 103.84 70.9961 103.077 70.7612Z" fill="#D9D9D9"/>
<path d="M83.9917 81.6443C82.9934 82.0945 81.1926 82.9362 79.333 83.7974C80.3313 85.5591 81.5645 88.7497 81.8972 94.0152C83.8742 92.782 86.458 90.7267 88.6504 88.5736C92.1737 85.1089 95.9124 80.1566 95.9124 80.1566L94.6597 75.9873C94.6401 75.9873 86.7908 80.3719 83.9917 81.6443Z" fill="#D9D9D9"/>
<path d="M287.918 244.6H0.391485C0.176168 244.6 0 244.424 0 244.208C0 243.993 0.176168 243.817 0.391485 243.817H287.898C288.114 243.817 288.29 243.993 288.29 244.208C288.309 244.424 288.133 244.6 287.918 244.6Z" fill="#00707E"/>
</svg>
