<svg width="320" height="235" viewBox="0 0 320 235" fill="none" xmlns="http://www.w3.org/2000/svg">
<path d="M320.001 148.059H146.688V151.812H320.001V148.059Z" fill="#80A1A5"/>
<path d="M220.567 37.559C220.567 37.559 229.393 11.7065 212.545 3.69007C195.72 -4.32639 181.432 7.27189 178.726 13.534C176.019 19.7961 176.751 31.1994 179.043 39.1672C181.335 47.1105 181.018 59.2205 175.995 63.2653C170.996 67.31 164.779 74.0351 165.096 87.7289C165.291 96.2083 198.524 66.0186 198.524 66.0186L220.567 37.559Z" fill="#03454E"/>
<path d="M196.914 68.309C196.914 68.309 183.065 71.3792 177.579 74.5711C172.093 77.7875 159.877 92.529 159.877 98.8885C159.877 105.224 213.227 111.169 213.227 111.169L223.345 148.059C223.345 148.059 250.313 141.481 253.507 136.023C256.725 130.565 243.266 91.4812 240.974 83.5866C238.633 75.5214 228.953 69.8928 217.737 68.309C206.497 66.7496 196.914 68.309 196.914 68.309Z" fill="#008597"/>
<path d="M216.761 68.1872C216.761 68.1872 216.444 84.9999 203.107 85.4872C189.77 85.9745 192.549 69.3568 192.549 69.3568C192.549 69.3568 202.302 65.4339 216.761 68.1872Z" fill="#DCDFDE"/>
<path d="M222.42 17.4814C222.42 17.4814 227.15 44.5035 213.691 64.0451C199.768 84.269 222.42 17.4814 222.42 17.4814Z" fill="#03454E"/>
<path d="M213.909 56.2966C213.909 56.2966 212.983 64.3374 214.519 69.3324C216.079 74.3275 194.11 74.4737 194.135 70.3558C194.159 65.6775 196.378 61.7789 194.281 53.7868C192.184 45.7947 213.909 56.2966 213.909 56.2966Z" fill="#DCDFDE"/>
<path d="M196.891 57.3442C196.891 57.3442 203.815 64.5566 212.691 58.0996C212.691 58.0996 211.959 62.7048 205.595 63.3139C199.183 63.8987 196.891 57.3442 196.891 57.3442Z" fill="#C1C5C5"/>
<path d="M205.545 8.10043C205.545 8.10043 223.052 13.2904 220.565 37.5591C218.054 61.8521 206.618 60.5851 205.545 60.78C204.472 60.9506 190.891 61.8521 186.6 32.3935C182.333 2.91045 205.545 8.10043 205.545 8.10043Z" fill="#DCDFDE"/>
<path d="M201.035 18.919C201.035 18.919 210.544 34.0503 220.566 37.559C220.566 37.559 226.027 12.1695 203.449 6.85772C180.87 1.5459 184.406 32.4909 186.088 40.751C186.088 40.751 190.794 28.6167 201.035 18.919Z" fill="#03454E"/>
<path d="M188.283 16.6529C188.283 16.6529 193.282 6.95519 201.743 6.5166C210.203 6.07801 215.226 13.4122 215.226 13.4122C215.226 13.4122 211.935 5.1521 201.743 5.1521C191.575 5.17647 188.283 16.6529 188.283 16.6529Z" fill="#A8BFC2"/>
<path d="M222.712 92.8945L228.637 148.059H150.49L144.541 92.8945H222.712Z" fill="#1C5860"/>
<path d="M234.855 143.089H221.811V148.06H234.855V143.089Z" fill="#1C5860"/>
<path d="M191.43 119.575C192.137 123.011 190.527 126.227 187.845 126.788C185.163 127.324 182.432 124.985 181.725 121.573C181.018 118.162 182.627 114.921 185.309 114.361C187.992 113.801 190.747 116.14 191.43 119.575Z" fill="#527F85"/>
<path d="M275.135 176.202C275.135 176.202 274.038 177.153 273.063 178.639C272.087 180.125 269.478 180.198 269.356 182.196C269.235 184.219 272.916 184.267 274.818 183.61C276.744 182.952 277.037 180.978 278.183 180.491C279.353 180.003 279.939 179.589 279.865 178.639C279.768 177.689 279.134 176.129 279.134 176.129C279.134 176.129 278.402 176.348 277.988 176.397C277.549 176.47 276.135 176.495 275.135 176.202Z" fill="#00434C"/>
<path d="M288.303 121.695C288.303 121.695 287.571 126.081 286.962 128.956C286.718 130.126 286.499 131.052 286.377 131.344C286.206 131.71 284.816 133.196 283.134 134.926C280.159 137.972 276.233 141.822 276.233 141.822L274.697 138.922C274.697 138.922 278.184 134.829 280.549 132.124C281.646 130.857 282.5 129.882 282.646 129.76C283.134 129.322 283.719 124.96 284.524 121.378C285.328 117.797 286.937 115.823 286.937 115.823L288.303 121.695Z" fill="#008597"/>
<path d="M283.134 134.951C280.159 137.996 276.233 141.846 276.233 141.846L274.697 138.947C274.697 138.947 278.184 134.853 280.549 132.148C281.281 132.49 282.597 133.318 283.134 134.951Z" fill="#DCDFDE"/>
<path d="M302.176 175.009C302.176 175.009 303.175 176.129 303.785 176.787C304.37 177.47 306.662 178.663 306.686 180.686C306.711 182.854 305.004 182.66 303.492 182.586C301.98 182.513 300.761 181.466 300.127 180.223C299.493 178.98 297.787 178.663 297.689 177.664C297.567 176.665 298.469 174.887 298.469 174.887L302.176 175.009Z" fill="#00434C"/>
<path d="M298.64 173.059L298.445 174.911C298.445 174.911 301.591 176.275 302.176 175.008L302.03 173.351L298.64 173.059Z" fill="#6E9499"/>
<path d="M275.305 174.862L275.135 176.202C275.135 176.202 277.037 176.885 279.134 176.154L279.182 174.96L275.305 174.862Z" fill="#6E9499"/>
<path d="M302.347 141.261C302.469 141.651 282.158 141.261 282.158 141.261C282.158 141.261 287.766 137.168 288.132 136.096C288.498 134.999 286.693 128.469 286.474 126.325C286.279 124.619 285.816 116.993 286.937 115.823C288.108 114.605 292.35 113.338 292.35 113.338L298.519 113.557C298.519 113.557 299.543 113.776 300.275 114.117C301.006 114.458 305.176 115.945 305.834 118.016C306.517 120.087 301.689 126.788 301.689 126.788C301.689 126.788 301.689 127.08 301.664 127.592C301.64 128.25 301.616 129.249 301.591 130.321C301.567 131.734 301.543 133.269 301.543 134.39C301.543 136.997 302.25 140.871 302.347 141.261Z" fill="#008597"/>
<path d="M302.346 141.261C302.346 141.261 305.102 145.306 305.15 148.084C305.199 150.862 304.126 158.513 304.053 160.048C303.98 161.558 302.541 174.229 302.541 174.229C302.541 174.229 301.444 175.252 298.128 173.961C298.128 173.961 297.397 161.948 297.324 160.657C297.25 159.365 297.25 153.444 296.495 152.592C295.763 151.739 291.277 149.034 290.691 148.547C290.106 148.035 279.914 150.472 278.841 150.74C276.086 151.446 277.33 156.271 277.939 158.415C278.963 162.021 279.865 175.033 279.865 175.033C279.865 175.033 277.89 175.861 274.599 175.155C274.599 175.155 268.113 151.641 267.918 149.302C267.698 146.963 267.601 143.113 283.572 140.189L302.346 141.261Z" fill="#125059"/>
<path d="M294.056 99.9119C294.056 99.9119 288.692 98.6936 289.935 105.443C291.154 112.168 292.447 112.704 295.689 111.315C298.932 109.926 298.64 105.614 298.786 103.494C298.932 101.374 295.763 99.985 294.056 99.9119Z" fill="#DCDFDE"/>
<path d="M292.643 115.043C292.643 115.043 295.008 117.553 298.763 115.263C298.763 115.263 297.934 109.805 298.373 107.173C298.811 104.517 293.472 111.291 293.472 111.291C293.545 111.34 293.594 111.583 293.594 111.949C293.594 112.266 293.594 112.631 293.545 113.021C293.423 113.898 293.155 114.824 292.643 115.043Z" fill="#DCDFDE"/>
<path d="M296.935 104.566C297.008 103.981 298.178 103.762 298.276 104.639C298.373 105.54 297.739 107.1 297.3 106.929C296.837 106.783 296.837 105.37 296.935 104.566Z" fill="#DCDFDE"/>
<path d="M298.495 106.954C298.495 106.954 298.348 104.834 297.593 104.761C296.812 104.688 296.69 105.54 296.69 105.54L295.91 105.687C295.91 105.687 296.154 103.835 295.374 103.494C294.593 103.177 290.351 104.517 289.741 103.981C289.132 103.445 289.4 99.6682 290.546 99.1565C291.668 98.6448 294.764 97.4752 297.056 99.0103C297.056 99.0103 298.836 98.8154 299.104 100.229C299.348 101.691 298.982 105.882 298.495 106.954Z" fill="#1A565E"/>
<path d="M293.545 113.021C297.422 111.827 297.714 109.512 297.714 109.463C296.446 111.656 293.618 111.949 293.618 111.949C293.594 112.241 293.594 112.631 293.545 113.021Z" fill="#C1C5C5"/>
<path d="M300.348 114.118C300.348 114.118 297.519 119.746 292.935 119.381C288.351 119.015 292.155 113.362 292.375 113.289C292.594 113.265 297.056 112.144 300.348 114.118Z" fill="#DCDFDE"/>
<path d="M279.842 140.969C279.842 140.969 293.862 142.699 302.347 141.261L286.108 139.239C286.133 139.239 286.035 139.653 279.842 140.969Z" fill="#036B70"/>
<path d="M290.326 138.581L289.277 139.117C289.277 139.117 289.521 140.774 290.082 141.286L291.252 140.993C291.277 140.969 291.033 139.166 290.326 138.581Z" fill="#DCDFDE"/>
<path d="M306.541 135.194C306.321 135.438 303.566 136.534 300.469 137.752C296.227 139.385 291.423 140.944 291.423 140.944L290.326 138.605C290.326 138.605 295.349 135.876 298.738 133.951C300.348 133.05 301.591 132.319 301.762 132.148C302.298 131.637 302.444 130.784 302.054 129.346C301.664 127.884 300.738 121.208 300.616 120.428C300.518 119.648 300.884 117.577 302.835 117.455C304.785 117.358 305.785 117.894 305.785 117.894C305.785 117.894 306.273 118.089 306.638 122.816C307.004 127.592 307.053 134.634 306.541 135.194Z" fill="#008597"/>
<path d="M301.663 127.543C301.639 128.201 301.614 129.2 301.59 130.272C299.688 125.618 300.785 121.89 300.81 121.817C300.59 123.109 301.639 127.494 301.663 127.543Z" fill="#036B70"/>
<path d="M286.961 128.956C286.717 130.126 286.497 131.052 286.375 131.344C285.717 128.201 286.302 124.181 286.302 124.181C286.4 126.106 286.961 128.956 286.961 128.956Z" fill="#036B70"/>
<path d="M300.469 137.753C296.227 139.385 291.253 140.993 291.253 140.993L290.326 138.605C290.326 138.605 295.349 135.876 298.738 133.951C298.738 133.951 299.982 134.561 300.469 137.753Z" fill="#DCDFDE"/>
<path d="M290.033 141.115L270.088 140.823L280.158 145.94L290.033 141.115Z" fill="#ACB2B1"/>
<path d="M280.159 145.939L290.034 142.114V141.115L279.379 144.965L280.159 145.939Z" fill="#1F4443"/>
<path d="M289.521 139.166C289.521 139.166 288.278 138.971 287.424 138.776C286.766 138.63 285.108 138.825 284.693 139.263C284.279 139.702 282.938 142.675 282.67 142.845C282.426 143.016 282.792 143.454 283.255 143.235C283.255 143.235 283.669 144.526 284.669 144.039C285.669 143.552 286.351 142.48 286.888 142.309C287.424 142.114 290.497 141.188 290.497 141.188C290.497 141.188 290.301 138.849 289.521 139.166Z" fill="#DCDFDE"/>
<path d="M284.962 139.044C284.962 139.044 284.157 139.434 283.962 139.604C283.742 139.775 282.913 140.408 282.694 140.555C282.499 140.701 283.011 141.115 284.523 140.482C286.034 139.824 284.962 139.044 284.962 139.044Z" fill="#DCDFDE"/>
<path d="M280.158 145.94L274.233 129.76L255.117 130.077L260.774 144.965L280.158 145.94Z" fill="#00434C"/>
<path d="M268.114 136.924C268.699 138.094 268.529 139.361 267.724 139.751C266.919 140.14 265.798 139.531 265.212 138.362C264.627 137.192 264.798 135.925 265.603 135.535C266.407 135.121 267.529 135.755 268.114 136.924Z" fill="#B9BEBD"/>
<path d="M68.248 233.633H144.932C144.786 232.732 144.664 231.343 144.542 230.003C143.81 222.011 143.347 216.723 143.347 216.723C143.347 216.723 80.4638 185.559 73.5635 206.051C71.3447 212.63 69.7842 220.841 68.7113 230.003C68.5406 231.392 68.37 232.78 68.248 233.633Z" fill="#59858B"/>
<path d="M133.131 127.738C133.131 127.738 136.642 148.595 139.47 162.362C140.616 167.942 141.64 172.377 142.299 173.766C143.103 175.52 149.687 182.586 157.757 190.871C171.9 205.417 190.577 223.741 190.577 223.741L197.867 209.876C197.867 209.876 181.287 190.432 170.022 177.469C164.804 171.475 160.757 166.846 160.001 166.188C157.66 164.092 154.929 143.381 151.077 126.3C147.248 109.244 139.544 99.79 139.544 99.79L133.131 127.738Z" fill="#9CCFD6"/>
<path d="M157.732 190.846C171.874 205.393 190.552 223.716 190.552 223.716L197.842 209.852C197.842 209.852 181.262 190.408 169.997 177.445C166.583 179.15 160.244 183.171 157.732 190.846Z" fill="#DCDFDE"/>
<path d="M69.5158 221.012C69.0038 222.863 140.519 223.619 140.519 223.619C140.519 223.619 137.471 201.324 135.74 196.134C134.008 190.944 140.665 159.877 141.786 149.741C142.689 141.627 144.907 105.321 139.568 99.7657C133.984 93.9666 113.819 87.8994 113.819 87.8994L84.4381 88.9959C84.4381 88.9959 79.5859 90.0193 76.1236 91.6274C72.6612 93.2356 52.838 100.302 49.6195 110.194C46.4009 120.087 69.3939 151.909 69.3939 151.909C69.3939 151.909 69.4427 153.347 69.5158 155.686C69.6134 158.805 69.7353 163.556 69.8572 168.698C70.0035 175.374 70.1498 182.708 70.1498 188.069C70.1498 200.69 70.0523 219.16 69.5158 221.012Z" fill="#9CCFD6"/>
<path d="M105.772 24.1331C105.772 24.1331 131.276 18.3827 125.449 50.4486C119.621 82.5144 113.501 85.0485 98.1155 78.3965C82.73 71.7689 84.1198 51.2039 83.3395 41.1407C82.5349 31.0775 97.6278 24.4986 105.772 24.1331Z" fill="#DCDFDE"/>
<path d="M112.503 96.1351C112.503 96.1351 101.213 108.099 83.3652 97.2316C83.3652 97.2316 87.364 71.3061 85.2671 58.6844C83.1702 46.0627 108.553 78.2504 108.553 78.2504C108.211 78.421 107.992 79.6393 107.943 81.3449C107.894 82.8069 107.967 84.61 108.211 86.4862C108.723 90.6771 110.04 95.1118 112.503 96.1351Z" fill="#DCDFDE"/>
<path d="M92.0939 46.209C91.7526 43.3826 86.1689 42.3348 85.7056 46.5745C85.2667 50.8142 88.2415 58.2703 90.3628 57.5393C92.4841 56.8083 92.5572 50.1076 92.0939 46.209Z" fill="#DCDFDE"/>
<path d="M84.5589 57.6123C84.5589 57.6123 85.2173 47.5003 88.8991 47.1836C92.5809 46.8668 93.166 50.9359 93.166 50.9359L96.8966 51.6426C96.8966 51.6426 95.7262 42.7977 99.4081 41.2382C103.09 39.7032 123.303 46.1114 126.254 43.5043C129.204 40.8971 127.814 22.9393 122.474 20.4783C117.11 18.0173 102.334 12.5106 91.508 19.8448C91.508 19.8448 83.0716 18.8945 81.8037 25.6926C80.5358 32.4908 82.2669 52.5441 84.5589 57.6123Z" fill="#1A565E"/>
<path d="M108.21 86.4862C89.8009 80.8089 88.4111 69.7223 88.3867 69.5518C94.458 79.9561 107.942 81.345 107.942 81.345C107.893 82.8069 107.966 84.61 108.21 86.4862Z" fill="#C1C5C5"/>
<path d="M75.8301 91.7736C75.8301 91.7736 89.3138 118.601 111.088 116.871C132.861 115.141 114.794 88.1674 113.818 87.9237C112.746 87.6313 91.4838 82.3439 75.8301 91.7736Z" fill="#DCDFDE"/>
<path d="M46.2539 192.065C47.2536 193.21 60.3715 198.497 75.1963 204.199C95.434 211.996 118.281 219.379 118.281 219.379L123.474 208.244C123.474 208.244 99.5547 195.257 83.3889 186.144C75.7571 181.831 69.8564 178.395 69.0274 177.616C66.4184 175.13 65.7601 171.183 67.662 164.263C69.5638 157.343 73.9771 125.545 74.4648 121.842C74.9524 118.138 73.2212 108.245 63.9558 107.734C54.6659 107.246 49.96 109.853 49.96 109.853C49.96 109.853 47.6193 110.828 45.8881 133.342C44.1326 155.808 43.8887 189.336 46.2539 192.065Z" fill="#9CCFD6"/>
<path d="M69.5156 155.662C69.6132 158.781 69.7351 163.532 69.857 168.698C78.9274 146.5 73.6851 128.786 73.5875 128.493C74.5872 134.512 69.5888 155.369 69.5156 155.662Z" fill="#008597"/>
<path d="M139.469 162.362C140.615 167.942 141.639 172.377 142.297 173.766C145.394 158.805 142.614 139.629 142.614 139.629C142.175 148.79 139.469 162.362 139.469 162.362Z" fill="#008597"/>
<path d="M75.1973 204.175C95.4594 211.972 124.012 218.478 124.012 218.478L128.059 208.755C128.059 208.755 99.5801 195.208 83.4143 186.095C83.3899 186.119 77.5136 188.97 75.1973 204.175Z" fill="#DCDFDE"/>
<path d="M128.033 208.78C128.033 208.78 133.958 207.854 138.055 206.904C141.224 206.173 149.1 207.172 151.124 209.218C153.123 211.241 159.511 225.422 160.731 226.275C161.95 227.127 160.121 229.15 158 228.126C158 228.126 156.39 230.929 151.587 228.614C146.784 226.299 143.175 224.642 140.664 223.741C138.152 222.839 123.498 218.356 123.498 218.356C123.498 218.356 124.254 207.269 128.033 208.78Z" fill="#DCDFDE"/>
<path d="M149.004 210.412C149.004 210.412 152.807 212.24 153.807 213.068C154.807 213.897 158.83 216.894 159.805 217.6C160.781 218.307 158.342 220.329 151.125 217.211C143.932 214.116 149.004 210.412 149.004 210.412Z" fill="#DCDFDE"/>
<path d="M149.345 168.795L142.713 230.417H230.028L236.66 168.795H149.345Z" fill="#1C5860"/>
<path d="M135.755 230.421H150.336V224.866H135.755V230.421Z" fill="#1C5860"/>
<path d="M237.342 230.295H0V234.048H237.342V230.295Z" fill="#80A1A5"/>
<path d="M64.7363 174.009C64.7363 174.009 44.4011 190.627 52.5937 205.368C60.7619 220.11 66.0043 208.122 66.0043 208.122C66.0043 208.122 72.1 210.461 64.1512 192.454C60.3718 183.975 64.7363 174.009 64.7363 174.009Z" fill="#99C6CB"/>
<path d="M31.1127 151.812C31.1127 151.812 15.337 167.747 32.9414 192.771C50.5458 217.795 46.6202 230.027 46.6202 230.027C46.6202 230.027 76.6842 191.066 31.1127 151.812Z" fill="#549FA9"/>
<path d="M52.1306 222.863C61.0059 225.373 55.0809 199.009 42.158 189.993C29.2351 181.002 17.19 179.321 10.1921 171.037C10.1921 171.037 8.38779 210.558 52.1306 222.863Z" fill="#00707E"/>
<path d="M20.9696 207.172H8.70508V216.041V217.917L10.5826 216.041H20.9696V207.172Z" fill="white"/>
<path d="M184.846 198.619C184.139 202.055 185.748 205.271 188.431 205.831C191.113 206.368 193.844 204.028 194.551 200.617C195.258 197.181 193.648 193.965 190.966 193.405C188.284 192.844 185.529 195.183 184.846 198.619Z" fill="#527F85"/>
</svg>
