<svg width="248" height="257" viewBox="0 0 248 257" fill="none" xmlns="http://www.w3.org/2000/svg">
<path opacity="0.32" d="M12.4709 153H150.044C151.823 153 153.262 151.561 153.262 149.782V24.3429C153.262 22.5638 151.823 21.1255 150.044 21.1255H12.4519C10.6727 21.1255 9.23409 22.5638 9.23409 24.3429V149.763C9.25301 151.561 10.6916 153 12.4709 153Z" fill="url(#paint0_linear_189_24460)"/>
<path d="M26.4023 67.2285L26.5348 66.4714L45.0848 69.4995L51.1041 82.3311L71.1116 83.6938L77.5852 93.2512L92.8795 92.8538L92.8984 93.6298L77.1877 94.0272L70.6763 84.4319L50.593 83.0692L44.5548 70.1998L26.4023 67.2285Z" fill="#8DADB0"/>
<path d="M50.8392 45.7667H27.3109C27.027 45.7667 26.7809 45.5396 26.7809 45.2367V41.6976C26.7809 41.4138 27.0081 41.1677 27.3109 41.1677H50.8392C51.1231 41.1677 51.3691 41.3948 51.3691 41.6976V45.2367C51.3691 45.5206 51.1231 45.7667 50.8392 45.7667Z" fill="#5D8B8E"/>
<path d="M50.8392 53.7343H27.3109C27.027 53.7343 26.7809 53.5072 26.7809 53.2044V49.6842C26.7809 49.4003 27.0081 49.1543 27.3109 49.1543H50.8392C51.1231 49.1543 51.3691 49.3814 51.3691 49.6842V53.2044C51.3691 53.5072 51.1231 53.7343 50.8392 53.7343Z" fill="white"/>
<path d="M50.8392 61.7021H27.3109C27.027 61.7021 26.7809 61.475 26.7809 61.1722V57.652C26.7809 57.3681 27.0081 57.1221 27.3109 57.1221H50.8392C51.1231 57.1221 51.3691 57.3492 51.3691 57.652V61.1722C51.3691 61.475 51.1231 61.7021 50.8392 61.7021Z" fill="white"/>
<path d="M65.4713 52.1637H140.258C140.731 52.1637 141.129 51.7662 141.129 51.2931V42.0573C141.129 41.5842 140.731 41.1868 140.258 41.1868H65.4713C64.9981 41.1868 64.6006 41.5842 64.6006 42.0573V51.2931C64.6195 51.7662 64.9981 52.1637 65.4713 52.1637Z" fill="#5D8B8E"/>
<path d="M65.4713 67.9097H140.258C140.731 67.9097 141.129 67.5123 141.129 67.0392V57.8034C141.129 57.3303 140.731 56.9329 140.258 56.9329H65.4713C64.9981 56.9329 64.6006 57.3303 64.6006 57.8034V67.0392C64.6195 67.5123 64.9981 67.9097 65.4713 67.9097Z" fill="white"/>
<path d="M21.9919 113.293C27.0458 106.386 35.8476 103.831 43.5516 106.386C45.4255 107.01 47.2237 107.919 48.8894 109.149C53.9623 112.858 56.688 118.574 56.7637 124.403C56.8205 128.434 55.6091 132.541 53.0537 136.042C52.8076 136.383 52.5237 136.723 52.2587 137.064C51.0094 138.54 49.5898 139.789 48.0376 140.811C41.5262 145.051 32.8001 145.07 26.1562 140.206C17.5626 133.903 15.7076 121.867 21.9919 113.293ZM28.9955 136.307C33.9737 139.96 40.523 139.941 45.4066 136.761C46.5801 136.004 47.6401 135.058 48.5676 133.96C48.7759 133.714 48.9651 133.468 49.1733 133.203C51.1041 130.573 52.0127 127.507 51.9559 124.479C51.8991 120.107 49.8548 115.811 46.0501 113.028C44.8008 112.101 43.438 111.42 42.0373 110.966C36.2451 109.054 29.658 110.966 25.8723 116.151C21.159 122.567 22.5598 131.595 28.9955 136.307Z" fill="white"/>
<path d="M125.607 145.732H153.262V147.871H125.607V145.732Z" fill="#B8CCCE"/>
<path d="M132.554 150.274H153.262V152.413H132.554V150.274Z" fill="#B8CCCE"/>
<path d="M47.0166 124.649C46.9978 124.63 46.9978 124.63 47.0166 124.649C47.0543 124.668 47.0543 124.668 47.0166 124.649Z" fill="#205F64"/>
<path d="M97.1576 145.675H112.414V147.814H97.1576V145.675Z" fill="#B8CCCE"/>
<path d="M89.7755 150.198H112.414V152.337H89.7755V150.198Z" fill="#B8CCCE"/>
<path opacity="0.18" d="M46.9965 112.404H71.793V116.34H46.9965V112.404Z" fill="url(#paint1_linear_189_24460)"/>
<path opacity="0.18" d="M41.7533 105.042H71.793V108.978H41.7533V105.042Z" fill="url(#paint2_linear_189_24460)"/>
<path d="M49.9315 169.597H164.355L167.194 166.758H174.273V166.134H166.929L164.09 168.973H49.9315V169.597Z" fill="url(#paint3_linear_189_24460)"/>
<path opacity="0.18" d="M159.188 10.6784H142.436V7.63135H159.188V10.6784Z" fill="url(#paint4_linear_189_24460)"/>
<path opacity="0.18" d="M159.188 6.79861H142.436V6.21191H159.188V6.79861Z" fill="url(#paint5_linear_189_24460)"/>
<path opacity="0.18" d="M242.833 115.035H236.151L238.195 110.795H244.877L242.833 115.035Z" fill="url(#paint6_linear_189_24460)"/>
<path opacity="0.18" d="M245.956 115.035H244.366L246.41 110.795H248L245.956 115.035Z" fill="url(#paint7_linear_189_24460)"/>
<path d="M160.096 231.995H139.861V170.525H160.096V231.995Z" fill="url(#paint8_linear_189_24460)"/>
<path d="M235.109 200.124H64.8273C63.578 200.124 62.5748 199.121 62.5748 197.872V79.0947C62.5748 77.8456 63.578 76.8425 64.8273 76.8425H235.109C236.358 76.8425 237.361 77.8456 237.361 79.0947V197.872C237.361 199.121 236.358 200.124 235.109 200.124Z" fill="#ACB2B1"/>
<path d="M69.068 82.8799H231.191V177.716H69.068V82.8799Z" fill="url(#paint9_linear_189_24460)"/>
<path d="M104.446 229.667H195.512V234.304H104.446V229.667Z" fill="#ACB2B1"/>
<path d="M224.169 167.591C224.15 167.61 224.15 167.61 224.169 167.591V167.591Z" fill="#205F64"/>
<path d="M152.449 0.0422309C152.449 0.0422309 179.819 -2.22885 179.062 26.5382C178.305 55.3241 173.743 59.6391 179.081 79.9842C184.4 100.329 152.411 68.4396 152.411 68.4396L152.449 0.0422309Z" fill="#00434C"/>
<path d="M129.43 77.8078C129.43 77.8078 90.6647 101.995 87.3901 99.4209C82.8093 95.825 70.3543 65.1465 70.3543 65.1465L60.6061 69.7833C60.6061 69.7833 72.2472 122.832 87.9201 118.914C103.593 114.997 139.576 92.778 139.576 92.778L129.43 77.8078Z" fill="#D6D9D8"/>
<path d="M57.9764 67.4366C57.9764 67.4366 62.595 73.455 65.4532 74.0795C68.3114 74.723 71.2832 67.1149 71.2832 67.1149L69.7311 61.8157L57.9764 67.4366Z" fill="#D6D9D8"/>
<path d="M69.3891 65.4114C69.3891 65.4114 71.6037 58.4846 71.9066 57.4058C72.2094 56.346 71.1305 53.2043 69.1619 50.214C67.2501 47.3184 64.8462 44.12 64.0134 43.2683C63.578 42.833 63.3319 42.341 61.8934 43.0034C60.4548 43.6468 59.5841 44.9906 59.5841 44.9906C59.5841 44.9906 57.4262 44.9527 56.4987 46.6939C56.4987 46.6939 54.4733 46.7506 53.7351 48.9082C53.7351 48.9082 51.7476 49.0217 51.3501 50.6304C51.3501 50.6304 52.3155 53.5828 52.3344 54.7941C52.3723 55.9864 54.7762 62.0047 57.9751 67.4364C57.9751 67.4364 62.7262 71.5243 69.3891 65.4114Z" fill="#D6D9D8"/>
<path d="M64.3164 56.4218C64.3164 56.4218 61.9314 59.1849 61.6475 60.3016C61.3636 61.4182 54.3978 57.2734 54.3978 57.2734C54.3978 57.2734 60.8714 53.6019 64.3164 56.4218Z" fill="#C4C8C8"/>
<path d="M64.3917 43.9876C64.3917 43.9876 68.2531 52.1446 66.9471 52.8638C65.6599 53.564 64.7514 53.053 64.7514 53.053L64.5431 57.141C64.5431 57.141 62.8774 59.7716 60.4924 57.1977C60.4924 57.1977 59.1864 59.8284 57.1799 57.0463C57.1799 57.0463 55.5521 58.3901 54.3974 57.2734C53.2428 56.1568 51.331 50.6305 51.331 50.6305C51.331 50.6305 51.331 49.0786 53.5835 48.7001C53.5835 48.7001 54.1892 46.7129 56.3849 46.5994C56.3849 46.5994 57.8046 44.3661 60.1517 44.2715C60.1517 44.2715 61.4199 42.5304 64.0131 43.2874C64.0131 43.2874 64.2403 43.628 64.3917 43.9876Z" fill="#CDD1D0"/>
<path d="M71.8496 57.1409C71.8496 57.1409 67.1742 53.034 63.6346 51.9174C62.8396 51.6714 62.0067 51.5578 61.4767 52.2202C60.9467 52.8637 61.1928 54.4724 63.1235 56.346C65.0542 58.2386 66.701 61.5506 66.701 61.5506C66.701 61.5506 69.2564 62.8943 71.8496 57.1409Z" fill="#D6D9D8"/>
<path d="M60.1722 44.2715C60.1722 44.2715 64.8665 52.9395 64.8097 53.9425C64.7529 54.9456 67.9329 53.2423 67.914 52.3906C67.895 51.539 64.4501 43.9876 64.0147 43.2874C63.5793 42.5871 61.024 41.8869 60.1722 44.2715Z" fill="#D6D9D8"/>
<path d="M64.9979 44.9149C64.9979 44.9149 57.3886 30.7206 56.2718 31.2506C54.644 32.0076 55.0793 35.9252 61.4961 46.5236C67.7236 56.8191 64.9979 44.9149 64.9979 44.9149Z" fill="#D6D9D8"/>
<path d="M127.368 107.218L111.714 86.4569C111.714 86.4569 139.691 64.787 148.322 78.5649C148.322 78.5649 148.947 101.257 127.368 107.218Z" fill="#008597"/>
<path d="M117.961 106.48C118.396 113.445 121.955 119.217 122.561 121.734C123.147 124.251 122.561 130.024 123.299 135.815C124.037 141.587 126.271 169.143 125.514 176.997C125.495 177.243 125.514 177.489 125.608 177.716H182.905C180.785 173.78 174.33 161.365 174.122 155.668C174.046 153.321 172.646 146.035 176.488 140.698C178.532 137.878 182.299 128.926 186.066 122.378C187.524 119.842 189.057 117.306 190.117 115.413C190.817 114.183 191.347 112.839 191.726 111.798C192.085 110.757 192.294 110.038 192.294 110.038C192.294 110.038 193.675 92.797 191.48 82.88C190.779 79.6815 189.681 77.2401 188.054 76.4074C181.391 73.0008 177.832 72.4141 171.302 72.1113C164.771 71.8084 160.494 70.4836 160.494 70.4836L145.218 72.1113C145.218 72.1113 135.432 75.5179 131.59 75.8207C129.224 76.0099 126.46 79.2084 124.794 82.8989C123.753 85.2078 123.129 87.706 123.299 89.75C123.734 95.0681 117.526 99.5156 117.961 106.48Z" fill="#008597"/>
<path d="M177.358 82.8799C178.343 90.1474 182.923 99.1938 184.191 100.556C186.274 102.79 196.344 134.036 197.971 138.483C199.599 142.931 200.697 155.536 203.536 162.746C204.634 165.547 206.433 171.282 208.325 177.716H223.393C220.856 164.412 213.947 144.294 212.717 141.133C211.373 137.726 207.89 114.183 206.565 110.19C205.221 106.196 204.634 94.9355 199.164 84.2615C198.918 83.7883 198.653 83.3152 198.388 82.8799C192.615 73.5874 181.56 73.6252 181.56 73.6252C177.548 74.4012 176.734 78.281 177.358 82.8799Z" fill="#D6D9D8"/>
<path d="M185.535 116.851L210.236 109.073C210.236 109.073 202.665 72.6409 181.56 73.6251C164.637 74.4199 185.535 116.851 185.535 116.851Z" fill="#008597"/>
<path d="M155.135 2.95687C148.359 1.84026 132.838 3.54357 128.427 21.3526C128.427 21.3526 128.408 26.2922 129.165 30.2477C129.904 34.2031 125.19 45.1043 126.023 45.7667C126.856 46.4291 130.472 47.5647 130.472 47.5647C130.472 47.5647 133.046 60.3584 137.38 60.7369C141.715 61.1344 158.505 59.6203 167.969 45.1611C177.433 30.7019 182.525 7.44225 155.135 2.95687Z" fill="#D6D9D8"/>
<path d="M143.874 55.7784C143.874 55.7784 144.214 57.5763 144.517 60.207C144.669 61.5507 144.839 63.1215 144.934 64.7681C145.199 69.3481 145.066 74.6662 143.495 78.035C143.495 78.035 151.994 83.2963 161.099 70.635C161.099 70.635 160.209 54.8321 165.433 46.4859C170.677 38.1397 143.874 55.7784 143.874 55.7784Z" fill="#D6D9D8"/>
<path d="M128.428 21.3524C128.428 21.3524 138.631 30.1717 149.458 32.9538C160.266 35.7359 166.001 47.8672 166.001 47.8672C166.001 47.8672 185.119 28.7901 173.573 10.2808C162.026 -8.22845 128.447 0.0231391 128.428 21.3524Z" fill="#00434C"/>
<path d="M144.517 60.2068C144.669 61.5505 144.839 63.1214 144.934 64.7679C154.474 60.15 159.717 53.791 159.717 53.791C154.114 57.8222 144.517 60.2068 144.517 60.2068Z" fill="#B5BABA"/>
<path d="M151.445 33.5786C151.445 33.5786 162.5 63.3108 161.175 70.4647C161.175 70.4647 167.023 69.4616 177.453 72.6411C177.453 72.6601 172.418 19.6114 151.445 33.5786Z" fill="#00434C"/>
<path d="M164.865 71.4298C164.865 71.4298 161.231 93.7243 147.735 91.2071C134.258 88.69 144.479 72.3383 144.479 72.3383C144.479 72.3383 149.76 67.6258 164.865 71.4298Z" fill="#D6D9D8"/>
<path d="M0.0165176 222.343C0.338303 224.576 13.7208 233.945 16.3519 235.799C18.4719 237.294 20.308 237.995 23.5069 239.187C30.7755 241.098 76.3366 254.687 76.3366 254.687C76.4501 254.233 76.5259 253.816 76.7909 253.305C78.4944 253.987 80.2359 254.422 81.3527 254.763C83.0562 255.293 96.5145 255.709 99.278 256.239C102.042 256.769 107.55 257.621 109.783 255.501C112.017 253.381 108.402 248.82 105.335 247.647C102.269 246.473 91.0252 246.17 88.9998 245.943C86.9934 245.735 84.3434 244.997 83.0562 245.413C82.6587 245.546 80.8794 245.016 78.6269 244.259C78.6837 243.426 78.7026 242.915 78.7026 242.915L66.7398 239.471L68.9544 218.293C68.9544 218.293 63.7491 198.686 42.9465 213.637C42.9465 213.637 38.3091 215 36.7191 215.435C36.6055 215.473 36.4351 215.473 36.189 215.454C33.009 215.208 19.3804 211.101 14.459 211.101C9.15901 211.101 7.45544 210.78 5.54366 211.745C3.63187 212.691 -0.286339 220.11 0.0165176 222.343Z" fill="#1B5B61"/>
<path d="M21.331 255.539C23.5646 257.659 29.0728 256.807 31.8364 256.277C34.6 255.747 48.0582 255.331 49.7618 254.801C51.4653 254.271 54.6454 253.533 56.86 252.038C57.0304 251.924 57.4468 251.735 58.0525 251.508L61.4218 253.93L108.232 239.036C111.034 238.26 113.267 237.105 114.744 235.799C117.185 233.68 130.757 224.558 131.079 222.343C131.401 220.11 127.483 212.691 125.571 211.745C123.659 210.799 121.974 211.101 116.655 211.101C111.355 211.101 95.9854 215.871 94.3954 215.454C93.6761 215.265 92.1807 214.508 90.7611 213.732C89.0575 212.805 87.4675 211.858 87.4675 211.858C64.6964 201.695 62.16 218.331 62.16 218.331L63.5039 238.865C63.5039 238.865 61.6111 239.812 59.1314 240.985L47.85 244.183L49.3264 245.243C48.6829 245.451 48.2286 245.546 48.0582 245.489C46.79 245.073 44.14 245.811 42.1146 246.019C40.1082 246.227 28.8646 246.549 25.7793 247.723C22.7128 248.858 19.0975 253.4 21.331 255.539Z" fill="#1B5B61"/>
<path d="M90.7602 213.713C89.1892 213.826 78.5702 219.977 76.0527 221.435C79.8763 219.428 94.3945 215.435 94.3945 215.435C93.6752 215.265 92.1799 214.489 90.7602 213.713Z" fill="#1B5B61"/>
<path d="M36.1908 215.473C36.1908 215.473 54.4758 219.902 57.8262 221.756C57.6747 221.643 48.1915 214.451 43.2133 213.486C43.2133 213.486 38.3297 215.038 36.7397 215.454C36.6072 215.473 36.4179 215.492 36.1908 215.473Z" fill="#1B5B61"/>
<path d="M21.3319 255.539C23.5655 257.658 29.0737 256.807 31.8372 256.277C34.6008 255.747 48.059 255.33 49.7626 254.801C50.2548 254.649 50.8605 254.479 51.5419 254.271C53.2076 253.779 55.2898 253.097 56.8798 252.037C57.0501 251.924 57.4666 251.735 58.0723 251.507L49.5923 245.394L49.3462 245.224C48.7026 245.432 48.2483 245.527 48.078 245.47C46.8098 245.054 44.1598 245.792 42.1344 246C40.128 246.208 28.8844 246.53 25.799 247.703C22.7137 248.858 19.0983 253.4 21.3319 255.539Z" fill="#D6D9D8"/>
<path d="M21.331 255.539C23.5646 257.658 29.0728 256.807 31.8364 256.277C34.5999 255.747 48.0582 255.33 49.7617 254.801C50.2539 254.649 50.8596 254.479 51.541 254.271C51.541 254.271 47.831 250.599 49.5914 245.394L49.3453 245.224C48.7017 245.432 48.2475 245.527 48.0771 245.47C46.8089 245.054 44.1589 245.792 42.1335 246C40.1271 246.208 28.8835 246.53 25.7981 247.703C22.7128 248.858 19.0974 253.4 21.331 255.539Z" fill="#C5D5D7"/>
<path d="M86.1047 218.406C86.0858 218.463 86.0858 218.501 86.1236 218.539C86.3314 218.69 86.2936 218.614 86.1047 218.406Z" fill="#0D8B9C"/>
<path d="M24.8146 193.614C24.985 193.254 34.6575 178.057 37.2696 171.13C39.8818 164.204 46.185 161.024 49.1379 160.04C50.1979 159.68 52.0907 159.075 54.0782 158.431C57.6557 157.277 61.5739 156.009 61.5739 156.009H73.9532C73.9532 156.009 78.2311 157.447 82.7929 159.037C86.995 160.513 91.4054 162.122 92.9007 162.86C96.005 164.412 101.248 175.521 102.308 176.789C103.368 178.057 111.526 193.179 112.7 198.989C113.609 203.493 86.8247 216.722 86.1054 218.407C85.2536 217.46 81.3543 213.732 81.3543 213.732C81.3543 213.732 82.6036 212.937 84.364 211.783C77.19 212.104 59.6622 211.499 57.1447 211.612C56.6336 211.631 56.0846 211.631 55.5168 211.575C54.7407 212.142 49.7246 216.571 49.7246 216.571C49.7246 216.571 37.3453 211.442 31.6668 205.689C23.5843 197.532 23.925 195.412 24.8146 193.614ZM95.1722 203.664C97.8222 200.484 101.475 198.554 100.548 197.153C99.6204 195.734 91.8597 182.315 91.8597 182.315C91.8597 182.315 87.8279 191.154 86.6922 195.753C85.5565 200.352 85.6511 202.452 86.1243 203.872C86.5597 205.159 86.9004 206.029 87.279 209.833C90.459 207.657 93.9418 205.121 95.1722 203.664ZM40.4686 202.15C41.5096 203.323 45.6171 205.954 49.3271 208.092C49.6111 205.537 50.0275 201.487 50.0843 200.049C50.16 197.853 49.2325 191.57 48.0968 189.167C46.9611 186.763 46.185 180.196 46.185 180.196C46.185 180.196 36.8153 192.914 35.3389 194.258C33.8436 195.582 36.9478 198.156 40.4686 202.15Z" fill="#008597"/>
<path d="M66.3058 122.018C66.3058 122.018 56.6333 123.551 58.1098 138.673C59.5862 153.813 68.123 152.564 68.6908 152.545C69.2587 152.526 77.2655 152.829 77.8901 134.339C77.8901 134.339 78.1551 120.675 66.3058 122.018Z" fill="#D6D9D8"/>
<path d="M57.9587 134.396C57.9587 134.396 56.8987 133.26 56.5202 134.415C56.1227 135.569 57.9587 140.66 58.0345 140.906C58.0345 140.906 58.2237 141.341 58.4887 141.114C58.7159 140.849 57.9587 134.396 57.9587 134.396Z" fill="#D6D9D8"/>
<path d="M77.6241 134.206C77.6241 134.206 78.6652 133.052 79.0816 134.187C79.4981 135.323 77.7756 140.471 77.6999 140.717C77.6999 140.717 77.5106 141.171 77.2645 140.925C76.9806 140.679 77.6241 134.206 77.6241 134.206Z" fill="#D6D9D8"/>
<path d="M57.9579 136.723L59.3396 138.578C59.3396 138.578 59.3018 134.528 59.5289 133.885C59.7561 133.241 60.0968 131.311 60.2861 130.838C60.4754 130.383 68.5957 128.112 75.7696 131.5C75.7696 131.5 75.4479 134.414 76.1482 134.679C76.8296 134.944 76.5079 139.43 76.5079 139.43L77.6436 138.143C77.6436 138.143 79.385 126.504 78.9497 125.292C78.5143 124.081 77.1514 116.776 62.425 121.11C62.425 121.11 57.8443 120.145 56.9168 123.305C55.9704 126.466 57.9579 136.723 57.9579 136.723Z" fill="#00434C"/>
<path d="M80.5389 233.49C80.5389 233.49 95.341 224.614 101.815 223.214C107.929 221.889 110.162 219.618 110.162 219.618C110.162 219.618 100.433 219.618 93.9782 224.217C89.5867 227.34 80.5389 233.49 80.5389 233.49Z" fill="#02494F"/>
<path d="M67.3848 239.679C67.3848 239.679 41.623 226.147 31.0987 223.214C25.0794 221.529 22.7512 219.618 22.7512 219.618C22.7512 219.618 38.6701 221.17 48.3615 226.999C52.999 229.781 67.3848 239.679 67.3848 239.679Z" fill="#02494F"/>
<path d="M76.7909 253.324C78.4944 254.006 80.2359 254.441 81.3526 254.782C83.0562 255.311 96.5144 255.728 99.278 256.258C102.042 256.788 107.55 257.639 109.783 255.52C112.017 253.4 108.402 248.839 105.335 247.666C102.269 246.492 91.0252 246.189 88.9998 245.962C86.9934 245.754 84.3434 245.016 83.0562 245.432C82.6587 245.565 80.8794 245.035 78.6269 244.278C78.5702 245.64 76.7909 253.324 76.7909 253.324Z" fill="#D6D9D8"/>
<path d="M67.3848 252.038L42.0583 244.543L47.0744 243.01C47.0744 243.01 67.3091 250.353 67.3848 252.038Z" fill="#1B5B61"/>
<path d="M67.3848 252.037L55.5355 248.423L63.7505 253.192L67.3848 252.037Z" fill="#02494F"/>
<path d="M75.5227 221.756C75.5417 221.737 75.7309 221.624 76.0527 221.435C75.8445 221.548 75.6552 221.662 75.5227 221.756Z" fill="#14525A"/>
<path d="M81.3527 254.782C83.0562 255.312 96.5145 255.728 99.278 256.258C102.042 256.788 107.55 257.64 109.783 255.52C112.017 253.4 108.402 248.839 105.335 247.666C102.269 246.492 91.0252 246.19 88.9998 245.962C86.9934 245.754 84.3434 245.016 83.0562 245.433C83.0562 245.452 86.4634 250.656 81.3527 254.782Z" fill="#C5D5D7"/>
<path d="M89.7394 219.618L93.6387 197.418L43.194 196.245L46.4497 218.085C46.4497 218.085 62.5579 223.971 68.0283 227.415C67.9904 227.434 81.8083 221.756 89.7394 219.618Z" fill="#3C7377"/>
<path d="M60.3988 155.725C60.3988 155.706 61.6481 155.119 61.6481 155.119C62.2538 153.776 61.7995 148.079 61.7995 148.079C61.7995 148.079 74.122 144.937 73.7624 147.341C73.4027 149.744 74.8224 155.309 74.8224 155.309L81.1445 158.45C81.1445 158.45 74.406 176.524 66.6642 174.196C58.9224 171.869 56.0074 157.788 56.0074 157.788L60.3988 155.725Z" fill="#D6D9D8"/>
<path d="M73.6309 149.971C73.6309 149.971 71.6055 152.583 68.1605 152.583C65.8891 152.583 64.2801 151.959 62.0276 149.763C62.0276 149.763 62.993 153.927 68.1605 154.324C68.1416 154.305 71.9273 154.741 73.6309 149.971Z" fill="#B5BABA"/>
<path d="M148.228 33.2758C148.247 37.0798 150.726 40.1458 153.755 40.1268C156.783 40.1079 159.206 37.0041 159.187 33.2001C159.168 29.396 156.689 26.33 153.66 26.349C150.632 26.3679 148.209 29.4717 148.228 33.2758Z" fill="#ACB2B1"/>
<path d="M138.688 51.1038C151.162 45.9371 155.232 34.0328 155.402 33.5218L154.058 33.0676C154.021 33.1812 150.008 44.8583 138.158 49.779L138.688 51.1038Z" fill="#ACB2B1"/>
<path d="M135.98 51.6336C136.245 52.788 137.4 53.5072 138.535 53.2422C139.69 52.9773 140.409 51.8228 140.144 50.6873C139.879 49.5328 138.725 48.8136 137.589 49.0786C136.434 49.3436 135.715 50.498 135.98 51.6336Z" fill="#ACB2B1"/>
<defs>
<linearGradient id="paint0_linear_189_24460" x1="81.2574" y1="112.44" x2="81.2574" y2="334.406" gradientUnits="userSpaceOnUse">
<stop stop-color="#83A6A9"/>
<stop offset="1" stop-color="#799FA2"/>
</linearGradient>
<linearGradient id="paint1_linear_189_24460" x1="71.7983" y1="114.365" x2="46.995" y2="114.365" gradientUnits="userSpaceOnUse">
<stop stop-color="#DEE7E8"/>
<stop offset="1" stop-color="#FAFBFB"/>
</linearGradient>
<linearGradient id="paint2_linear_189_24460" x1="71.7983" y1="107.013" x2="41.7584" y2="107.013" gradientUnits="userSpaceOnUse">
<stop stop-color="#DEE7E8"/>
<stop offset="1" stop-color="#FAFBFB"/>
</linearGradient>
<linearGradient id="paint3_linear_189_24460" x1="174.28" y1="167.863" x2="49.9379" y2="167.863" gradientUnits="userSpaceOnUse">
<stop stop-color="#DEE7E8"/>
<stop offset="0.8171" stop-color="#F5F8F8"/>
<stop offset="1" stop-color="#FAFBFB"/>
</linearGradient>
<linearGradient id="paint4_linear_189_24460" x1="159.184" y1="9.1522" x2="142.434" y2="9.1522" gradientUnits="userSpaceOnUse">
<stop stop-color="#DEE7E8"/>
<stop offset="1" stop-color="#FAFBFB"/>
</linearGradient>
<linearGradient id="paint5_linear_189_24460" x1="159.184" y1="6.5049" x2="142.434" y2="6.5049" gradientUnits="userSpaceOnUse">
<stop stop-color="#DEE7E8"/>
<stop offset="1" stop-color="#FAFBFB"/>
</linearGradient>
<linearGradient id="paint6_linear_189_24460" x1="244.876" y1="112.911" x2="236.155" y2="112.911" gradientUnits="userSpaceOnUse">
<stop stop-color="#DEE7E8"/>
<stop offset="1" stop-color="#FAFBFB"/>
</linearGradient>
<linearGradient id="paint7_linear_189_24460" x1="248" y1="112.911" x2="244.365" y2="112.911" gradientUnits="userSpaceOnUse">
<stop stop-color="#DEE7E8"/>
<stop offset="1" stop-color="#FAFBFB"/>
</linearGradient>
<linearGradient id="paint8_linear_189_24460" x1="149.976" y1="261.047" x2="149.976" y2="233.224" gradientUnits="userSpaceOnUse">
<stop stop-color="#F5F6F6"/>
<stop offset="1" stop-color="#A1B9BD"/>
</linearGradient>
<linearGradient id="paint9_linear_189_24460" x1="231.189" y1="130.299" x2="69.0686" y2="130.299" gradientUnits="userSpaceOnUse">
<stop stop-color="#326C70"/>
<stop offset="0.5193" stop-color="#2E696D"/>
<stop offset="1" stop-color="#236166"/>
</linearGradient>
</defs>
</svg>
