<svg width="302" height="234" viewBox="0 0 302 234" fill="none" xmlns="http://www.w3.org/2000/svg">
<path d="M264.366 135.609H69.9648L103.829 0H298.251L264.366 135.609Z" fill="#DBE5E6"/>
<path d="M260.369 130.075H76.4688L107.827 5.53467H292.991L260.369 130.075Z" fill="white"/>
<path d="M268.137 135.609H264.367L298.252 0H302.001L268.137 135.609Z" fill="#C2D2D4"/>
<mask id="mask0_189_24340" style="mask-type:luminance" maskUnits="userSpaceOnUse" x="94" y="13" width="81" height="81">
<path d="M151.695 93.4672H100.495C96.4561 93.4672 93.4943 89.6738 94.4884 85.756L111.431 17.7233C112.114 14.9664 114.6 13.0178 117.437 13.0178H168.637C172.676 13.0178 175.638 16.8112 174.643 20.729L157.701 88.7617C157.018 91.5187 154.532 93.4672 151.695 93.4672Z" fill="white"/>
</mask>
<g mask="url(#mask0_189_24340)">
<path d="M156.541 93.4672H92.5625L112.591 13.0178H176.57L156.541 93.4672Z" fill="#EDF2F2"/>
</g>
<mask id="mask1_189_24340" style="mask-type:luminance" maskUnits="userSpaceOnUse" x="94" y="13" width="81" height="81">
<path d="M151.695 93.4672H100.495C96.4561 93.4672 93.4943 89.6738 94.4884 85.756L111.431 17.7233C112.114 14.9664 114.6 13.0178 117.437 13.0178H168.637C172.676 13.0178 175.638 16.8112 174.643 20.729L157.701 88.7617C157.018 91.5187 154.532 93.4672 151.695 93.4672Z" fill="white"/>
</mask>
<g mask="url(#mask1_189_24340)">
<path d="M163.231 106.174C163.169 106.381 163.086 106.589 162.962 106.775C161.699 108.807 140.904 108.91 138.522 107.211C137.466 106.444 137.134 95.9132 137.093 84.5122C137.051 70.3958 137.445 54.9526 137.445 54.9526C137.445 54.9526 145.585 58.7253 145.978 63.3893C146.372 68.0327 142.954 95.9961 145.336 97.7166C147.718 99.4164 158.675 99.6444 162.341 100.722C162.361 100.702 163.915 104.039 163.231 106.174Z" fill="#82A3A7"/>
<path d="M142.187 22.8642C140.758 21.3717 138.439 21.2473 136.947 21.1436C137.382 20.7913 138.149 20.7498 138.149 20.7498C137.237 20.501 135.063 21.1436 135.063 21.1436C135.063 21.1436 127.793 16.1479 122.863 25.9113C122.863 25.9113 123.588 25.2273 124.541 24.4603C121.703 30.0779 122.656 39.2401 129.015 41.6861C133.157 43.2408 156.789 38.0585 142.187 22.8642Z" fill="#03454E"/>
<path d="M137.797 57.2743C137.839 57.2951 133.406 58.9119 130.382 57.6682C127.545 56.4866 126.116 52.4238 126.157 52.4238C127.441 52.3408 128.021 50.6618 128.953 43.303L129.492 43.4895L138.709 46.5989C138.709 46.5989 138.108 49.5631 137.735 52.3616C137.424 54.7039 137.279 56.9427 137.797 57.2743Z" fill="#D2D5D5"/>
<path d="M138.708 46.5781C138.708 46.5781 138.108 49.5424 137.735 52.3408C132.453 51.5116 130.278 46.3086 129.471 43.4688L138.708 46.5781Z" fill="#CCD0CF"/>
<path d="M128.642 42.3081C128.642 42.3081 126.426 37.5611 126.26 33.7055C126.136 30.9693 128.787 21.2059 138.584 23.9214C138.584 23.9214 141.442 24.5847 143.927 26.782C145.895 28.5233 148.629 32.0887 144.01 40.3181L142.726 43.1372L128.642 42.3081Z" fill="#03454E"/>
<path d="M140.137 49.4595C140.137 49.4595 127.565 48.0499 128.58 40.2143C129.574 32.3995 128.642 26.9477 136.699 27.5281C144.756 28.1086 145.936 31.2801 146.226 33.9749C146.537 36.6696 143.43 49.6253 140.137 49.4595Z" fill="#D2D5D5"/>
<path d="M140.967 67.1621C140.863 66.25 142.831 65.8147 143.183 66.6646C143.846 68.2607 143.784 70.1678 143.929 71.7017C144.364 76.0963 142.624 81.7968 142.624 81.7968L140.967 67.1621Z" fill="#527F85"/>
<path d="M146.434 29.601C144.798 27.0099 143.265 27.3208 142.354 27.9219C140.179 23.5274 130.838 28.2743 130.838 28.2743C129.264 33.7675 124.811 36.4623 124.811 36.4623C124.811 36.4623 126.902 38.1621 132.35 37.4987C136.637 36.9598 140.407 31.4459 141.815 29.1242C142.478 29.8912 143.845 31.6117 144.135 33.1871C144.508 35.26 144.259 39.3851 145.46 39.4058C145.481 39.3851 148.878 33.498 146.434 29.601Z" fill="#03454E"/>
<path d="M137.963 44.3602C137.963 44.3602 138.066 45.3759 140.552 45.5417C140.552 45.5417 142.644 45.6868 142.727 44.5882C142.727 44.5882 140.821 43.5517 137.963 44.3602Z" fill="white"/>
<path d="M163.231 106.174C163.169 106.381 163.086 106.589 162.962 106.775C161.699 108.807 140.904 108.91 138.522 107.21C137.466 106.444 137.114 93.3635 140.034 82.0662C140.738 88.8238 139.454 102.339 142.996 103.459C147.035 104.702 157.97 104.723 163.231 106.174Z" fill="#00707E"/>
<path d="M143.327 82.4185C135.063 106.278 138.833 110.589 135.891 112.662C135.871 112.662 133.427 113.367 133.406 113.388C130.341 115.419 130.651 112.517 121.517 115.15C117.168 116.393 111.576 118.093 106.791 118.881C104.989 119.171 103.291 119.358 101.82 119.337C99.0036 119.295 96.9945 118.549 96.5596 116.58C95.2962 110.859 106.605 97.5922 105.528 87.3935C105.528 87.3106 105.507 87.2069 105.507 87.124C105.445 86.2327 105.549 85.2377 105.776 84.1598C106.936 78.6873 111.451 71.1212 115.946 64.7367C120.917 57.6888 125.846 52.1127 126.178 52.3822C135.871 59.9897 137.507 54.9111 137.507 54.9111C137.507 54.9111 146.144 74.2928 143.327 82.4185Z" fill="#82A3A7"/>
<path d="M134.256 113.16C131.19 115.191 130.61 112.517 121.476 115.15C117.127 116.393 111.535 118.093 106.75 118.881C104.348 118.985 102.546 119.13 101.779 119.337C98.9626 119.296 96.9535 118.549 96.5186 116.58C95.2552 110.859 106.564 97.5922 105.487 87.3935C105.487 87.3106 105.466 87.207 105.466 87.1241C105.383 86.1291 105.487 85.1341 105.735 84.1598C106.771 80.0347 110.437 75.8889 114.786 69.7117C116.795 72.4894 134.711 71.8882 127.4 95.7473C125.184 103.085 133.924 107.21 134.256 113.16Z" fill="#527F85"/>
<path d="M126.157 52.4029C126.157 52.4029 111.866 50.7446 108.428 57.295C104.99 63.8454 102.628 88.1398 105.425 95.9132C108.221 103.666 128.166 116.269 130.486 116.974C132.785 117.679 134.732 114.217 134.69 113.823C134.649 113.408 114.766 92.5343 115.097 90.6895C115.428 88.8031 126.157 52.4029 126.157 52.4029Z" fill="#82A3A7"/>
</g>
<path d="M164.473 38.0793C162.692 38.0793 161.242 36.6282 161.242 34.8455C161.242 33.0628 162.692 31.6118 164.473 31.6118C166.254 31.6118 167.704 33.0628 167.704 34.8455C167.725 36.6282 166.275 38.0793 164.473 38.0793ZM164.473 32.8556C163.376 32.8556 162.485 33.7469 162.485 34.8455C162.485 35.9442 163.376 36.8355 164.473 36.8355C165.571 36.8355 166.462 35.9442 166.462 34.8455C166.462 33.7469 165.571 32.8556 164.473 32.8556Z" fill="#1F5A61"/>
<path d="M165.862 32.8555C165.696 32.8555 165.53 32.7934 165.427 32.669C165.178 32.4202 165.178 32.0264 165.427 31.7776L175.534 21.6619H255.171C255.523 21.6619 255.793 21.9521 255.793 22.2837C255.793 22.6361 255.503 22.9056 255.171 22.9056H176.052L166.317 32.6483C166.193 32.7934 166.027 32.8555 165.862 32.8555Z" fill="#1F5A61"/>
<path d="M251.96 19.1952H181.581C179.655 19.1952 178.102 17.6405 178.102 15.7127C178.102 13.7849 179.655 12.2302 181.581 12.2302H251.96C253.886 12.2302 255.44 13.7849 255.44 15.7127C255.46 17.6198 253.886 19.1952 251.96 19.1952Z" fill="#D2D5D5"/>
<path d="M222.136 101.966C216.336 101.966 211.635 106.672 211.635 112.476C211.635 118.28 216.336 122.985 222.136 122.985C227.935 122.985 232.637 118.28 232.637 112.476C232.637 106.672 227.956 101.966 222.136 101.966Z" fill="#C2D2D4"/>
<path d="M257.843 106.609H240.424C239.803 106.609 239.285 107.128 239.285 107.749C239.285 108.371 239.803 108.89 240.424 108.89H257.843C258.464 108.89 258.982 108.371 258.982 107.749C258.982 107.128 258.464 106.609 257.843 106.609Z" fill="#C2D2D4"/>
<path d="M257.843 111.336H240.424C239.803 111.336 239.285 111.854 239.285 112.476C239.285 113.098 239.803 113.616 240.424 113.616H257.843C258.464 113.616 258.982 113.098 258.982 112.476C258.982 111.854 258.464 111.336 257.843 111.336Z" fill="#C2D2D4"/>
<path d="M257.843 116.062H240.424C239.803 116.062 239.285 116.58 239.285 117.202C239.285 117.824 239.803 118.342 240.424 118.342H257.843C258.464 118.342 258.982 117.824 258.982 117.202C258.982 116.58 258.464 116.062 257.843 116.062Z" fill="#C2D2D4"/>
<path d="M212.525 112.331H222.156V102.692C216.833 102.692 212.525 107.003 212.525 112.331Z" fill="#99B4B7"/>
<path d="M231.766 112.642H222.135H212.504C212.504 117.969 216.812 122.281 222.135 122.281C227.458 122.26 231.766 117.948 231.766 112.642Z" fill="#D6D9D9"/>
<path d="M220.479 107.376H215.259C214.969 107.376 214.721 107.625 214.721 107.915C214.721 108.205 214.969 108.454 215.259 108.454H220.479C220.769 108.454 221.017 108.205 221.017 107.915C221.017 107.625 220.769 107.376 220.479 107.376Z" fill="#DBE5E6"/>
<path d="M216.44 109.345H215.259C214.969 109.345 214.721 109.594 214.721 109.884C214.721 110.175 214.969 110.423 215.259 110.423H216.44C216.73 110.423 216.978 110.175 216.978 109.884C216.978 109.594 216.75 109.345 216.44 109.345Z" fill="#DBE5E6"/>
<path d="M228.225 114.984H223.005C222.715 114.984 222.467 115.233 222.467 115.523C222.467 115.813 222.715 116.062 223.005 116.062H228.225C228.515 116.062 228.763 115.813 228.763 115.523C228.763 115.233 228.535 114.984 228.225 114.984Z" fill="#CACECD"/>
<path d="M224.207 116.953H223.027C222.737 116.953 222.488 117.202 222.488 117.492C222.488 117.782 222.737 118.031 223.027 118.031H224.207C224.497 118.031 224.746 117.782 224.746 117.492C224.746 117.202 224.497 116.953 224.207 116.953Z" fill="#CACECD"/>
<path d="M162.423 122.985C168.222 122.985 172.924 118.28 172.924 112.476C172.924 106.671 168.222 101.966 162.423 101.966C156.623 101.966 151.922 106.671 151.922 112.476C151.922 118.28 156.623 122.985 162.423 122.985Z" fill="#C2D2D4"/>
<path d="M180.711 108.89H198.13C198.751 108.89 199.269 108.371 199.269 107.749C199.269 107.128 198.751 106.609 198.13 106.609H180.711C180.09 106.609 179.572 107.128 179.572 107.749C179.572 108.371 180.069 108.89 180.711 108.89Z" fill="#C2D2D4"/>
<path d="M198.13 111.336H180.711C180.09 111.336 179.572 111.854 179.572 112.476C179.572 113.098 180.09 113.616 180.711 113.616H198.13C198.751 113.616 199.269 113.098 199.269 112.476C199.269 111.854 198.751 111.336 198.13 111.336Z" fill="#C2D2D4"/>
<path d="M198.13 116.062H180.711C180.09 116.062 179.572 116.58 179.572 117.202C179.572 117.824 180.09 118.342 180.711 118.342H198.13C198.751 118.342 199.269 117.824 199.269 117.202C199.269 116.58 198.751 116.062 198.13 116.062Z" fill="#C2D2D4"/>
<path d="M162.422 112.641L152.791 112.517C152.791 112.559 152.791 112.6 152.791 112.641C152.791 117.969 157.099 122.28 162.422 122.28C164.328 122.28 166.088 121.721 167.579 120.767L162.422 112.641Z" fill="#D6D9D9"/>
<path d="M162.775 115.689H157.556C157.266 115.689 157.018 115.937 157.018 116.228C157.018 116.518 157.266 116.767 157.556 116.767H162.775C163.065 116.767 163.314 116.518 163.314 116.228C163.314 115.917 163.086 115.689 162.775 115.689Z" fill="#CACECD"/>
<path d="M158.758 117.658H157.578C157.288 117.658 157.039 117.907 157.039 118.197C157.039 118.487 157.288 118.736 157.578 118.736H158.758C159.048 118.736 159.297 118.487 159.297 118.197C159.297 117.886 159.048 117.658 158.758 117.658Z" fill="#CACECD"/>
<path d="M102.192 122.985C107.992 122.985 112.693 118.28 112.693 112.476C112.693 106.671 107.992 101.966 102.192 101.966C96.3928 101.966 91.6914 106.671 91.6914 112.476C91.6914 118.28 96.3928 122.985 102.192 122.985Z" fill="#C2D2D4"/>
<path d="M102.192 102.857C96.8686 102.857 92.5605 107.169 92.5605 112.496C92.5605 116.145 94.5903 119.316 97.5728 120.954C99.1055 118.093 102.192 112.496 102.192 112.496L106.748 120.975C109.772 119.358 111.823 116.165 111.823 112.496C111.823 107.169 107.515 102.857 102.192 102.857Z" fill="#99B4B7"/>
<path d="M137.878 106.609H120.459C119.838 106.609 119.32 107.128 119.32 107.749C119.32 108.371 119.838 108.89 120.459 108.89H137.878C138.5 108.89 139.017 108.371 139.017 107.749C139.038 107.128 138.52 106.609 137.878 106.609Z" fill="#C2D2D4"/>
<path d="M137.878 111.336H120.459C119.838 111.336 119.32 111.854 119.32 112.476C119.32 113.098 119.838 113.616 120.459 113.616H137.878C138.5 113.616 139.017 113.098 139.017 112.476C139.017 111.854 138.52 111.336 137.878 111.336Z" fill="#C2D2D4"/>
<path d="M137.878 116.062H120.459C119.838 116.062 119.32 116.58 119.32 117.202C119.32 117.824 119.838 118.342 120.459 118.342H137.878C138.5 118.342 139.017 117.824 139.017 117.202C139.017 116.58 138.52 116.062 137.878 116.062Z" fill="#C2D2D4"/>
<path d="M102.545 107.874H97.3256C97.0357 107.874 96.7871 108.123 96.7871 108.413C96.7871 108.703 97.0357 108.952 97.3256 108.952H102.545C102.835 108.952 103.084 108.703 103.084 108.413C103.084 108.123 102.835 107.874 102.545 107.874Z" fill="#DBE5E6"/>
<path d="M98.5062 109.843H97.3256C97.0357 109.843 96.7871 110.092 96.7871 110.382C96.7871 110.672 97.0357 110.921 97.3256 110.921H98.5062C98.7962 110.921 99.0447 110.672 99.0447 110.382C99.0447 110.092 98.8169 109.843 98.5062 109.843Z" fill="#DBE5E6"/>
<path d="M171.723 93.4672H259.438C261.24 93.4672 262.814 92.2442 263.228 90.4822L277.188 33.5396C277.789 31.0728 275.924 28.689 273.398 28.689H185.952C184.15 28.689 182.597 29.912 182.162 31.6532L167.933 88.5959C167.311 91.0626 169.175 93.4672 171.723 93.4672Z" fill="#DBE5E6"/>
<path d="M266.335 61.6896C266.335 61.6896 250.511 59.6581 238.25 68.8618C225.989 78.0862 209.481 69.6702 202.191 68.8618C189.536 67.4315 178.248 71.7224 174.064 76.4072L170.543 90.5029H259.273L266.335 61.6896Z" fill="#C2D2D4"/>
<path d="M253.162 61.0263H253.846L259.251 39.0742H258.568L253.162 61.0263Z" fill="white"/>
<path d="M223.979 70.4579H224.662L230.109 48.4851H229.426L223.979 70.4579Z" fill="white"/>
<path d="M197.51 65.483H198.193L203.64 43.531H202.957L197.51 65.483Z" fill="white"/>
<path d="M250.117 42.4323H255.357C255.667 42.4323 255.999 42.1836 256.061 41.8519C256.144 41.541 255.937 41.2715 255.626 41.2715H250.386C250.075 41.2715 249.744 41.5202 249.682 41.8519C249.599 42.1836 249.785 42.4323 250.117 42.4323Z" fill="white"/>
<path d="M249.599 44.4846H254.839C255.15 44.4846 255.481 44.2358 255.544 43.9041C255.626 43.5932 255.419 43.3237 255.109 43.3237H249.868C249.558 43.3237 249.226 43.5725 249.164 43.9041C249.102 44.2358 249.289 44.4846 249.599 44.4846Z" fill="white"/>
<path d="M220.914 53.6259H226.154C226.465 53.6259 226.796 53.3772 226.859 53.0455C226.941 52.7346 226.734 52.4651 226.424 52.4651H221.183C220.873 52.4651 220.541 52.7138 220.479 53.0455C220.396 53.3772 220.604 53.6259 220.914 53.6259Z" fill="white"/>
<path d="M220.416 55.6367H225.656C225.967 55.6367 226.298 55.3879 226.36 55.0562C226.443 54.7453 226.236 54.4758 225.926 54.4758H220.685C220.375 54.4758 220.043 54.7246 219.981 55.0562C219.898 55.3879 220.105 55.6367 220.416 55.6367Z" fill="white"/>
<path d="M194.817 45.3552H200.057C200.368 45.3552 200.699 45.1064 200.761 44.7747C200.844 44.4638 200.637 44.1943 200.326 44.1943H195.107C194.796 44.1943 194.465 44.4431 194.402 44.7747C194.32 45.0857 194.506 45.3552 194.817 45.3552Z" fill="white"/>
<path d="M194.32 47.3659H199.56C199.871 47.3659 200.202 47.1172 200.264 46.7855C200.347 46.4746 200.14 46.2051 199.829 46.2051H194.589C194.278 46.2051 193.947 46.4538 193.885 46.7855C193.823 47.0964 194.009 47.3659 194.32 47.3659Z" fill="white"/>
<path d="M28.7064 122.55C46.4772 124.893 38.0267 145.518 65.1179 174.269C84.7113 195.06 127.709 157.085 149.726 178.436C168.864 196.988 142.684 233.015 142.684 233.015H27.2566C-26.9257 193.734 13.8974 120.602 28.7064 122.55Z" fill="#57A1AA"/>
<path d="M163.81 207.021C164.266 207.746 164.949 208.037 165.778 207.995C165.778 207.995 165.778 207.995 165.799 207.995C167.331 207.912 169.361 206.731 171.494 205.259C171.764 205.072 172.012 204.907 172.24 204.761C172.302 204.72 172.364 204.679 172.406 204.658C172.447 204.637 172.489 204.596 172.551 204.575C174.746 203.29 174.912 204.077 179.22 201.859C184.129 199.33 184.957 196.843 184.833 196.014C184.729 195.309 182.327 195.952 179.634 196.615C179.51 196.656 179.365 196.677 179.241 196.719C178.889 196.802 178.516 196.905 178.164 196.988C174.953 197.776 173.793 196.967 169.837 195.371C166.627 194.065 152.895 184.654 152.895 184.654L149.561 191.329C149.561 191.329 161.014 197.092 162.174 199.973C162.795 201.528 162.381 202.917 162.754 204.347C162.775 204.451 162.816 204.554 162.837 204.637C163.085 205.446 163.334 206.275 163.81 207.021Z" fill="#D2D5D5"/>
<path d="M163.81 207.021C164.266 207.746 164.949 208.037 165.778 207.995C165.778 207.995 165.778 207.995 165.799 207.995C167.373 207.809 169.382 206.648 171.474 205.259C171.743 205.072 171.991 204.927 172.219 204.782C172.281 204.741 172.344 204.699 172.385 204.679C172.426 204.658 172.468 204.616 172.53 204.596C174.725 203.31 174.891 204.098 179.199 201.88C184.108 199.351 184.936 196.864 184.812 196.035C184.708 195.33 182.306 195.972 179.613 196.636C179.137 197.278 176.797 200.18 172.841 201.714C169.361 203.082 165.301 203.456 162.754 204.326C162.775 204.43 162.816 204.533 162.837 204.616C163.085 205.446 163.334 206.275 163.81 207.021Z" fill="#17545C"/>
<path d="M152.232 230.3C152.564 232.58 155.815 232.373 159.461 231.689C163.106 231.004 162.195 232 167.352 231.709C172.509 231.419 174.166 229.595 174.352 228.828C174.539 228.165 172.012 227.791 169.319 227.335C168.988 227.273 168.636 227.211 168.305 227.149C165.26 226.589 163.127 224.496 160.413 222.713C157.866 221.034 154.262 214.546 154.262 214.546L147.199 214.732C147.199 214.732 150.596 220.536 151.88 223.045C152.646 224.516 152.501 226.423 152.315 227.874C152.211 228.683 152.129 229.491 152.232 230.3Z" fill="#D2D5D5"/>
<path d="M159.398 231.958C163.064 231.398 162.132 232.352 167.289 232.228C172.447 232.103 174.166 229.471 174.394 228.724C174.601 228.061 173.13 227.874 170.438 227.335L169.381 227.107C169.381 227.107 166.109 229.885 161.842 229.616C158.363 229.408 154.779 228.082 152.377 227.916C152.253 228.704 152.128 229.512 152.232 230.32C152.48 232.621 155.732 232.518 159.398 231.958Z" fill="#17545C"/>
<path d="M138.562 124.934C138.562 124.934 140.24 120.83 142.084 120.664C143.927 120.498 149.788 119.565 150.223 120.415C150.638 121.244 150.223 124.271 148.96 125.369C147.696 126.468 139.909 128.23 139.909 128.23L138.562 124.934Z" fill="#D2D5D5"/>
<path d="M125.597 161.873L160.31 188.199C160.31 188.199 159.855 190.5 158.591 192.448C157.431 194.252 155.257 196.055 155.257 196.055C155.257 196.055 118.824 181.13 113.004 172.175C107.184 163.22 125.597 161.873 125.597 161.873Z" fill="#008597"/>
<path d="M68.7006 164.153C68.7006 164.153 113.003 151.757 122.551 155.426C132.079 159.075 158.114 218.671 158.114 218.671C158.114 218.671 157.41 219.52 155.587 220.08C153.889 220.619 149.85 220.35 149.85 220.35C149.85 220.35 124.747 196.387 121.972 189.65C119.196 182.892 118.285 176.57 115.116 177.026C111.947 177.482 73.8993 190.21 65.9252 180.985C57.9511 171.761 60.768 160.484 60.768 160.484L68.7006 164.153Z" fill="#00707E"/>
<path d="M92.1065 62.8298C90.2217 61.7519 87.9641 61.6483 86.39 61.7312C86.8042 61.3166 87.5913 61.1508 87.5913 61.1508C86.6178 61.0057 84.4224 61.9799 84.4224 61.9799C70.7939 56.7355 68.6606 76.8012 68.9506 81.4652C69.2406 86.1292 69.2613 91.4981 62.4678 95.6853C49.0879 103.915 60.3759 118.28 60.3759 118.28C60.4794 118.342 66.6102 128.727 66.6102 128.727C66.258 124.955 83.6353 105.076 92.7071 99.1263C94.9233 95.8719 95.6896 90.1299 95.7517 89.6739C95.3789 94.2343 94.5919 96.784 93.8877 98.2143C101.572 91.1457 97.098 65.6697 92.1065 62.8298Z" fill="#00434C"/>
<path d="M92.1681 99.3958C92.2096 99.4165 87.7979 101.717 84.4633 100.805C81.3358 99.9555 79.2854 95.8926 79.3268 95.8926C80.6523 95.6231 81.0252 93.799 81.0045 85.9841L81.6051 86.1085L91.6711 88.0985C91.6711 88.0985 91.4432 91.27 91.4432 94.255C91.4432 96.7632 91.5882 99.1263 92.1681 99.3958Z" fill="#D2D5D5"/>
<path d="M91.6714 88.0779C91.6714 88.0779 91.4436 91.2494 91.4436 94.2344C85.81 94.0686 82.8275 88.9278 81.6055 86.0879L91.6714 88.0779Z" fill="#CCD0CF"/>
<path d="M80.5682 84.9892C80.5682 84.9892 77.6064 80.3251 76.9022 76.3244C76.4051 73.4638 77.855 62.9127 88.4595 64.426C88.4595 64.426 91.5455 64.7369 94.4452 66.6854C96.7442 68.2401 100.079 71.5982 96.3507 80.8226L95.3772 83.932L80.5682 84.9892Z" fill="#00434C"/>
<path d="M93.5552 90.9177C93.5552 90.9177 80.2168 91.1458 80.2168 82.8334C80.2168 74.5211 78.477 68.945 86.9896 68.4682C95.5021 67.9707 97.1591 71.1422 97.8426 73.9199C98.5261 76.6769 97.0348 90.6483 93.5552 90.9177Z" fill="#D2D5D5"/>
<path d="M80.9624 70.0021C80.9624 70.0021 90.0756 63.7626 92.9545 68.0743C93.8244 67.328 95.3778 66.7891 97.449 69.2766C100.535 73.0285 97.7804 79.6618 97.7804 79.6618C96.517 79.8069 96.2063 75.4538 95.5435 73.3395C95.0464 71.7433 93.3688 70.1057 92.5817 69.4009C91.4218 72.0335 88.2115 78.3144 83.7999 79.4338C78.2077 80.8848 75.7637 79.3716 75.7637 79.3716C75.7637 79.3716 80.0717 75.9721 80.9624 70.0021Z" fill="#00434C"/>
<path d="M57.0393 167.055C57.7642 169.045 59.9597 169.564 62.9215 169.211C68.5551 168.548 76.9227 164.775 82.9705 162.143C92.1666 158.163 96.3504 161.894 99.2708 159.365C102.191 156.815 95.9362 151.177 101.363 124.955C103.206 116.062 91.5245 96.9912 91.5245 96.9912C91.5245 96.9912 90.7168 102.153 79.3253 95.8925C79.2631 95.8511 74.5408 102.173 70.2949 110.216C65.6347 119.088 61.1609 129.785 62.4658 135.319C64.9719 145.829 54.9474 161.251 57.0393 167.055Z" fill="#80A1A5"/>
<path d="M91.5254 96.9912L98.4017 125.286C98.4017 125.286 99.2509 126.82 100.597 128.997C103.745 134.096 109.586 142.782 113.335 143.652C115.178 144.088 119.093 142.554 123.442 140.356C131.644 136.211 141.358 129.702 141.358 129.702C141.98 125.929 138.707 122.861 138.707 122.861C138.707 122.861 119.051 130.261 117.105 130.386C112.859 130.697 108.53 110.133 104.553 103.293C101.674 98.3593 91.5254 96.9912 91.5254 96.9912Z" fill="#80A1A5"/>
<path d="M90.5938 85.8805C90.5938 85.8805 90.8423 86.9377 93.4727 86.7718C93.4727 86.7718 95.6682 86.6267 95.606 85.4659C95.606 85.4659 93.4727 84.6575 90.5938 85.8805Z" fill="white"/>
<path d="M57.0393 167.055C57.7642 169.045 59.9597 169.564 62.9215 169.211C66.8153 167.511 83.6747 160.982 83.4883 156.546C83.1984 149.995 80.2573 149.788 82.3285 141.683C84.0061 135.195 68.4308 123.11 65.9454 120.477C61.2852 129.349 61.1402 129.764 62.4658 135.278C64.9719 145.829 54.9474 161.251 57.0393 167.055Z" fill="#527F85"/>
<path d="M100.598 128.997C103.746 134.096 109.587 142.782 113.335 143.652C115.179 144.088 119.093 142.554 123.443 140.356C120.274 141.165 117.209 141.144 114.205 140.854C110.974 140.543 110.022 136.563 104.906 130.593C101.592 126.737 100.763 127.712 100.598 128.997Z" fill="#527F85"/>
<path d="M85.0005 141.538C85.0005 141.538 87.8173 139.341 90.4891 139.859C93.1609 140.377 94.4658 142.222 94.3622 143.051C94.2587 143.88 92.8503 146.243 90.7998 146.451C88.77 146.658 82.9707 145.186 82.9707 145.186L85.0005 141.538Z" fill="#D2D5D5"/>
<path d="M79.3261 95.8926C79.3261 95.8926 68.4524 96.5559 64.7035 101.821C59.4013 109.221 46.7049 142.098 52.7113 146.285C59.4841 151.011 85.7675 146.14 85.7675 146.14C85.7675 146.14 86.5752 142.388 85.4568 140.584C84.3384 138.781 66.2362 135.837 65.387 135.008C64.5585 134.179 75.8465 118.695 75.8465 116.186C75.8465 113.657 79.3261 95.8926 79.3261 95.8926Z" fill="#80A1A5"/>
<path d="M87.8379 156.318H127.853L135.082 131.132H95.1078L87.8379 156.318Z" fill="#17545C"/>
<path d="M128.123 155.343H75.3906V156.318H127.854L128.123 155.343Z" fill="#03454E"/>
<path d="M115.137 143.321C115.386 142.429 114.889 141.724 113.998 141.724C113.108 141.724 112.196 142.45 111.927 143.321C111.679 144.212 112.176 144.917 113.066 144.917C113.957 144.917 114.889 144.191 115.137 143.321Z" fill="white"/>
</svg>
