<svg width="277" height="362" viewBox="0 0 277 362" fill="none" xmlns="http://www.w3.org/2000/svg">
<path d="M277 361.401C277 361.523 216.443 361.628 141.766 361.628C67.0895 361.628 6.50586 361.523 6.50586 361.401C6.50586 361.279 67.0546 361.174 141.766 361.174C216.477 361.174 277 361.287 277 361.401Z" fill="#263238"/>
<path d="M217.994 254.64C204.52 245.231 201.468 227.763 202 212.057C202.087 209.44 201.799 206.667 203.047 204.374C204.294 202.08 207.206 200.501 209.552 201.6C211.497 202.516 212.343 204.783 213.433 206.658C214.888 209.156 217.019 211.19 219.581 212.528C221.247 213.4 223.314 213.923 224.962 213.016C227.229 211.769 227.491 208.655 227.474 206.039C227.474 201.173 227.445 196.313 227.386 191.458C227.23 188.851 227.495 186.236 228.171 183.714C228.982 181.237 230.788 178.944 233.256 178.246C235.724 177.548 238.802 178.987 239.36 181.534C239.456 182.612 239.482 183.696 239.439 184.778C239.508 185.868 240.014 187.063 241.035 187.394C242.055 187.725 243.119 186.967 243.904 186.199C246.59 183.583 248.421 180.173 250.122 176.807C251.822 173.441 253.488 169.979 255.93 167.109C258.372 164.24 261.746 161.964 265.523 161.746C269.299 161.528 273.232 163.848 274.174 167.511C275.116 171.173 272.979 174.915 270.685 177.888C267.224 182.303 263.145 186.194 258.572 189.443C257.68 189.931 256.967 190.692 256.54 191.615C255.973 193.359 257.622 195.103 259.34 195.653C261.284 196.298 263.395 196.097 265.444 196.342C267.494 196.586 269.674 197.475 270.45 199.394C271.514 202.063 269.281 204.853 267.092 206.685C262.697 210.347 257.706 213.229 252.337 215.205C250.418 215.902 248.404 216.522 246.851 217.865C245.299 219.208 244.375 221.554 245.308 223.394C246.241 225.234 248.639 225.818 250.654 225.443C252.668 225.068 254.456 223.987 256.374 223.263C259.959 221.911 264.581 222.155 266.839 225.251C267.539 226.318 267.982 227.532 268.133 228.798C268.285 230.065 268.14 231.349 267.712 232.551C266.839 234.941 265.495 237.133 263.761 238.995C258.049 245.82 250.628 251.005 242.255 254.021C233.944 256.899 226.244 257.684 217.985 254.658" fill="#00707E"/>
<path d="M270.336 163.9C270.336 163.9 270.258 163.987 270.083 164.144L269.307 164.833C268.627 165.444 267.624 166.333 266.36 167.511C262.774 170.839 259.445 174.434 256.4 178.263C254.456 180.679 252.441 183.417 250.296 186.391C248.151 189.365 245.935 192.574 243.738 195.984C241.395 199.58 239.249 203.3 237.31 207.129C236.299 209.126 235.409 211.211 234.494 213.339L231.79 219.836C228.227 228.019 225.123 236.396 222.494 244.925C220.376 251.905 218.916 259.066 218.133 266.318C217.626 271.211 217.544 276.14 217.889 281.047C218.029 282.791 218.16 284.126 218.282 285.033C218.334 285.469 218.369 285.817 218.404 286.07V286.428C218.366 286.315 218.34 286.198 218.325 286.079C218.282 285.826 218.229 285.486 218.16 285.05C218.003 284.178 217.837 282.8 217.68 281.056C217.259 276.139 217.288 271.194 217.767 266.283C218.501 259.001 219.929 251.805 222.032 244.795C224.639 236.241 227.734 227.843 231.302 219.644L234.075 213.173C234.991 211.054 235.889 208.952 236.909 206.946C238.861 203.106 241.025 199.376 243.389 195.775C245.621 192.286 247.871 189.13 249.991 186.182C252.11 183.234 254.159 180.478 256.095 178.072C259.171 174.252 262.545 170.683 266.185 167.397C267.476 166.237 268.505 165.365 269.203 164.781L270.014 164.127C270.113 164.04 270.221 163.964 270.336 163.9Z" fill="#263238"/>
<path d="M237.023 206.929C236.9 206.57 236.815 206.198 236.77 205.821C236.631 205.098 236.474 204.077 236.29 202.752C235.915 200.135 235.532 196.551 235.122 192.583C234.712 188.615 234.25 185.022 233.866 182.432C233.665 181.141 233.491 180.104 233.369 179.38C233.274 179.009 233.224 178.629 233.221 178.246C233.371 178.595 233.479 178.961 233.543 179.336C233.735 180.051 233.953 181.08 234.197 182.38C234.695 184.996 235.183 188.554 235.593 192.531C236.003 196.508 236.351 199.996 236.622 202.708C236.753 203.929 236.866 204.967 236.953 205.795C237.021 206.169 237.044 206.55 237.023 206.929Z" fill="#263238"/>
<path d="M270.58 200.667C270.156 200.76 269.724 200.812 269.29 200.824C268.417 200.903 267.179 201.007 265.644 201.182C262.574 201.513 258.354 202.124 253.723 202.996C249.092 203.868 244.932 204.853 241.941 205.612C240.45 205.996 239.246 206.344 238.453 206.58C238.029 206.731 237.59 206.836 237.145 206.894C237.548 206.691 237.968 206.525 238.4 206.397C239.22 206.109 240.406 205.708 241.889 205.281C244.862 204.408 249.022 203.371 253.671 202.481C257.608 201.728 261.581 201.175 265.574 200.824C267.118 200.693 268.365 200.641 269.237 200.624C269.685 200.593 270.135 200.608 270.58 200.667Z" fill="#263238"/>
<path d="M222.459 244.184C222.366 244.058 222.29 243.92 222.232 243.774L221.656 242.562C221.159 241.507 220.488 239.946 219.686 238.036C218.063 234.199 215.997 228.827 213.799 222.862C211.601 216.897 209.578 211.525 208.043 207.644C207.293 205.76 206.674 204.216 206.212 203.065L205.723 201.818C205.656 201.674 205.609 201.522 205.584 201.365C205.677 201.491 205.753 201.629 205.811 201.775L206.386 202.987C206.875 204.042 207.555 205.603 208.357 207.513C209.979 211.35 212.046 216.722 214.244 222.687C216.441 228.652 218.465 234.024 220 237.905C220.75 239.789 221.369 241.332 221.822 242.483C222.023 242.981 222.188 243.356 222.319 243.731C222.387 243.874 222.434 244.027 222.459 244.184Z" fill="#263238"/>
<path d="M267.006 229.821C266.866 229.901 266.717 229.963 266.561 230.004L265.27 230.44L260.5 231.984C256.471 233.292 250.907 235.158 244.803 237.216C238.698 239.274 233.108 241.106 229.053 242.326C227.03 242.946 225.381 243.417 224.239 243.731L222.922 244.071C222.769 244.119 222.611 244.151 222.451 244.167C222.591 244.086 222.74 244.025 222.896 243.983L224.187 243.547L228.957 242.004C232.986 240.696 238.55 238.829 244.654 236.771C250.759 234.713 256.34 232.882 260.396 231.661C262.427 231.042 264.067 230.571 265.218 230.257L266.535 229.917C266.688 229.868 266.846 229.836 267.006 229.821Z" fill="#263238"/>
<path d="M248.832 18.2793L244.341 19.884L242.414 14.0148C238.873 3.19229 227.588 -2.55475 217.219 1.09929C206.85 4.75332 201.33 16.6224 204.87 27.4449L206.798 33.3141L202.289 34.9274C200.57 35.5943 199.174 36.898 198.391 38.5676C197.608 40.2372 197.499 42.1443 198.086 43.8924L210.583 82.081C210.842 82.9464 211.273 83.7508 211.849 84.4464C212.426 85.1421 213.136 85.7148 213.938 86.1305C214.74 86.5462 215.618 86.7964 216.518 86.8663C217.419 86.9362 218.325 86.8243 219.181 86.5373L265.725 69.8893C267.466 69.2236 268.882 67.9083 269.674 66.2201C270.467 64.5318 270.573 62.6022 269.972 60.837L257.466 22.6485C257.2 21.7855 256.762 20.985 256.18 20.2947C255.598 19.6044 254.883 19.0385 254.077 18.6307C253.271 18.223 252.391 17.9817 251.49 17.9213C250.589 17.861 249.685 17.9827 248.832 18.2793ZM213.356 24.3839C212.401 21.5699 212.573 18.4956 213.834 15.8051C215.096 13.1146 217.349 11.0167 220.123 9.95094C221.493 9.48231 222.943 9.29438 224.387 9.39837C225.831 9.50237 227.239 9.89615 228.527 10.5562C229.816 11.2163 230.958 12.1291 231.886 13.2403C232.814 14.3514 233.509 15.6381 233.928 17.0235L235.847 22.8927L215.274 30.2531L213.356 24.3839ZM239.518 58.2731L242.71 68.023C242.769 68.2185 242.75 68.4291 242.657 68.611C242.565 68.7928 242.406 68.9321 242.213 68.9997L237.739 70.5956C237.561 70.645 237.371 70.6236 237.208 70.5358C237.046 70.448 236.924 70.3007 236.867 70.1247L233.649 60.4184C231.875 60.3218 230.172 59.6853 228.77 58.5943C227.367 57.5033 226.331 56.0098 225.801 54.3138C225.042 52.0717 225.18 49.623 226.187 47.4805C227.193 45.338 228.989 43.6679 231.199 42.8198C232.29 42.447 233.445 42.2977 234.595 42.3807C235.745 42.4638 236.866 42.7775 237.893 43.3033C238.919 43.829 239.829 44.5559 240.568 45.4407C241.307 46.3255 241.861 47.3501 242.196 48.4534C242.757 50.1763 242.803 52.0254 242.329 53.7742C241.855 55.523 240.881 57.0956 239.527 58.2993L239.518 58.2731Z" fill="#00707E"/>
<path d="M244.141 19.7795C244.141 19.9016 235.813 23.0323 225.452 26.7561C215.092 30.4799 206.641 33.4712 206.598 33.384C206.554 33.2968 214.926 30.1398 225.295 26.4073C235.664 22.6748 244.097 19.6661 244.141 19.7795Z" fill="#263238"/>
<path d="M254.03 21.384C254.068 21.4597 254.1 21.5385 254.126 21.6195C254.195 21.7939 254.274 22.0207 254.379 22.2997C254.605 22.9363 254.919 23.8171 255.312 24.916L258.661 34.6659C260.056 38.7995 261.722 43.7007 263.57 49.1425C264.442 51.8721 265.472 54.7151 266.431 57.7063C266.944 59.2478 267.166 60.8714 267.085 62.4941C267.011 63.338 266.771 64.1589 266.378 64.9097C265.959 65.658 265.4 66.3184 264.73 66.8545C263.383 67.838 261.887 68.6005 260.3 69.1132L255.809 70.7265L247.306 73.7701L232.908 78.898L223.184 82.3165L220.568 83.1886L219.87 83.4154C219.796 83.4485 219.716 83.4692 219.635 83.4764C219.635 83.4764 219.705 83.4764 219.853 83.3718L220.533 83.1014L223.149 82.116L232.821 78.5578L247.193 73.3254L255.678 70.2556L260.169 68.6335C261.711 68.1417 263.164 67.4024 264.469 66.4446C265.092 65.9471 265.613 65.3342 266.003 64.6394C266.373 63.945 266.595 63.1821 266.658 62.3981C266.738 60.8347 266.525 59.27 266.03 57.7848C265.088 54.8197 264.094 51.9506 263.195 49.221C261.381 43.7704 259.707 38.8519 258.381 34.7182C257.056 30.5845 255.94 27.2619 255.172 24.9247C254.806 23.7823 254.527 22.8927 254.3 22.2474L254.091 21.5497C254.064 21.4969 254.044 21.4413 254.03 21.384Z" fill="#263238"/>
<path d="M229.472 9.35795C229.472 9.35795 229.01 9.13121 228.156 8.78238C226.937 8.3143 225.649 8.05486 224.345 8.01494C222.411 7.94864 220.487 8.31202 218.711 9.07888C216.551 10.0338 214.704 11.5783 213.382 13.5352C212.052 15.4865 211.338 17.7925 211.333 20.1544C211.351 22.0901 211.645 24.0135 212.205 25.8665C212.659 27.4537 213.13 28.7182 213.443 29.599C213.629 30.0464 213.78 30.507 213.897 30.9769C213.649 30.5586 213.442 30.1177 213.278 29.6601C212.92 28.788 212.406 27.5496 211.9 25.9537C211.279 24.0812 210.941 22.1266 210.897 20.1544C210.874 17.7033 211.604 15.3043 212.99 13.2823C214.358 11.254 216.28 9.66165 218.528 8.69516C220.359 7.9241 222.343 7.58396 224.327 7.70099C225.66 7.76891 226.969 8.07921 228.19 8.61668C228.517 8.76734 228.832 8.94225 229.132 9.13993C229.256 9.19443 229.371 9.26799 229.472 9.35795Z" fill="#263238"/>
<path d="M229.873 43.4826C230.012 43.3982 230.158 43.3253 230.309 43.2645C230.745 43.0676 231.197 42.9071 231.66 42.7849C232.395 42.5679 233.154 42.4391 233.919 42.4012C234.96 42.3452 236.002 42.5025 236.98 42.8634C239.213 43.6483 241.262 45.9244 242.274 48.968C242.759 50.6013 242.759 52.3404 242.274 53.9737C241.736 55.7465 240.772 57.3604 239.466 58.6743L239.518 58.4388C240.678 61.6219 241.942 65.0754 243.25 68.6771L243.329 68.8951L243.111 68.9736L241.114 69.6364L236.753 71.0927L236.535 71.1625L236.466 70.9445C235.271 67.3341 233.963 63.9678 232.977 60.6626L233.169 60.8109C231.464 60.6693 229.839 60.0293 228.495 58.9708C227.279 58.0343 226.282 56.8438 225.573 55.4824C224.934 54.2751 224.616 52.9238 224.649 51.5581C224.689 50.1622 225.038 48.7926 225.669 47.5473C226.301 46.3019 227.2 45.2117 228.303 44.3546C228.757 43.9863 229.266 43.6919 229.812 43.4826C229.319 43.7748 228.842 44.0921 228.381 44.4331C227.17 45.4577 226.243 46.7759 225.687 48.2616C225.21 49.3819 224.986 50.5939 225.033 51.8107C225.08 53.0275 225.395 54.2189 225.957 55.2993C226.654 56.609 227.627 57.7516 228.809 58.6481C230.091 59.6543 231.641 60.2609 233.265 60.3923H233.413L233.457 60.5231C234.416 63.7672 235.733 67.1596 236.945 70.7875L236.657 70.648L241.018 69.1916L243.006 68.5201L242.867 68.8166C241.567 65.2149 240.311 61.7527 239.16 58.5696V58.4388L239.265 58.3341C240.533 57.0747 241.478 55.5281 242.021 53.8255C242.483 52.2631 242.483 50.6001 242.021 49.0377C241.07 46.1075 239.108 43.8837 236.98 43.0988C236.038 42.7356 235.033 42.5666 234.024 42.6018C233.27 42.619 232.522 42.7214 231.791 42.907C230.492 43.2297 229.881 43.5262 229.873 43.4826Z" fill="#263238"/>
<path d="M202.917 295.288L115.805 294.887C110.774 294.859 105.96 292.836 102.42 289.261C98.8798 285.687 96.9031 280.854 96.924 275.823L97.8484 57.4445C97.8587 54.9521 98.3601 52.4862 99.3239 50.1877C100.288 47.8893 101.695 45.8033 103.466 44.049C105.236 42.2947 107.335 40.9066 109.642 39.9639C111.949 39.0212 114.42 38.5425 116.912 38.5552L204.016 38.9563C209.047 38.9817 213.861 41.0027 217.403 44.5755C220.945 48.1483 222.924 52.9807 222.905 58.0114L221.981 276.381C221.971 278.874 221.469 281.341 220.506 283.641C219.542 285.94 218.135 288.027 216.365 289.783C214.594 291.539 212.496 292.928 210.188 293.873C207.881 294.817 205.41 295.298 202.917 295.288Z" fill="#C2D2D4"/>
<path d="M203.885 46.465H187.001C186.45 46.4752 185.907 46.5938 185.402 46.8141C184.897 47.0344 184.44 47.352 184.058 47.7488C183.675 48.1457 183.375 48.6139 183.174 49.1268C182.973 49.6397 182.874 50.1873 182.885 50.7382V53.7992C182.895 54.3496 182.797 54.8967 182.595 55.4092C182.394 55.9216 182.094 56.3892 181.711 56.7854C181.329 57.1815 180.872 57.4983 180.367 57.7177C179.862 57.937 179.319 58.0546 178.769 58.0637L145.856 57.9154C144.743 57.8857 143.687 57.4154 142.92 56.6076C142.153 55.7999 141.738 54.7208 141.766 53.6073V50.5463C141.794 49.4343 141.38 48.3565 140.615 47.549C139.85 46.7415 138.797 46.2702 137.685 46.2382H131.746L116.964 46.1684C113.448 46.1475 110.067 47.5206 107.561 49.9871C105.056 52.4535 103.629 55.8124 103.595 59.3282L102.723 272.483C102.715 274.227 103.05 275.956 103.71 277.57C104.37 279.185 105.342 280.654 106.57 281.893C107.797 283.132 109.257 284.117 110.865 284.791C112.474 285.466 114.199 285.818 115.944 285.826L202.873 286.227C204.618 286.235 206.348 285.899 207.964 285.239C209.579 284.578 211.049 283.606 212.289 282.377C213.529 281.149 214.514 279.688 215.19 278.079C215.865 276.469 216.217 274.743 216.225 272.997L217.097 59.8427C217.117 56.317 215.738 52.9273 213.26 50.4187C210.782 47.9101 207.41 46.488 203.885 46.465Z" fill="white"/>
<path d="M192.505 258.113L127.866 257.834C127.194 257.834 126.653 257.101 126.662 256.212L126.732 239.302C126.732 238.43 127.281 237.68 127.953 237.68L192.592 237.976C192.964 238.041 193.297 238.246 193.521 238.55C193.745 238.854 193.843 239.233 193.795 239.607L193.734 256.499C193.734 257.398 193.176 258.122 192.505 258.113Z" fill="#00707E"/>
<path d="M146.975 250.344C146.257 250.344 145.552 250.091 145.197 249.722L145.395 249.332C145.737 249.667 146.346 249.913 146.975 249.913C147.871 249.913 148.261 249.537 148.261 249.065C148.261 247.752 145.313 248.559 145.313 246.787C145.313 246.082 145.86 245.474 147.078 245.474C147.618 245.474 148.179 245.631 148.562 245.898L148.391 246.301C147.981 246.035 147.502 245.905 147.078 245.905C146.202 245.905 145.812 246.295 145.812 246.773C145.812 248.087 148.761 247.293 148.761 249.038C148.761 249.742 148.2 250.344 146.975 250.344ZM149.863 250.303V245.515H150.37V250.303H149.863ZM155.43 245.515H155.93V250.303H155.512L152.434 246.418V250.303H151.928V245.515H152.345L155.43 249.4V245.515ZM160.865 249.523V247.909H161.351V249.735C160.899 250.139 160.256 250.344 159.593 250.344C158.136 250.344 157.068 249.311 157.068 247.909C157.068 246.507 158.136 245.474 159.599 245.474C160.325 245.474 160.954 245.706 161.378 246.165L161.063 246.486C160.66 246.089 160.181 245.925 159.62 245.925C158.437 245.925 157.568 246.767 157.568 247.909C157.568 249.045 158.437 249.893 159.613 249.893C160.071 249.893 160.496 249.79 160.865 249.523ZM166.503 250.344C165.278 250.344 164.533 249.633 164.533 248.258V245.515H165.039V248.237C165.039 249.373 165.572 249.893 166.503 249.893C167.44 249.893 167.974 249.373 167.974 248.237V245.515H168.466V248.258C168.466 249.633 167.727 250.344 166.503 250.344ZM171.784 245.515C173.001 245.515 173.74 246.13 173.74 247.156C173.74 248.176 173.001 248.791 171.784 248.791H170.498V250.303H169.992V245.515H171.784ZM171.77 248.347C172.728 248.347 173.234 247.909 173.234 247.156C173.234 246.39 172.728 245.953 171.77 245.953H170.498V248.347H171.77Z" fill="#E8E8E3"/>
<path d="M140.445 109.124L118.016 109.023L117.997 113.139L140.427 113.241L140.445 109.124Z" fill="#00707E"/>
<path opacity="0.1" d="M140.445 109.124L118.016 109.023L117.997 113.139L140.427 113.241L140.445 109.124Z" fill="black"/>
<path d="M206.196 134.397C206.372 134.379 206.545 134.338 206.711 134.275C206.952 134.181 207.162 134.02 207.316 133.812C207.471 133.604 207.563 133.356 207.583 133.098C207.583 131.711 207.583 129.688 207.583 127.089C207.583 125.79 207.583 124.333 207.583 122.729C207.583 122.336 207.583 121.926 207.583 121.517C207.64 121.119 207.553 120.714 207.339 120.374C207.219 120.211 207.062 120.078 206.882 119.986C206.702 119.894 206.503 119.845 206.301 119.842H204.941H192.339L119.398 119.572C119.211 119.569 119.026 119.611 118.859 119.694C118.692 119.778 118.548 119.9 118.439 120.051C118.228 120.393 118.147 120.798 118.212 121.194C118.212 122.066 118.212 122.938 118.212 123.81C118.212 125.554 118.212 127.298 118.212 129.043C118.212 129.915 118.212 130.787 118.212 131.659C118.176 132.065 118.176 132.474 118.212 132.88C118.258 133.054 118.343 133.215 118.461 133.351C118.579 133.487 118.726 133.595 118.892 133.665C119.064 133.733 119.248 133.766 119.433 133.761H123.872L143.241 133.865L176.031 134.066L198.138 134.24L204.147 134.31H205.708C206.066 134.31 206.24 134.31 206.24 134.31H205.708H204.147H198.138H176.031L143.241 134.205L123.872 134.127H119.433C119.188 134.137 118.945 134.095 118.718 134.005C118.488 133.907 118.284 133.758 118.121 133.569C117.957 133.38 117.839 133.156 117.776 132.915C117.725 132.686 117.708 132.451 117.723 132.217V131.572C117.723 130.7 117.723 129.828 117.723 128.955C117.723 127.211 117.723 125.467 117.723 123.723C117.723 122.851 117.723 121.979 117.723 121.107C117.707 120.874 117.707 120.641 117.723 120.409C117.756 120.152 117.855 119.909 118.011 119.703C118.162 119.492 118.361 119.321 118.592 119.204C118.822 119.087 119.078 119.028 119.337 119.031L192.278 119.432L204.879 119.519H206.24C206.48 119.52 206.716 119.578 206.928 119.688C207.141 119.799 207.323 119.96 207.461 120.156C207.707 120.535 207.806 120.991 207.74 121.438C207.74 121.848 207.74 122.258 207.74 122.65C207.74 124.237 207.74 125.694 207.74 127.011C207.74 129.627 207.679 131.633 207.661 133.028C207.64 133.296 207.543 133.553 207.38 133.768C207.218 133.982 206.998 134.146 206.746 134.24C206.581 134.343 206.39 134.397 206.196 134.397Z" fill="#E0E0E0"/>
<path d="M165.775 123.95H124.752V127.796H165.775V123.95Z" fill="#00707E"/>
<path opacity="0.2" d="M165.775 123.95H124.752V127.796H165.775V123.95Z" fill="white"/>
<path d="M140.291 146.675L117.861 146.573L117.843 150.69L140.272 150.791L140.291 146.675Z" fill="#00707E"/>
<path opacity="0.1" d="M140.291 146.675L117.861 146.573L117.843 150.69L140.272 150.791L140.291 146.675Z" fill="black"/>
<path d="M205.628 171.949C205.804 171.927 205.979 171.895 206.151 171.853C206.395 171.776 206.619 171.647 206.809 171.475C206.998 171.304 207.149 171.094 207.25 170.859C207.388 170.507 207.441 170.128 207.407 169.751C207.407 169.333 207.407 168.879 207.407 168.374C207.407 167.362 207.407 166.211 207.407 164.885V159.348C207.449 158.947 207.36 158.543 207.154 158.196C206.939 157.841 206.601 157.577 206.204 157.455C205.769 157.378 205.327 157.354 204.887 157.385H192.338L119.649 157.115C119.258 157.116 118.881 157.259 118.588 157.517C118.294 157.775 118.104 158.131 118.054 158.519C118.054 159.348 118.054 160.263 118.054 161.135C118.054 162.879 118.054 164.624 118.054 166.368C118.054 167.24 118.054 168.112 118.054 168.984C118.021 169.392 118.039 169.802 118.106 170.205C118.215 170.559 118.439 170.866 118.742 171.077C119.065 171.281 119.443 171.379 119.824 171.356H121.036H123.556L142.856 171.452L175.533 171.653L197.561 171.827L203.553 171.897H197.561H175.533L142.838 171.862L123.539 171.792H119.745C119.274 171.82 118.806 171.695 118.411 171.435C118.014 171.16 117.725 170.756 117.591 170.292C117.513 169.849 117.49 169.398 117.522 168.949C117.522 168.077 117.522 167.205 117.522 166.333C117.522 164.589 117.522 162.845 117.522 161.1C117.522 160.228 117.522 159.356 117.522 158.484C117.585 157.985 117.828 157.527 118.206 157.195C118.583 156.863 119.068 156.679 119.571 156.679L192.259 157.08L204.808 157.176C205.276 157.147 205.745 157.18 206.204 157.272C206.657 157.42 207.039 157.731 207.276 158.144C207.502 158.528 207.6 158.974 207.556 159.417C207.556 159.827 207.556 160.228 207.556 160.629C207.556 162.208 207.556 163.656 207.556 164.99C207.556 166.324 207.556 167.449 207.556 168.478C207.556 168.975 207.556 169.438 207.556 169.865C207.587 170.255 207.524 170.647 207.372 171.007C207.259 171.248 207.095 171.461 206.892 171.633C206.689 171.804 206.451 171.93 206.195 172.001C206.005 172.017 205.813 172 205.628 171.949Z" fill="#E0E0E0"/>
<path d="M140.123 185.857L117.693 185.755L117.675 189.871L140.104 189.973L140.123 185.857Z" fill="#00707E"/>
<path opacity="0.1" d="M140.123 185.857L117.693 185.755L117.675 189.871L140.104 189.973L140.123 185.857Z" fill="black"/>
<path d="M205.454 211.114C205.63 211.093 205.805 211.061 205.977 211.018C206.22 210.941 206.443 210.814 206.633 210.644C206.822 210.474 206.973 210.266 207.076 210.033C207.213 209.681 207.267 209.302 207.233 208.925C207.233 208.498 207.233 208.053 207.233 207.539C207.233 206.536 207.233 205.376 207.233 204.05V198.513C207.275 198.112 207.186 197.708 206.98 197.362C206.76 197.013 206.423 196.753 206.03 196.629C205.596 196.548 205.153 196.522 204.713 196.55H192.163L119.475 196.28C119.084 196.281 118.707 196.424 118.413 196.682C118.12 196.94 117.93 197.296 117.879 197.684C117.879 198.556 117.879 199.428 117.879 200.3C117.879 202.045 117.879 203.789 117.879 205.533C117.879 206.405 117.879 207.277 117.879 208.149C117.847 208.554 117.864 208.961 117.932 209.361C118.036 209.717 118.261 210.026 118.568 210.233C118.888 210.443 119.268 210.541 119.65 210.513H123.443L142.742 210.617L175.419 210.818L197.448 210.992L203.439 211.062H197.448H175.419L142.742 210.966L123.443 210.888H119.65C119.178 210.919 118.708 210.794 118.315 210.53C117.919 210.255 117.629 209.851 117.496 209.388C117.417 208.944 117.394 208.493 117.426 208.045C117.426 207.172 117.426 206.3 117.426 205.428C117.426 203.684 117.426 201.94 117.426 200.196C117.426 199.324 117.426 198.452 117.426 197.536C117.488 197.038 117.729 196.58 118.105 196.247C118.481 195.915 118.965 195.731 119.467 195.731L192.155 196.132L204.704 196.228C205.171 196.199 205.64 196.231 206.099 196.324C206.552 196.472 206.935 196.782 207.172 197.196C207.398 197.58 207.495 198.026 207.451 198.469C207.451 198.879 207.451 199.289 207.451 199.681C207.451 201.26 207.451 202.707 207.451 204.042C207.451 205.376 207.451 206.501 207.451 207.53C207.451 208.027 207.451 208.489 207.451 208.917C207.485 209.307 207.422 209.699 207.268 210.059C207.155 210.3 206.991 210.513 206.788 210.685C206.585 210.856 206.347 210.982 206.091 211.053C205.886 211.123 205.668 211.144 205.454 211.114Z" fill="#E0E0E0"/>
<path d="M164.899 162.589L123.877 162.403L123.86 166.249L164.882 166.435L164.899 162.589Z" fill="#00707E"/>
<path opacity="0.2" d="M164.899 162.589L123.877 162.403L123.86 166.249L164.882 166.435L164.899 162.589Z" fill="white"/>
<path d="M127.586 203.998C127.56 204.349 127.432 204.685 127.218 204.963C127.003 205.242 126.711 205.451 126.379 205.566C126.046 205.68 125.687 205.694 125.347 205.607C125.006 205.519 124.699 205.333 124.463 205.072C124.226 204.811 124.072 204.487 124.019 204.139C123.965 203.792 124.015 203.436 124.162 203.117C124.309 202.797 124.547 202.527 124.845 202.342C125.144 202.156 125.49 202.062 125.842 202.071C126.328 202.098 126.783 202.316 127.11 202.676C127.437 203.037 127.608 203.512 127.586 203.998Z" fill="#00707E"/>
<path d="M133.141 204.025C133.159 204.27 133.125 204.517 133.043 204.75C132.96 204.982 132.831 205.195 132.663 205.375C132.495 205.555 132.292 205.699 132.066 205.797C131.84 205.895 131.596 205.946 131.349 205.946C131.103 205.946 130.859 205.895 130.633 205.797C130.407 205.699 130.204 205.555 130.035 205.375C129.867 205.195 129.738 204.982 129.656 204.75C129.574 204.517 129.54 204.27 129.557 204.025C129.54 203.779 129.574 203.532 129.656 203.3C129.738 203.067 129.867 202.854 130.035 202.674C130.204 202.494 130.407 202.35 130.633 202.252C130.859 202.154 131.103 202.103 131.349 202.103C131.596 202.103 131.84 202.154 132.066 202.252C132.292 202.35 132.495 202.494 132.663 202.674C132.831 202.854 132.96 203.067 133.043 203.3C133.125 203.532 133.159 203.779 133.141 204.025Z" fill="#00707E"/>
<path d="M138.705 204.051C138.68 204.401 138.551 204.737 138.337 205.015C138.122 205.294 137.83 205.504 137.498 205.618C137.165 205.732 136.806 205.747 136.466 205.659C136.125 205.571 135.818 205.385 135.582 205.125C135.346 204.864 135.191 204.539 135.138 204.192C135.085 203.844 135.134 203.488 135.281 203.169C135.428 202.849 135.666 202.58 135.964 202.394C136.263 202.208 136.61 202.114 136.961 202.123C137.446 202.152 137.9 202.371 138.227 202.731C138.553 203.091 138.724 203.565 138.705 204.051Z" fill="#00707E"/>
<path d="M144.26 204.077C144.234 204.427 144.106 204.763 143.892 205.042C143.677 205.32 143.385 205.53 143.052 205.644C142.72 205.758 142.361 205.773 142.02 205.685C141.68 205.597 141.372 205.411 141.136 205.151C140.9 204.89 140.746 204.566 140.693 204.218C140.639 203.87 140.689 203.514 140.836 203.195C140.983 202.875 141.22 202.606 141.519 202.42C141.818 202.234 142.164 202.14 142.516 202.149C143.001 202.179 143.455 202.397 143.781 202.757C144.107 203.117 144.279 203.591 144.26 204.077Z" fill="#00707E"/>
<path d="M149.815 204.094C149.791 204.445 149.665 204.782 149.451 205.062C149.237 205.342 148.946 205.552 148.613 205.668C148.281 205.784 147.921 205.799 147.58 205.712C147.239 205.626 146.931 205.44 146.694 205.18C146.457 204.919 146.302 204.595 146.248 204.247C146.194 203.899 146.243 203.543 146.39 203.223C146.537 202.903 146.774 202.633 147.073 202.446C147.372 202.26 147.719 202.166 148.071 202.175C148.555 202.205 149.008 202.422 149.333 202.78C149.659 203.138 149.832 203.61 149.815 204.094Z" fill="#00707E"/>
<path d="M155.38 204.121C155.356 204.47 155.231 204.805 155.019 205.084C154.807 205.363 154.519 205.574 154.188 205.691C153.858 205.809 153.501 205.827 153.161 205.743C152.821 205.66 152.512 205.479 152.273 205.223C152.034 204.967 151.876 204.646 151.817 204.301C151.758 203.956 151.801 203.601 151.941 203.28C152.081 202.959 152.312 202.686 152.606 202.494C152.899 202.303 153.242 202.201 153.592 202.202C154.083 202.22 154.547 202.432 154.882 202.792C155.217 203.151 155.396 203.629 155.38 204.121Z" fill="#00707E"/>
<path d="M160.934 204.147C160.951 204.393 160.918 204.639 160.836 204.872C160.753 205.104 160.624 205.317 160.456 205.497C160.288 205.677 160.084 205.821 159.858 205.919C159.632 206.018 159.389 206.068 159.142 206.068C158.896 206.068 158.652 206.018 158.426 205.919C158.2 205.821 157.996 205.677 157.828 205.497C157.66 205.317 157.531 205.104 157.449 204.872C157.367 204.639 157.333 204.393 157.35 204.147C157.333 203.901 157.367 203.654 157.449 203.422C157.531 203.189 157.66 202.977 157.828 202.796C157.996 202.616 158.2 202.472 158.426 202.374C158.652 202.276 158.896 202.225 159.142 202.225C159.389 202.225 159.632 202.276 159.858 202.374C160.084 202.472 160.288 202.616 160.456 202.796C160.624 202.977 160.753 203.189 160.836 203.422C160.918 203.654 160.951 203.901 160.934 204.147Z" fill="#00707E"/>
<path d="M166.489 204.173C166.465 204.522 166.34 204.857 166.128 205.136C165.917 205.415 165.628 205.626 165.298 205.744C164.968 205.861 164.61 205.879 164.27 205.796C163.93 205.713 163.621 205.532 163.383 205.275C163.144 205.019 162.985 204.699 162.926 204.353C162.867 204.008 162.91 203.653 163.05 203.332C163.191 203.011 163.422 202.738 163.715 202.546C164.008 202.355 164.351 202.253 164.701 202.254C165.193 202.272 165.657 202.484 165.992 202.844C166.327 203.204 166.506 203.681 166.489 204.173Z" fill="#00707E"/>
<path d="M172.046 204.199C172.022 204.55 171.895 204.887 171.681 205.166C171.468 205.446 171.176 205.657 170.844 205.773C170.511 205.888 170.152 205.904 169.811 205.817C169.469 205.73 169.161 205.545 168.924 205.284C168.687 205.024 168.532 204.699 168.478 204.352C168.424 204.004 168.474 203.647 168.621 203.327C168.767 203.007 169.005 202.737 169.304 202.551C169.603 202.365 169.95 202.271 170.302 202.28C170.785 202.309 171.238 202.526 171.564 202.885C171.89 203.243 172.063 203.715 172.046 204.199Z" fill="#00707E"/>
<g opacity="0.2">
<path d="M127.586 203.998C127.56 204.349 127.432 204.685 127.218 204.963C127.003 205.242 126.711 205.451 126.379 205.566C126.046 205.68 125.687 205.694 125.347 205.607C125.006 205.519 124.699 205.333 124.463 205.072C124.226 204.811 124.072 204.487 124.019 204.139C123.965 203.792 124.015 203.436 124.162 203.117C124.309 202.797 124.547 202.527 124.845 202.342C125.144 202.156 125.49 202.062 125.842 202.071C126.328 202.098 126.783 202.316 127.11 202.676C127.437 203.037 127.608 203.512 127.586 203.998Z" fill="white"/>
<path d="M133.141 204.025C133.159 204.27 133.125 204.517 133.043 204.75C132.96 204.982 132.831 205.195 132.663 205.375C132.495 205.555 132.292 205.699 132.066 205.797C131.84 205.895 131.596 205.946 131.349 205.946C131.103 205.946 130.859 205.895 130.633 205.797C130.407 205.699 130.204 205.555 130.035 205.375C129.867 205.195 129.738 204.982 129.656 204.75C129.574 204.517 129.54 204.27 129.557 204.025C129.54 203.779 129.574 203.532 129.656 203.3C129.738 203.067 129.867 202.854 130.035 202.674C130.204 202.494 130.407 202.35 130.633 202.252C130.859 202.154 131.103 202.103 131.349 202.103C131.596 202.103 131.84 202.154 132.066 202.252C132.292 202.35 132.495 202.494 132.663 202.674C132.831 202.854 132.96 203.067 133.043 203.3C133.125 203.532 133.159 203.779 133.141 204.025Z" fill="white"/>
<path d="M138.705 204.051C138.68 204.401 138.551 204.737 138.337 205.015C138.122 205.294 137.83 205.504 137.498 205.618C137.165 205.732 136.806 205.747 136.466 205.659C136.125 205.571 135.818 205.385 135.582 205.125C135.346 204.864 135.191 204.539 135.138 204.192C135.085 203.844 135.134 203.488 135.281 203.169C135.428 202.849 135.666 202.58 135.964 202.394C136.263 202.208 136.61 202.114 136.961 202.123C137.446 202.152 137.9 202.371 138.227 202.731C138.553 203.091 138.724 203.565 138.705 204.051Z" fill="white"/>
<path d="M144.26 204.077C144.234 204.427 144.106 204.763 143.892 205.042C143.677 205.32 143.385 205.53 143.052 205.644C142.72 205.758 142.361 205.773 142.02 205.685C141.68 205.597 141.372 205.411 141.136 205.151C140.9 204.89 140.746 204.566 140.693 204.218C140.639 203.87 140.689 203.514 140.836 203.195C140.983 202.875 141.22 202.606 141.519 202.42C141.818 202.234 142.164 202.14 142.516 202.149C143.001 202.179 143.455 202.397 143.781 202.757C144.107 203.117 144.279 203.591 144.26 204.077Z" fill="white"/>
<path d="M149.815 204.094C149.791 204.446 149.665 204.782 149.451 205.062C149.237 205.342 148.946 205.553 148.613 205.668C148.281 205.784 147.921 205.799 147.58 205.713C147.239 205.626 146.931 205.441 146.694 205.18C146.457 204.919 146.302 204.595 146.248 204.247C146.194 203.899 146.243 203.543 146.39 203.223C146.537 202.903 146.774 202.633 147.073 202.447C147.372 202.261 147.719 202.166 148.071 202.176C148.555 202.205 149.008 202.422 149.333 202.78C149.659 203.139 149.832 203.61 149.815 204.094Z" fill="white"/>
<path d="M155.38 204.12C155.356 204.47 155.231 204.805 155.019 205.084C154.807 205.363 154.519 205.574 154.188 205.691C153.858 205.808 153.501 205.826 153.161 205.743C152.821 205.66 152.512 205.479 152.273 205.223C152.034 204.967 151.876 204.646 151.817 204.301C151.758 203.955 151.801 203.6 151.941 203.279C152.081 202.958 152.312 202.685 152.606 202.494C152.899 202.302 153.242 202.201 153.592 202.202C154.083 202.22 154.547 202.432 154.882 202.792C155.217 203.151 155.396 203.629 155.38 204.12Z" fill="white"/>
<path d="M160.934 204.147C160.951 204.393 160.918 204.639 160.836 204.872C160.753 205.104 160.624 205.317 160.456 205.497C160.288 205.677 160.084 205.821 159.858 205.919C159.632 206.018 159.389 206.068 159.142 206.068C158.896 206.068 158.652 206.018 158.426 205.919C158.2 205.821 157.996 205.677 157.828 205.497C157.66 205.317 157.531 205.104 157.449 204.872C157.367 204.639 157.333 204.393 157.35 204.147C157.333 203.901 157.367 203.654 157.449 203.422C157.531 203.189 157.66 202.977 157.828 202.796C157.996 202.616 158.2 202.472 158.426 202.374C158.652 202.276 158.896 202.225 159.142 202.225C159.389 202.225 159.632 202.276 159.858 202.374C160.084 202.472 160.288 202.616 160.456 202.796C160.624 202.977 160.753 203.189 160.836 203.422C160.918 203.654 160.951 203.901 160.934 204.147Z" fill="white"/>
<path d="M166.489 204.173C166.465 204.522 166.34 204.857 166.128 205.136C165.917 205.415 165.628 205.626 165.298 205.744C164.968 205.861 164.61 205.879 164.27 205.796C163.93 205.713 163.621 205.532 163.383 205.275C163.144 205.019 162.985 204.699 162.926 204.353C162.867 204.008 162.91 203.653 163.05 203.332C163.191 203.011 163.422 202.738 163.715 202.546C164.008 202.355 164.351 202.253 164.701 202.254C165.193 202.272 165.657 202.484 165.992 202.844C166.327 203.204 166.506 203.681 166.489 204.173Z" fill="white"/>
<path d="M172.044 204.199C172.02 204.55 171.893 204.887 171.679 205.167C171.466 205.447 171.174 205.657 170.842 205.773C170.509 205.889 170.15 205.904 169.809 205.817C169.467 205.73 169.159 205.545 168.922 205.285C168.685 205.024 168.53 204.7 168.476 204.352C168.422 204.004 168.472 203.648 168.619 203.328C168.765 203.007 169.003 202.738 169.302 202.551C169.601 202.365 169.948 202.271 170.3 202.28C170.783 202.31 171.236 202.527 171.562 202.885C171.888 203.243 172.061 203.715 172.044 204.199Z" fill="white"/>
</g>
<path d="M164.153 78.305C164.759 78.0382 165.273 77.5992 165.631 77.0425C165.989 76.4858 166.176 75.8361 166.168 75.1742C166.19 74.7439 166.125 74.3136 165.976 73.9093C165.827 73.5051 165.597 73.1354 165.3 72.8228C165.004 72.5103 164.646 72.2614 164.251 72.0913C163.855 71.9212 163.428 71.8335 162.997 71.8335C162.567 71.8335 162.14 71.9212 161.744 72.0913C161.348 72.2614 160.991 72.5103 160.695 72.8228C160.398 73.1354 160.168 73.5051 160.019 73.9093C159.87 74.3136 159.805 74.7439 159.827 75.1742C159.814 75.8427 159.999 76.5002 160.359 77.0636C160.719 77.6271 161.238 78.0712 161.851 78.3399C156.967 79.0724 157.185 84.3747 157.185 84.3747L168.731 84.427C168.731 84.427 169.002 79.0288 164.153 78.305Z" fill="#00707E"/>
<path opacity="0.1" d="M164.153 78.305C164.759 78.0382 165.273 77.5992 165.631 77.0425C165.989 76.4858 166.176 75.8361 166.168 75.1742C166.19 74.7439 166.125 74.3136 165.976 73.9093C165.827 73.5051 165.597 73.1354 165.3 72.8228C165.004 72.5103 164.646 72.2614 164.251 72.0913C163.855 71.9212 163.428 71.8335 162.997 71.8335C162.567 71.8335 162.14 71.9212 161.744 72.0913C161.348 72.2614 160.991 72.5103 160.695 72.8228C160.398 73.1354 160.168 73.5051 160.019 73.9093C159.87 74.3136 159.805 74.7439 159.827 75.1742C159.814 75.8427 159.999 76.5002 160.359 77.0636C160.719 77.6271 161.238 78.0712 161.851 78.3399C156.967 79.0724 157.185 84.3747 157.185 84.3747L168.731 84.427C168.731 84.427 169.002 79.0288 164.153 78.305Z" fill="black"/>
<path d="M182.915 87.8464L141.762 87.6597L141.739 92.5782L182.893 92.7649L182.915 87.8464Z" fill="#00707E"/>
<path opacity="0.2" d="M182.915 87.8464L141.762 87.6597L141.739 92.5782L182.893 92.7649L182.915 87.8464Z" fill="white"/>
<path d="M31.622 113.336H31.2121L30.026 113.424C29.3842 113.462 28.7459 113.547 28.1162 113.677C27.7083 113.734 27.3037 113.812 26.904 113.912L25.5523 114.287C23.2515 114.993 21.0808 116.068 19.125 117.47C16.5409 119.346 14.3832 121.747 12.7937 124.517C11.8594 126.113 11.116 127.814 10.5786 129.583C10.0139 131.507 9.68876 133.493 9.61056 135.496C9.55859 136.548 9.57606 137.603 9.66288 138.653C9.66288 139.185 9.81114 139.717 9.8809 140.258C9.93959 140.803 10.0417 141.342 10.1861 141.871C10.9703 145.371 12.5615 148.638 14.8327 151.414C17.1039 154.189 19.9923 156.395 23.2674 157.856C25.6378 158.879 28.1785 159.45 30.7586 159.54C33.4234 159.686 36.091 159.304 38.6073 158.415L39.3748 158.127H39.4794L39.5666 158.179L50.5636 163.76L50.241 164.039C49.0636 160.394 47.9299 156.862 46.8311 153.47V153.339L46.927 153.243C49.5947 150.556 51.5751 147.265 52.7002 143.65C53.7193 140.345 54.0167 136.859 53.5723 133.429C53.177 130.381 52.1969 127.438 50.6857 124.761C49.3831 122.461 47.7026 120.398 45.7148 118.656C44.0748 117.278 42.2597 116.122 40.3166 115.22C38.8464 114.586 37.3152 114.104 35.7469 113.781L34.0027 113.493L32.7382 113.398L31.9708 113.345H31.7092C31.7961 113.336 31.8838 113.336 31.9708 113.345H32.7469L34.0115 113.398L35.7556 113.65C37.3434 113.949 38.8955 114.414 40.3864 115.037C42.3628 115.929 44.2107 117.081 45.8805 118.464C47.9049 120.198 49.6209 122.262 50.9561 124.569C52.5102 127.274 53.5204 130.258 53.9299 133.351C54.4111 136.834 54.1344 140.38 53.1188 143.746C51.9864 147.437 49.9754 150.797 47.2584 153.54L47.3107 153.313C48.4096 156.705 49.552 160.237 50.738 163.874L50.9037 164.406L50.4066 164.153L39.4097 158.58H39.6015L38.8166 158.868C36.2518 159.771 33.5349 160.162 30.8196 160.019C28.1839 159.919 25.5901 159.327 23.1715 158.275C18.5579 156.299 14.7194 152.865 12.2443 148.499C11.1052 146.482 10.2734 144.307 9.77625 142.045C9.64011 141.503 9.53817 140.953 9.47102 140.397C9.40126 139.848 9.28789 139.307 9.26173 138.766C9.0257 135.663 9.35367 132.543 10.2297 129.557C10.7805 127.763 11.5447 126.041 12.5059 124.429C14.1333 121.635 16.336 119.218 18.968 117.339C20.956 115.934 23.1632 114.867 25.4999 114.182L26.8691 113.834C27.2721 113.74 27.6796 113.667 28.09 113.616C28.7263 113.498 29.3706 113.428 30.0173 113.406L31.2121 113.363C31.3479 113.344 31.4849 113.336 31.622 113.336Z" fill="#00707E"/>
<path d="M36.5929 133.674H34.9796L31.4912 128.772V125.554C31.4912 125.554 28.9971 125.397 29.2936 129.61C29.5901 133.822 29.2936 132.749 29.2936 132.749C29.2936 132.749 24.0001 132.749 23.564 133.229C23.128 133.708 23.1018 138.819 23.0408 141.671C23.0073 142.358 23.2046 143.037 23.6012 143.599C23.9978 144.162 24.571 144.576 25.2297 144.775C25.4143 144.826 25.6049 144.853 25.7965 144.854C27.1221 144.854 33.8633 143.781 33.8633 143.781H36.6453L36.5929 133.674Z" fill="#00707E"/>
<path d="M41.205 132.81L40.2109 143.833H37.4551V133.037L41.205 132.81Z" fill="#00707E"/>
<path d="M74.0742 357.223V349.767L60.7052 349.671L60.5918 360.947L61.4203 361.008C65.1092 361.244 80.1875 361.593 82.6642 360.825C85.42 359.97 74.0742 357.223 74.0742 357.223Z" fill="#00707E"/>
<path d="M82.9795 360.128C82.9795 360.25 77.9737 360.354 71.8081 360.354C65.6425 360.354 60.6367 360.25 60.6367 360.128C60.6367 360.006 65.6425 359.901 71.8081 359.901C77.9737 359.901 82.9795 360.006 82.9795 360.128Z" fill="#263238"/>
<path d="M74.3113 358.75C74.1979 358.689 74.3112 358.296 74.5816 357.878C74.8519 357.459 75.2182 357.285 75.3054 357.372C75.3926 357.459 75.2095 357.79 74.9479 358.148C74.6862 358.505 74.4246 358.811 74.3113 358.75Z" fill="#263238"/>
<path d="M75.1659 359.238C75.0438 359.238 75.1048 358.75 75.3665 358.287C75.6281 357.825 75.9769 357.546 76.0729 357.616C76.1688 357.686 76.0118 358.078 75.7676 358.488C75.5234 358.898 75.2793 359.282 75.1659 359.238Z" fill="#263238"/>
<path d="M64.665 360.093C64.6127 360.093 64.4121 359.936 64.1244 359.604C63.7731 359.178 63.3817 358.787 62.9558 358.436C62.5369 358.101 62.0379 357.882 61.5081 357.799C61.0982 357.747 60.8366 357.799 60.8104 357.747C60.7843 357.694 61.0372 357.511 61.5168 357.476C62.1498 357.463 62.7673 357.673 63.261 358.069C63.7235 358.446 64.1136 358.904 64.4121 359.421C64.6127 359.805 64.7174 360.058 64.665 360.093Z" fill="#263238"/>
<path d="M74.354 357.346C74.415 357.45 74.1883 357.712 73.8046 357.852C73.4208 357.991 73.0807 357.939 73.0633 357.852C73.0459 357.764 73.3162 357.581 73.6476 357.459C73.979 357.337 74.2842 357.241 74.354 357.346Z" fill="#263238"/>
<path d="M74.1438 356.622C74.1438 356.753 73.795 356.857 73.3415 356.866C72.8881 356.875 72.5305 356.77 72.5392 356.648C72.5479 356.526 72.9055 356.413 73.3415 356.404C73.7776 356.395 74.1264 356.5 74.1438 356.622Z" fill="#263238"/>
<path d="M106.996 357.223V349.767L93.627 349.671L93.5137 360.834L94.3421 360.895C98.0311 361.13 113.118 361.593 115.586 360.825C118.342 359.97 106.996 357.223 106.996 357.223Z" fill="#00707E"/>
<path d="M115.9 360.145C115.9 360.267 110.903 360.372 104.729 360.372C98.5547 360.372 93.5664 360.267 93.5664 360.145C93.5664 360.023 98.5634 359.918 104.729 359.918C110.895 359.918 115.9 360.023 115.9 360.145Z" fill="#263238"/>
<path d="M107.231 358.75C107.127 358.689 107.231 358.296 107.502 357.878C107.772 357.459 108.138 357.285 108.226 357.372C108.313 357.459 108.13 357.79 107.868 358.148C107.606 358.505 107.345 358.811 107.231 358.75Z" fill="#263238"/>
<path d="M108.086 359.238C107.972 359.238 108.024 358.75 108.295 358.287C108.565 357.825 108.905 357.546 109.001 357.616C109.097 357.686 108.931 358.078 108.687 358.488C108.443 358.898 108.208 359.282 108.086 359.238Z" fill="#263238"/>
<path d="M97.5869 360.093C97.5346 360.093 97.3427 359.936 97.0462 359.604C96.6949 359.178 96.3036 358.787 95.8776 358.436C95.4588 358.101 94.9597 357.882 94.43 357.799C94.0288 357.747 93.7585 357.799 93.7323 357.747C93.7062 357.694 93.9591 357.511 94.4387 357.476C95.0717 357.463 95.6892 357.673 96.1829 358.069C96.6478 358.444 97.0383 358.903 97.334 359.421C97.5346 359.805 97.6392 360.058 97.5869 360.093Z" fill="#263238"/>
<path d="M107.276 357.346C107.337 357.45 107.11 357.712 106.726 357.852C106.343 357.991 106.003 357.939 105.985 357.852C105.968 357.764 106.238 357.581 106.569 357.459C106.901 357.337 107.206 357.241 107.276 357.346Z" fill="#263238"/>
<path d="M107.084 356.622C107.084 356.753 106.736 356.857 106.282 356.866C105.829 356.875 105.48 356.77 105.488 356.648C105.497 356.526 105.846 356.413 106.282 356.404C106.718 356.395 107.084 356.5 107.084 356.622Z" fill="#263238"/>
<path d="M156.252 135.802C155.903 135.444 155.039 135.618 155.039 135.618C155.126 135.116 155.126 134.603 155.039 134.101C154.882 133.613 153.783 133.709 153.783 133.709C153.733 133.297 153.733 132.881 153.783 132.47C153.792 132.379 153.773 132.287 153.727 132.208C153.682 132.128 153.613 132.065 153.531 132.025C153.011 131.813 152.452 131.712 151.891 131.729C151.22 131.249 153.94 127.438 154.952 126.217C155.964 124.996 155.781 124.046 154.882 124.046C154.263 124.046 151.089 127.709 150.112 128.938C149.135 130.168 146.545 133.586 146.458 130.857C146.371 128.127 145.272 126.069 144.583 125.72C143.894 125.371 143.162 126.191 143.537 126.95C143.866 127.812 144.072 128.716 144.147 129.636C144.242 130.369 144.209 131.112 144.051 131.834C143.762 133.176 143.368 134.494 142.874 135.775H142.804C142.804 135.775 123.775 154.028 122.397 155.328C121.168 156.496 96.4353 153.941 91.4731 153.418C89.7869 153.171 88.0842 153.054 86.3801 153.069C84.2261 153.165 83.8424 153.47 81.697 153.496C76.2792 153.556 70.8739 154.032 65.5286 154.918C63.1083 155.329 60.8474 156.397 58.9928 158.006C57.1381 159.615 55.7608 161.702 55.0113 164.04C50.0142 179.65 38.6946 216.6 36.6975 237.356C35.1884 240.092 33.8261 242.907 32.6162 245.789C31.2121 249.609 31.5522 249.739 32.0232 249.827C33.2964 250.062 34.7441 243.207 35.2847 244.864C35.8254 246.521 32.5377 253.036 33.872 253.228C35.6161 253.472 37.0028 246.251 37.1684 245.675C37.3341 245.1 38.1975 245.283 38.0405 245.824C37.7876 246.591 35.3371 254.728 37.0464 254.989C37.9882 255.129 38.0929 253.411 38.0929 253.411C38.0929 253.411 39.837 245.623 40.6306 245.78C41.4242 245.937 40.5783 250.533 40.1771 252.068C39.776 253.603 40.3341 254.379 41.1539 254.004C41.712 253.742 43.0463 249.077 43.4126 247.559C43.7788 246.042 44.6945 241.838 45.9242 244.271C47.1538 246.704 49.0201 248.117 49.7875 248.152C49.9604 248.132 50.1234 248.061 50.2555 247.948C50.3876 247.834 50.4828 247.684 50.5288 247.516C50.5747 247.348 50.5694 247.17 50.5134 247.006C50.4575 246.841 50.3535 246.696 50.2148 246.591C49.5547 245.947 48.9882 245.213 48.5317 244.411C48.1249 243.786 47.8298 243.096 47.6596 242.37C47.3082 240.924 47.1037 239.445 47.0492 237.957L46.9096 237.085C48.8631 227.414 54.488 199.028 62.6071 180.897L65.9385 187.752L67.3862 192.827L58.5083 214.743L96.3742 214.246L90.7231 192.496L97.5864 169.822C105.008 169.987 124.063 170.266 127.237 168.827C131.231 167.083 151.891 140.99 151.891 140.99C153.238 139.944 154.527 138.826 155.754 137.642C155.754 137.642 157.01 136.586 156.252 135.802Z" fill="#D2D5D5"/>
<path d="M56.8433 198.548C57.9421 194.798 63.5845 176.257 63.5845 176.257C63.5845 176.257 66.3578 191.37 65.6252 193.193C64.9514 194.753 64.1553 196.258 63.2444 197.693C56.8433 207.434 57.6805 212.309 57.6805 212.309L96.3574 211.132C96.4446 205.725 93.2441 193.149 92.5813 191.144C91.9185 189.138 94.1249 182.571 94.1249 182.571C94.1249 182.571 98.4853 178.132 98.3284 175.847C98.2455 173.795 97.9917 171.753 97.5696 169.743L121.116 170.615L120.375 154.656L86.5552 151.272C85.3779 154.595 74.7297 152.964 74.7297 152.964C63.2357 153.348 62.5206 155.458 57.7416 159.173C52.9625 162.888 45.0527 194.772 45.0527 194.772L56.8433 198.548Z" fill="#00707E"/>
<path d="M79.7095 194.772C79.0392 194.891 78.3566 194.927 77.6776 194.876C76.413 194.876 74.6776 194.789 72.7677 194.597C70.8579 194.405 69.1311 194.135 67.9015 193.891C67.2235 193.803 66.5587 193.634 65.9219 193.385C66.6037 193.385 67.284 193.45 67.9538 193.577C69.1922 193.734 70.9102 193.952 72.8113 194.144C74.7125 194.336 76.4392 194.466 77.6863 194.554C78.3661 194.562 79.0435 194.635 79.7095 194.772Z" fill="#263238"/>
<path d="M82.3603 191.484C81.6898 191.812 80.9808 192.055 80.2498 192.207C76.7705 193.122 73.1809 193.547 69.5842 193.472C68.84 193.496 68.0957 193.426 67.3691 193.263C68.1037 193.17 68.8441 193.132 69.5842 193.149C70.9534 193.106 72.8371 193.01 74.9127 192.766C76.9882 192.521 78.837 192.173 80.1452 191.894C80.8717 191.699 81.6124 191.562 82.3603 191.484Z" fill="#263238"/>
<path d="M95.3713 176.815C95.3536 177.48 95.2629 178.141 95.1009 178.786C94.8742 179.999 94.5253 181.655 94.0806 183.469C93.6358 185.283 93.2085 186.958 92.8248 188.091C92.6705 188.74 92.4422 189.37 92.1445 189.966C92.1931 189.304 92.316 188.648 92.5108 188.013C92.8422 186.653 93.2172 185.083 93.6358 183.365C94.0544 181.647 94.4556 180.077 94.7869 178.717C94.905 178.062 95.1012 177.424 95.3713 176.815Z" fill="#263238"/>
<path d="M57.2524 196.324C55.2349 196.012 53.2438 195.549 51.2961 194.937C49.3059 194.472 47.3529 193.86 45.4531 193.106C47.4697 193.423 49.4604 193.886 51.4095 194.493C53.4001 194.956 55.3532 195.568 57.2524 196.324Z" fill="#263238"/>
<path d="M97.9871 169.551C97.6581 169.608 97.3219 169.608 96.9929 169.551C96.082 169.458 95.1876 169.244 94.3331 168.915C92.9064 168.378 91.6077 167.55 90.5203 166.482C89.433 165.414 88.581 164.131 88.0192 162.714C87.3982 161.156 87.133 159.478 87.243 157.804C87.2819 156.423 87.6948 155.079 88.4378 153.915C88.9603 153.13 89.7409 152.553 90.6441 152.284C90.8855 152.217 91.135 152.185 91.3854 152.188C91.5598 152.188 91.647 152.188 91.647 152.188C91.647 152.188 91.2808 152.188 90.6965 152.423C89.8678 152.73 89.165 153.303 88.6994 154.054C87.5134 155.92 87.182 159.33 88.4465 162.513C89.035 164.014 89.9564 165.362 91.1412 166.455C92.1121 167.35 93.2303 168.07 94.4464 168.583C95.5877 169.034 96.775 169.359 97.9871 169.551Z" fill="#263238"/>
<path d="M118.315 170.301C118.097 167.627 118.027 164.942 118.106 162.26C118.037 159.581 118.119 156.899 118.35 154.229C118.568 156.9 118.638 159.581 118.559 162.26C118.632 164.943 118.551 167.628 118.315 170.301Z" fill="#263238"/>
<path d="M86.327 152.249C86.4229 150.304 86.6235 148.106 86.6235 148.106C86.6235 148.106 91.4374 147.574 91.7252 142.604C92.013 137.633 91.7252 126.165 91.7252 126.165L83.0044 121.7L73.3242 129.313L74.8155 154.167L83.6933 154.734C84.3719 154.753 85.0303 154.502 85.524 154.036C86.0177 153.57 86.3065 152.927 86.327 152.249Z" fill="#D2D5D5"/>
<path d="M87.1921 138.67C87.1921 138.67 87.1921 138.766 87.1136 138.88C87.0487 138.962 86.9647 139.027 86.869 139.07C86.7733 139.112 86.6687 139.131 86.5642 139.124C86.006 139.124 85.4653 138.479 85.2735 137.729C85.1823 137.365 85.1823 136.985 85.2735 136.621C85.2914 136.462 85.3486 136.311 85.44 136.18C85.5313 136.049 85.654 135.943 85.7967 135.871C85.914 135.823 86.0457 135.823 86.163 135.871C86.2499 135.914 86.3204 135.985 86.3636 136.072C86.4246 136.22 86.3636 136.316 86.3636 136.307C86.3636 136.298 86.3636 136.22 86.2764 136.133C86.2308 136.07 86.1637 136.027 86.0881 136.011C86.0125 135.995 85.9335 136.007 85.8665 136.045C85.7595 136.11 85.6706 136.201 85.6081 136.309C85.5456 136.417 85.5115 136.54 85.5089 136.665C85.4355 136.989 85.4355 137.326 85.5089 137.65C85.6833 138.33 86.1543 138.88 86.5729 138.932C86.6548 138.943 86.7381 138.937 86.8176 138.915C86.8971 138.892 86.9711 138.854 87.0351 138.801C87.1397 138.731 87.1746 138.662 87.1921 138.67Z" fill="#EB996E"/>
<path d="M94.7181 123.479C94.0466 121.194 91.6135 120.06 89.3984 119.432C86.0234 118.473 82.3781 118.054 79.0817 119.267C75.7852 120.479 71.8259 122.607 71.8259 126.243C69.8812 126.086 68.7649 127.787 67.9975 129.897C67.5068 131.183 67.2128 132.536 67.1254 133.909C66.8812 138.671 65.5469 145.246 62.4597 148.734C60.7156 150.679 58.2999 152.022 57.3057 154.447C56.4336 156.548 56.8871 159.042 56.0761 161.17C55.3523 163.045 53.7563 164.38 52.5877 166.01C51.3972 167.86 50.6966 169.983 50.5516 172.178C50.4067 174.373 50.8223 176.569 51.7593 178.56C52.703 180.499 54.0317 182.226 55.6645 183.635C57.2972 185.045 59.1998 186.107 61.2563 186.757C65.3298 187.997 69.6737 188.039 73.7707 186.879C76.8454 186.144 79.7137 184.722 82.1601 182.719C84.6633 180.675 86.3825 177.828 87.0263 174.661C87.6455 171.103 86.6514 167.484 85.9101 163.944C83.5903 152.755 84.2531 152.17 87.1833 141.784C87.2531 141.601 87.288 141.409 87.3403 141.226C87.3926 141.043 87.4188 140.955 87.4537 140.816C87.5369 140.405 87.5807 139.988 87.5845 139.569C87.1565 139.728 86.692 139.762 86.2455 139.666C85.799 139.57 85.3892 139.349 85.0642 139.028C84.7384 138.686 84.5112 138.262 84.4068 137.802C84.3024 137.341 84.3246 136.861 84.4711 136.412C84.6769 135.921 84.9835 135.478 85.3711 135.113C85.7587 134.748 86.2186 134.469 86.7211 134.293C87.6891 133.891 88.7269 133.682 89.6775 133.237C91.692 132.278 93.0873 130.29 94.0379 128.205C94.8194 126.761 95.0606 125.085 94.7181 123.479Z" fill="#00434C"/>
<path d="M87.5393 138.906C87.7235 139.178 87.8757 139.471 87.9927 139.778C88.2544 140.328 88.6032 141.104 88.9869 142.002L89.0567 142.168H88.8735L88.0015 142.246C87.3997 142.246 86.8939 142.359 86.3009 142.351C86.2493 142.339 86.2014 142.315 86.1618 142.28C86.1221 142.245 86.092 142.2 86.0742 142.15C86.0482 142.071 86.0482 141.985 86.0742 141.906C86.0943 141.788 86.1205 141.672 86.1526 141.557L86.3096 140.938C86.3885 140.525 86.5113 140.121 86.6759 139.734C86.6597 140.156 86.5983 140.574 86.4928 140.982L86.3707 141.601C86.3271 141.81 86.2486 142.133 86.3707 142.107C86.8067 142.107 87.4259 142.011 88.0015 141.976L88.8735 141.897L88.7602 142.089C88.3852 141.217 88.0712 140.397 87.8881 139.83C87.7274 139.541 87.6099 139.229 87.5393 138.906Z" fill="#00707E"/>
<path d="M57.6792 212.309L96.3561 211.132L113.187 276.835L110.091 352.2H89.6411L92.144 278.44L77.1877 232.699L79.49 355.122L58.8217 355.427L56.6502 240.356C56.5542 237.155 55.5077 229.943 55.9002 226.769L57.6792 212.309Z" fill="#C2D2D4"/>
<path d="M82.333 233.632C81.6999 233.671 81.0643 233.633 80.4406 233.518C79.272 233.379 77.6761 233.134 75.9232 232.786C74.1703 232.437 72.6005 232.036 71.4668 231.713C70.8608 231.58 70.2745 231.369 69.7227 231.085C69.7227 230.954 72.5656 231.635 76.054 232.341C79.5423 233.047 82.3504 233.501 82.333 233.632Z" fill="#455A64"/>
<path d="M109.882 348.067C109.882 348.189 105.251 348.293 99.5391 348.293C93.827 348.293 89.1875 348.189 89.1875 348.067C89.1875 347.945 93.8183 347.84 99.5391 347.84C105.26 347.84 109.882 347.936 109.882 348.067Z" fill="#455A64"/>
<path d="M79.3067 351.938C79.3067 352.069 74.8068 352.165 69.2604 352.165C63.7139 352.165 59.2227 352.069 59.2227 351.938C59.2227 351.808 63.7226 351.712 69.2604 351.712C74.7981 351.712 79.3067 351.816 79.3067 351.938Z" fill="#455A64"/>
<path d="M76.638 351.625C76.5159 351.625 75.9752 324.878 75.4258 291.887C74.8764 258.896 74.5538 232.132 74.6671 232.132C74.7805 232.132 75.3386 258.87 75.8793 291.878C76.42 324.886 76.7688 351.625 76.638 351.625Z" fill="#455A64"/>
<path d="M107.136 348.067C107.126 347.948 107.126 347.828 107.136 347.709V346.663C107.136 345.721 107.206 344.369 107.258 342.651C107.38 339.163 107.555 334.096 107.773 327.887C108.244 315.398 108.906 298.183 109.63 279.181C109.63 278.998 109.63 278.823 109.63 278.666V278.727C105.052 260.413 100.909 243.792 97.9007 231.766L94.4123 217.542C94.0112 215.876 93.7059 214.577 93.4879 213.67C93.3833 213.242 93.3135 212.911 93.2524 212.658C93.2185 212.545 93.198 212.428 93.1914 212.309C93.2367 212.419 93.2717 212.533 93.2961 212.649C93.3658 212.894 93.453 213.225 93.5751 213.644C93.8106 214.516 94.1507 215.841 94.5867 217.498C95.4588 220.864 96.6885 225.713 98.2233 231.687C101.258 243.704 105.444 260.283 110.084 278.623V278.684C110.084 278.841 110.084 279.024 110.084 279.198C109.308 298.201 108.601 315.407 108.087 327.895C107.816 334.113 107.589 339.145 107.433 342.651C107.345 344.395 107.276 345.721 107.232 346.663C107.232 347.107 107.18 347.456 107.171 347.709C107.172 347.829 107.161 347.949 107.136 348.067Z" fill="#455A64"/>
<path d="M100.463 277.131C98.9946 277.614 97.4814 277.95 95.9461 278.134C94.0624 278.457 92.4577 278.684 91.7339 278.719V278.544C91.9694 278.614 92.0915 278.658 92.0915 278.692C92.0915 278.727 91.9432 278.692 91.699 278.692H91.1758L91.699 278.535C92.3793 278.335 93.9839 278.003 95.8676 277.663C97.3784 277.336 98.9178 277.157 100.463 277.131Z" fill="#455A64"/>
<path d="M100.106 279.634C98.7461 279.696 97.3829 279.635 96.0337 279.451C94.6715 279.423 93.3144 279.274 91.9785 279.006C94.7039 278.784 97.4474 278.996 100.106 279.634Z" fill="#455A64"/>
<path opacity="0.2" d="M57.5137 213.696C57.9717 214.284 58.5487 214.769 59.2068 215.119C59.865 215.469 60.5896 215.677 61.3334 215.728C62.8911 215.912 64.4667 215.883 66.0165 215.641C76.0019 214.533 86.5802 213.513 96.3563 211.132C83.7023 211.838 70.3333 211.603 57.6794 212.309L57.5485 213.391" fill="black"/>
<g opacity="0.2">
<path d="M70.5527 231.53L77.6864 259.21L77.1893 232.699L70.5527 231.53Z" fill="black"/>
</g>
</svg>
