<svg width="274" height="69" viewBox="0 0 274 69" fill="none" xmlns="http://www.w3.org/2000/svg">
<path d="M4.829 66.132C4.235 66.132 3.68133 66.0257 3.168 65.813C2.662 65.6003 2.21467 65.3033 1.826 64.922C1.44467 64.5407 1.144 64.0933 0.924 63.58C0.711333 63.0667 0.605 62.5057 0.605 61.897C0.605 61.2883 0.711333 60.7273 0.924 60.214C1.144 59.6933 1.44467 59.246 1.826 58.872C2.20733 58.4907 2.65467 58.1973 3.168 57.992C3.68133 57.7793 4.235 57.673 4.829 57.673C5.43033 57.673 5.984 57.7793 6.49 57.992C7.00333 58.1973 7.45067 58.4907 7.832 58.872C8.22067 59.2533 8.52133 59.7007 8.734 60.214C8.94667 60.7273 9.053 61.2883 9.053 61.897C9.053 62.5057 8.943 63.0667 8.723 63.58C8.51033 64.0933 8.21333 64.5407 7.832 64.922C7.45067 65.3033 7.00333 65.6003 6.49 65.813C5.97667 66.0257 5.423 66.132 4.829 66.132ZM4.829 64.944C5.25433 64.944 5.643 64.867 5.995 64.713C6.35433 64.559 6.666 64.3463 6.93 64.075C7.194 63.7963 7.39933 63.4737 7.546 63.107C7.69267 62.733 7.766 62.3297 7.766 61.897C7.766 61.4643 7.69267 61.0647 7.546 60.698C7.39933 60.3313 7.194 60.0087 6.93 59.73C6.666 59.4513 6.35433 59.235 5.995 59.081C5.643 58.927 5.25433 58.85 4.829 58.85C4.40367 58.85 4.01133 58.927 3.652 59.081C3.3 59.235 2.992 59.4513 2.728 59.73C2.464 60.0087 2.25867 60.3313 2.112 60.698C1.97267 61.0647 1.903 61.4643 1.903 61.897C1.903 62.3297 1.97267 62.733 2.112 63.107C2.25867 63.4737 2.464 63.7963 2.728 64.075C2.992 64.3463 3.30367 64.559 3.663 64.713C4.02233 64.867 4.411 64.944 4.829 64.944ZM12.6602 66L10.3282 60.049H11.6812L13.4742 64.9H12.9792L14.7722 60.049H16.1362L13.7932 66H12.6602ZM20.2177 66.132C19.6237 66.132 19.0957 65.9963 18.6337 65.725C18.179 65.4463 17.8233 65.0723 17.5667 64.603C17.31 64.1263 17.1817 63.5947 17.1817 63.008C17.1817 62.4067 17.31 61.875 17.5667 61.413C17.8307 60.951 18.1827 60.588 18.6227 60.324C19.0627 60.0527 19.5613 59.917 20.1187 59.917C20.566 59.917 20.9657 59.994 21.3177 60.148C21.6697 60.302 21.9667 60.5147 22.2087 60.786C22.4507 61.05 22.634 61.3543 22.7587 61.699C22.8907 62.0437 22.9567 62.4103 22.9567 62.799C22.9567 62.8943 22.953 62.9933 22.9457 63.096C22.9383 63.1987 22.9237 63.294 22.9017 63.382H18.1607V62.392H22.1977L21.6037 62.843C21.677 62.4837 21.6513 62.1647 21.5267 61.886C21.4093 61.6 21.226 61.3763 20.9767 61.215C20.7347 61.0463 20.4487 60.962 20.1187 60.962C19.7887 60.962 19.4953 61.0463 19.2387 61.215C18.982 61.3763 18.784 61.611 18.6447 61.919C18.5053 62.2197 18.4503 62.5863 18.4797 63.019C18.443 63.4223 18.498 63.7743 18.6447 64.075C18.7987 64.3757 19.0113 64.6103 19.2827 64.779C19.5613 64.9477 19.8767 65.032 20.2287 65.032C20.588 65.032 20.8923 64.9513 21.1417 64.79C21.3983 64.6287 21.6 64.4197 21.7467 64.163L22.7587 64.658C22.6413 64.9367 22.458 65.1897 22.2087 65.417C21.9667 65.637 21.6733 65.813 21.3287 65.945C20.9913 66.0697 20.621 66.132 20.2177 66.132ZM24.7197 66V60.049H25.9077V61.248L25.7977 61.072C25.9297 60.6833 26.1424 60.4047 26.4357 60.236C26.7291 60.06 27.0811 59.972 27.4917 59.972H27.8547V61.105H27.3377C26.9271 61.105 26.5934 61.2333 26.3367 61.49C26.0874 61.7393 25.9627 62.0987 25.9627 62.568V66H24.7197ZM30.9821 66L28.6501 60.049H30.0031L31.7961 64.9H31.3011L33.0941 60.049H34.4581L32.1151 66H30.9821ZM35.853 66V60.049H37.096V66H35.853ZM35.853 59.235V57.805H37.096V59.235H35.853ZM41.8932 66.132C41.2992 66.132 40.7712 65.9963 40.3092 65.725C39.8546 65.4463 39.4989 65.0723 39.2422 64.603C38.9856 64.1263 38.8572 63.5947 38.8572 63.008C38.8572 62.4067 38.9856 61.875 39.2422 61.413C39.5062 60.951 39.8582 60.588 40.2982 60.324C40.7382 60.0527 41.2369 59.917 41.7942 59.917C42.2416 59.917 42.6412 59.994 42.9932 60.148C43.3452 60.302 43.6422 60.5147 43.8842 60.786C44.1262 61.05 44.3096 61.3543 44.4342 61.699C44.5662 62.0437 44.6322 62.4103 44.6322 62.799C44.6322 62.8943 44.6286 62.9933 44.6212 63.096C44.6139 63.1987 44.5992 63.294 44.5772 63.382H39.8362V62.392H43.8732L43.2792 62.843C43.3526 62.4837 43.3269 62.1647 43.2022 61.886C43.0849 61.6 42.9016 61.3763 42.6522 61.215C42.4102 61.0463 42.1242 60.962 41.7942 60.962C41.4642 60.962 41.1709 61.0463 40.9142 61.215C40.6576 61.3763 40.4596 61.611 40.3202 61.919C40.1809 62.2197 40.1259 62.5863 40.1552 63.019C40.1186 63.4223 40.1736 63.7743 40.3202 64.075C40.4742 64.3757 40.6869 64.6103 40.9582 64.779C41.2369 64.9477 41.5522 65.032 41.9042 65.032C42.2636 65.032 42.5679 64.9513 42.8172 64.79C43.0739 64.6287 43.2756 64.4197 43.4222 64.163L44.4342 64.658C44.3169 64.9367 44.1336 65.1897 43.8842 65.417C43.6422 65.637 43.3489 65.813 43.0042 65.945C42.6669 66.0697 42.2966 66.132 41.8932 66.132ZM47.8363 66L45.7903 60.049H47.1103L48.6723 64.79H48.2103L49.8053 60.049H50.9383L52.5223 64.79H52.0603L53.6333 60.049H54.9533L52.8963 66H51.7743L50.1683 61.149H50.5753L48.9693 66H47.8363Z" fill="#B1B1B1"/>
<path d="M84.847 66V57.805H87.828C88.378 57.805 88.862 57.9077 89.28 58.113C89.7053 58.311 90.0353 58.6043 90.27 58.993C90.5047 59.3743 90.622 59.8327 90.622 60.368C90.622 60.896 90.501 61.3507 90.259 61.732C90.0243 62.1133 89.698 62.4067 89.28 62.612C88.862 62.8173 88.378 62.92 87.828 62.92H86.145V66H84.847ZM86.145 61.765H87.861C88.1543 61.765 88.411 61.7063 88.631 61.589C88.851 61.4717 89.0233 61.3103 89.148 61.105C89.2727 60.8923 89.335 60.643 89.335 60.357C89.335 60.071 89.2727 59.8253 89.148 59.62C89.0233 59.4073 88.851 59.246 88.631 59.136C88.411 59.0187 88.1543 58.96 87.861 58.96H86.145V61.765ZM93.7826 66.132C93.3793 66.132 93.0236 66.0623 92.7156 65.923C92.4149 65.7763 92.1803 65.5783 92.0116 65.329C91.8429 65.0723 91.7586 64.7717 91.7586 64.427C91.7586 64.1043 91.8283 63.8147 91.9676 63.558C92.1143 63.3013 92.3379 63.085 92.6386 62.909C92.9393 62.733 93.3169 62.6083 93.7716 62.535L95.8396 62.194V63.173L94.0136 63.492C93.6836 63.5507 93.4416 63.657 93.2876 63.811C93.1336 63.9577 93.0566 64.1483 93.0566 64.383C93.0566 64.6103 93.1409 64.7973 93.3096 64.944C93.4856 65.0833 93.7093 65.153 93.9806 65.153C94.3179 65.153 94.6113 65.0797 94.8606 64.933C95.1173 64.7863 95.3153 64.592 95.4546 64.35C95.5939 64.1007 95.6636 63.8257 95.6636 63.525V61.996C95.6636 61.7027 95.5536 61.4643 95.3336 61.281C95.1209 61.0903 94.8349 60.995 94.4756 60.995C94.1456 60.995 93.8559 61.083 93.6066 61.259C93.3646 61.4277 93.1849 61.6477 93.0676 61.919L92.0336 61.402C92.1436 61.1087 92.3233 60.852 92.5726 60.632C92.8219 60.4047 93.1116 60.2287 93.4416 60.104C93.7789 59.9793 94.1346 59.917 94.5086 59.917C94.9779 59.917 95.3923 60.005 95.7516 60.181C96.1183 60.357 96.4006 60.6027 96.5986 60.918C96.8039 61.226 96.9066 61.5853 96.9066 61.996V66H95.7186V64.922L95.9716 64.955C95.8323 65.197 95.6526 65.406 95.4326 65.582C95.2199 65.758 94.9743 65.8937 94.6956 65.989C94.4243 66.0843 94.1199 66.132 93.7826 66.132ZM99.438 68.431C99.2913 68.431 99.1447 68.4163 98.998 68.387C98.8587 68.365 98.7303 68.3283 98.613 68.277V67.21C98.701 67.232 98.8073 67.2503 98.932 67.265C99.0567 67.287 99.1777 67.298 99.295 67.298C99.6397 67.298 99.8927 67.221 100.054 67.067C100.223 66.9203 100.373 66.6893 100.505 66.374L100.901 65.472L100.879 66.517L98.305 60.049H99.636L101.539 65.01H101.088L102.98 60.049H104.322L101.693 66.649C101.554 67.001 101.378 67.309 101.165 67.573C100.96 67.8443 100.714 68.0533 100.428 68.2C100.149 68.354 99.8193 68.431 99.438 68.431ZM105.723 66V60.049H106.911V61.336L106.757 61.138C106.881 60.7347 107.109 60.4303 107.439 60.225C107.769 60.0197 108.146 59.917 108.572 59.917C109.048 59.917 109.47 60.0453 109.837 60.302C110.211 60.5513 110.46 60.885 110.585 61.303L110.233 61.336C110.409 60.8593 110.676 60.5037 111.036 60.269C111.402 60.0343 111.82 59.917 112.29 59.917C112.7 59.917 113.071 60.0123 113.401 60.203C113.738 60.3937 114.006 60.6577 114.204 60.995C114.402 61.3323 114.501 61.7173 114.501 62.15V66H113.258V62.491C113.258 62.1903 113.203 61.9373 113.093 61.732C112.99 61.5193 112.843 61.358 112.653 61.248C112.469 61.1307 112.253 61.072 112.004 61.072C111.754 61.072 111.534 61.1307 111.344 61.248C111.153 61.358 111.003 61.5193 110.893 61.732C110.783 61.9447 110.728 62.1977 110.728 62.491V66H109.496V62.491C109.496 62.1903 109.441 61.9373 109.331 61.732C109.228 61.5193 109.081 61.358 108.891 61.248C108.707 61.1307 108.487 61.072 108.231 61.072C107.981 61.072 107.761 61.1307 107.571 61.248C107.38 61.358 107.23 61.5193 107.12 61.732C107.017 61.9447 106.966 62.1977 106.966 62.491V66H105.723ZM119.175 66.132C118.581 66.132 118.053 65.9963 117.591 65.725C117.136 65.4463 116.781 65.0723 116.524 64.603C116.267 64.1263 116.139 63.5947 116.139 63.008C116.139 62.4067 116.267 61.875 116.524 61.413C116.788 60.951 117.14 60.588 117.58 60.324C118.02 60.0527 118.519 59.917 119.076 59.917C119.523 59.917 119.923 59.994 120.275 60.148C120.627 60.302 120.924 60.5147 121.166 60.786C121.408 61.05 121.591 61.3543 121.716 61.699C121.848 62.0437 121.914 62.4103 121.914 62.799C121.914 62.8943 121.91 62.9933 121.903 63.096C121.896 63.1987 121.881 63.294 121.859 63.382H117.118V62.392H121.155L120.561 62.843C120.634 62.4837 120.609 62.1647 120.484 61.886C120.367 61.6 120.183 61.3763 119.934 61.215C119.692 61.0463 119.406 60.962 119.076 60.962C118.746 60.962 118.453 61.0463 118.196 61.215C117.939 61.3763 117.741 61.611 117.602 61.919C117.463 62.2197 117.408 62.5863 117.437 63.019C117.4 63.4223 117.455 63.7743 117.602 64.075C117.756 64.3757 117.969 64.6103 118.24 64.779C118.519 64.9477 118.834 65.032 119.186 65.032C119.545 65.032 119.85 64.9513 120.099 64.79C120.356 64.6287 120.557 64.4197 120.704 64.163L121.716 64.658C121.599 64.9367 121.415 65.1897 121.166 65.417C120.924 65.637 120.631 65.813 120.286 65.945C119.949 66.0697 119.578 66.132 119.175 66.132ZM123.677 66V60.049H124.865V61.215L124.722 61.061C124.869 60.687 125.104 60.4047 125.426 60.214C125.749 60.016 126.123 59.917 126.548 59.917C126.988 59.917 127.377 60.0123 127.714 60.203C128.052 60.3937 128.316 60.6577 128.506 60.995C128.697 61.3323 128.792 61.721 128.792 62.161V66H127.56V62.491C127.56 62.1903 127.505 61.9373 127.395 61.732C127.285 61.5193 127.128 61.358 126.922 61.248C126.724 61.1307 126.497 61.072 126.24 61.072C125.984 61.072 125.753 61.1307 125.547 61.248C125.349 61.358 125.195 61.5193 125.085 61.732C124.975 61.9447 124.92 62.1977 124.92 62.491V66H123.677ZM133.246 66.066C132.623 66.066 132.139 65.89 131.794 65.538C131.45 65.186 131.277 64.691 131.277 64.053V61.171H130.232V60.049H130.397C130.676 60.049 130.892 59.9683 131.046 59.807C131.2 59.6457 131.277 59.4257 131.277 59.147V58.685H132.52V60.049H133.873V61.171H132.52V63.998C132.52 64.2033 132.553 64.3793 132.619 64.526C132.685 64.6653 132.792 64.7753 132.938 64.856C133.085 64.9293 133.276 64.966 133.51 64.966C133.569 64.966 133.635 64.9623 133.708 64.955C133.782 64.9477 133.851 64.9403 133.917 64.933V66C133.815 66.0147 133.701 66.0293 133.576 66.044C133.452 66.0587 133.342 66.066 133.246 66.066ZM138.274 66V57.805H139.484L142.564 62.073H141.959L144.984 57.805H146.194V66H144.907V59.334L145.391 59.466L142.3 63.69H142.168L139.143 59.466L139.572 59.334V66H138.274ZM151.112 66.132C150.518 66.132 149.99 65.9963 149.528 65.725C149.073 65.4463 148.717 65.0723 148.461 64.603C148.204 64.1263 148.076 63.5947 148.076 63.008C148.076 62.4067 148.204 61.875 148.461 61.413C148.725 60.951 149.077 60.588 149.517 60.324C149.957 60.0527 150.455 59.917 151.013 59.917C151.46 59.917 151.86 59.994 152.212 60.148C152.564 60.302 152.861 60.5147 153.103 60.786C153.345 61.05 153.528 61.3543 153.653 61.699C153.785 62.0437 153.851 62.4103 153.851 62.799C153.851 62.8943 153.847 62.9933 153.84 63.096C153.832 63.1987 153.818 63.294 153.796 63.382H149.055V62.392H153.092L152.498 62.843C152.571 62.4837 152.545 62.1647 152.421 61.886C152.303 61.6 152.12 61.3763 151.871 61.215C151.629 61.0463 151.343 60.962 151.013 60.962C150.683 60.962 150.389 61.0463 150.133 61.215C149.876 61.3763 149.678 61.611 149.539 61.919C149.399 62.2197 149.344 62.5863 149.374 63.019C149.337 63.4223 149.392 63.7743 149.539 64.075C149.693 64.3757 149.905 64.6103 150.177 64.779C150.455 64.9477 150.771 65.032 151.123 65.032C151.482 65.032 151.786 64.9513 152.036 64.79C152.292 64.6287 152.494 64.4197 152.641 64.163L153.653 64.658C153.535 64.9367 153.352 65.1897 153.103 65.417C152.861 65.637 152.567 65.813 152.223 65.945C151.885 66.0697 151.515 66.132 151.112 66.132ZM158.188 66.066C157.564 66.066 157.08 65.89 156.736 65.538C156.391 65.186 156.219 64.691 156.219 64.053V61.171H155.174V60.049H155.339C155.617 60.049 155.834 59.9683 155.988 59.807C156.142 59.6457 156.219 59.4257 156.219 59.147V58.685H157.462V60.049H158.815V61.171H157.462V63.998C157.462 64.2033 157.495 64.3793 157.561 64.526C157.627 64.6653 157.733 64.7753 157.88 64.856C158.026 64.9293 158.217 64.966 158.452 64.966C158.51 64.966 158.576 64.9623 158.65 64.955C158.723 64.9477 158.793 64.9403 158.859 64.933V66C158.756 66.0147 158.642 66.0293 158.518 66.044C158.393 66.0587 158.283 66.066 158.188 66.066ZM160.622 66V57.673H161.865V61.215L161.667 61.061C161.813 60.687 162.048 60.4047 162.371 60.214C162.693 60.016 163.067 59.917 163.493 59.917C163.933 59.917 164.321 60.0123 164.659 60.203C164.996 60.3937 165.26 60.6577 165.451 60.995C165.641 61.3323 165.737 61.7173 165.737 62.15V66H164.505V62.491C164.505 62.1903 164.446 61.9373 164.329 61.732C164.219 61.5193 164.065 61.358 163.867 61.248C163.669 61.1307 163.441 61.072 163.185 61.072C162.935 61.072 162.708 61.1307 162.503 61.248C162.305 61.358 162.147 61.5193 162.03 61.732C161.92 61.9447 161.865 62.1977 161.865 62.491V66H160.622ZM170.488 66.132C169.916 66.132 169.392 65.9963 168.915 65.725C168.446 65.4537 168.072 65.0833 167.793 64.614C167.514 64.1447 167.375 63.613 167.375 63.019C167.375 62.4177 167.514 61.886 167.793 61.424C168.072 60.9547 168.446 60.588 168.915 60.324C169.384 60.0527 169.909 59.917 170.488 59.917C171.075 59.917 171.599 60.0527 172.061 60.324C172.53 60.588 172.901 60.9547 173.172 61.424C173.451 61.886 173.59 62.4177 173.59 63.019C173.59 63.6203 173.451 64.1557 173.172 64.625C172.893 65.0943 172.519 65.4647 172.05 65.736C171.581 66 171.06 66.132 170.488 66.132ZM170.488 64.977C170.84 64.977 171.152 64.8927 171.423 64.724C171.694 64.5553 171.907 64.3243 172.061 64.031C172.222 63.7303 172.303 63.393 172.303 63.019C172.303 62.645 172.222 62.3113 172.061 62.018C171.907 61.7247 171.694 61.4937 171.423 61.325C171.152 61.1563 170.84 61.072 170.488 61.072C170.143 61.072 169.832 61.1563 169.553 61.325C169.282 61.4937 169.065 61.7247 168.904 62.018C168.75 62.3113 168.673 62.645 168.673 63.019C168.673 63.393 168.75 63.7303 168.904 64.031C169.065 64.3243 169.282 64.5553 169.553 64.724C169.832 64.8927 170.143 64.977 170.488 64.977ZM178.104 66.132C177.532 66.132 177.018 65.9963 176.564 65.725C176.116 65.4463 175.761 65.0723 175.497 64.603C175.24 64.1337 175.112 63.6057 175.112 63.019C175.112 62.4323 175.244 61.9043 175.508 61.435C175.772 60.9657 176.127 60.5953 176.575 60.324C177.022 60.0527 177.528 59.917 178.093 59.917C178.569 59.917 178.991 60.0123 179.358 60.203C179.724 60.3937 180.014 60.6577 180.227 60.995L180.04 61.281V57.673H181.272V66H180.095V64.79L180.238 65.021C180.032 65.3803 179.739 65.6553 179.358 65.846C178.976 66.0367 178.558 66.132 178.104 66.132ZM178.225 64.977C178.569 64.977 178.877 64.8927 179.149 64.724C179.427 64.5553 179.644 64.3243 179.798 64.031C179.959 63.7303 180.04 63.393 180.04 63.019C180.04 62.645 179.959 62.3113 179.798 62.018C179.644 61.7247 179.427 61.4937 179.149 61.325C178.877 61.1563 178.569 61.072 178.225 61.072C177.88 61.072 177.568 61.1563 177.29 61.325C177.011 61.4937 176.795 61.7247 176.641 62.018C176.487 62.3113 176.41 62.645 176.41 63.019C176.41 63.393 176.487 63.7303 176.641 64.031C176.795 64.3243 177.007 64.5553 177.279 64.724C177.557 64.8927 177.873 64.977 178.225 64.977Z" fill="#B1B1B1"/>
<path d="M212.664 66.132C212.085 66.132 211.546 66.0257 211.047 65.813C210.556 65.6003 210.127 65.307 209.76 64.933C209.401 64.5517 209.118 64.1043 208.913 63.591C208.708 63.0777 208.605 62.513 208.605 61.897C208.605 61.2883 208.704 60.7273 208.902 60.214C209.107 59.6933 209.393 59.246 209.76 58.872C210.127 58.4907 210.556 58.1973 211.047 57.992C211.538 57.7793 212.077 57.673 212.664 57.673C213.243 57.673 213.76 57.772 214.215 57.97C214.677 58.168 215.066 58.4283 215.381 58.751C215.696 59.0663 215.924 59.411 216.063 59.785L214.897 60.335C214.721 59.895 214.439 59.5393 214.05 59.268C213.669 58.9893 213.207 58.85 212.664 58.85C212.121 58.85 211.641 58.9783 211.223 59.235C210.805 59.4917 210.479 59.8473 210.244 60.302C210.017 60.7567 209.903 61.2883 209.903 61.897C209.903 62.5057 210.017 63.041 210.244 63.503C210.479 63.9577 210.805 64.3133 211.223 64.57C211.641 64.8193 212.121 64.944 212.664 64.944C213.207 64.944 213.669 64.8083 214.05 64.537C214.439 64.2657 214.721 63.91 214.897 63.47L216.063 64.02C215.924 64.3867 215.696 64.7313 215.381 65.054C215.066 65.3767 214.677 65.637 214.215 65.835C213.76 66.033 213.243 66.132 212.664 66.132ZM220.59 66.132C220.018 66.132 219.494 65.9963 219.017 65.725C218.548 65.4537 218.174 65.0833 217.895 64.614C217.617 64.1447 217.477 63.613 217.477 63.019C217.477 62.4177 217.617 61.886 217.895 61.424C218.174 60.9547 218.548 60.588 219.017 60.324C219.487 60.0527 220.011 59.917 220.59 59.917C221.177 59.917 221.701 60.0527 222.163 60.324C222.633 60.588 223.003 60.9547 223.274 61.424C223.553 61.886 223.692 62.4177 223.692 63.019C223.692 63.6203 223.553 64.1557 223.274 64.625C222.996 65.0943 222.622 65.4647 222.152 65.736C221.683 66 221.162 66.132 220.59 66.132ZM220.59 64.977C220.942 64.977 221.254 64.8927 221.525 64.724C221.797 64.5553 222.009 64.3243 222.163 64.031C222.325 63.7303 222.405 63.393 222.405 63.019C222.405 62.645 222.325 62.3113 222.163 62.018C222.009 61.7247 221.797 61.4937 221.525 61.325C221.254 61.1563 220.942 61.072 220.59 61.072C220.246 61.072 219.934 61.1563 219.655 61.325C219.384 61.4937 219.168 61.7247 219.006 62.018C218.852 62.3113 218.775 62.645 218.775 63.019C218.775 63.393 218.852 63.7303 219.006 64.031C219.168 64.3243 219.384 64.5553 219.655 64.724C219.934 64.8927 220.246 64.977 220.59 64.977ZM225.456 66V60.049H226.644V61.336L226.49 61.138C226.615 60.7347 226.842 60.4303 227.172 60.225C227.502 60.0197 227.88 59.917 228.305 59.917C228.782 59.917 229.203 60.0453 229.57 60.302C229.944 60.5513 230.193 60.885 230.318 61.303L229.966 61.336C230.142 60.8593 230.41 60.5037 230.769 60.269C231.136 60.0343 231.554 59.917 232.023 59.917C232.434 59.917 232.804 60.0123 233.134 60.203C233.471 60.3937 233.739 60.6577 233.937 60.995C234.135 61.3323 234.234 61.7173 234.234 62.15V66H232.991V62.491C232.991 62.1903 232.936 61.9373 232.826 61.732C232.723 61.5193 232.577 61.358 232.386 61.248C232.203 61.1307 231.986 61.072 231.737 61.072C231.488 61.072 231.268 61.1307 231.077 61.248C230.886 61.358 230.736 61.5193 230.626 61.732C230.516 61.9447 230.461 62.1977 230.461 62.491V66H229.229V62.491C229.229 62.1903 229.174 61.9373 229.064 61.732C228.961 61.5193 228.815 61.358 228.624 61.248C228.441 61.1307 228.221 61.072 227.964 61.072C227.715 61.072 227.495 61.1307 227.304 61.248C227.113 61.358 226.963 61.5193 226.853 61.732C226.75 61.9447 226.699 62.1977 226.699 62.491V66H225.456ZM236.114 68.2V60.049H237.302V61.281L237.159 60.995C237.379 60.6577 237.673 60.3937 238.039 60.203C238.406 60.0123 238.824 59.917 239.293 59.917C239.858 59.917 240.364 60.0527 240.811 60.324C241.266 60.5953 241.622 60.9657 241.878 61.435C242.142 61.9043 242.274 62.4323 242.274 63.019C242.274 63.6057 242.142 64.1337 241.878 64.603C241.622 65.0723 241.27 65.4463 240.822 65.725C240.375 65.9963 239.865 66.132 239.293 66.132C238.831 66.132 238.41 66.0367 238.028 65.846C237.654 65.6553 237.365 65.3803 237.159 65.021L237.357 64.79V68.2H236.114ZM239.172 64.977C239.524 64.977 239.836 64.8927 240.107 64.724C240.379 64.5553 240.591 64.3243 240.745 64.031C240.907 63.7303 240.987 63.393 240.987 63.019C240.987 62.645 240.907 62.3113 240.745 62.018C240.591 61.7247 240.379 61.4937 240.107 61.325C239.836 61.1563 239.524 61.072 239.172 61.072C238.828 61.072 238.516 61.1563 238.237 61.325C237.966 61.4937 237.75 61.7247 237.588 62.018C237.434 62.3113 237.357 62.645 237.357 63.019C237.357 63.393 237.434 63.7303 237.588 64.031C237.75 64.3243 237.966 64.5553 238.237 64.724C238.516 64.8927 238.828 64.977 239.172 64.977ZM244.033 66V57.673H245.276V66H244.033ZM250.074 66.132C249.48 66.132 248.952 65.9963 248.49 65.725C248.035 65.4463 247.679 65.0723 247.423 64.603C247.166 64.1263 247.038 63.5947 247.038 63.008C247.038 62.4067 247.166 61.875 247.423 61.413C247.687 60.951 248.039 60.588 248.479 60.324C248.919 60.0527 249.417 59.917 249.975 59.917C250.422 59.917 250.822 59.994 251.174 60.148C251.526 60.302 251.823 60.5147 252.065 60.786C252.307 61.05 252.49 61.3543 252.615 61.699C252.747 62.0437 252.813 62.4103 252.813 62.799C252.813 62.8943 252.809 62.9933 252.802 63.096C252.794 63.1987 252.78 63.294 252.758 63.382H248.017V62.392H252.054L251.46 62.843C251.533 62.4837 251.507 62.1647 251.383 61.886C251.265 61.6 251.082 61.3763 250.833 61.215C250.591 61.0463 250.305 60.962 249.975 60.962C249.645 60.962 249.351 61.0463 249.095 61.215C248.838 61.3763 248.64 61.611 248.501 61.919C248.361 62.2197 248.306 62.5863 248.336 63.019C248.299 63.4223 248.354 63.7743 248.501 64.075C248.655 64.3757 248.867 64.6103 249.139 64.779C249.417 64.9477 249.733 65.032 250.085 65.032C250.444 65.032 250.748 64.9513 250.998 64.79C251.254 64.6287 251.456 64.4197 251.603 64.163L252.615 64.658C252.497 64.9367 252.314 65.1897 252.065 65.417C251.823 65.637 251.529 65.813 251.185 65.945C250.847 66.0697 250.477 66.132 250.074 66.132ZM257.15 66.066C256.526 66.066 256.042 65.89 255.698 65.538C255.353 65.186 255.181 64.691 255.181 64.053V61.171H254.136V60.049H254.301C254.579 60.049 254.796 59.9683 254.95 59.807C255.104 59.6457 255.181 59.4257 255.181 59.147V58.685H256.424V60.049H257.777V61.171H256.424V63.998C256.424 64.2033 256.457 64.3793 256.523 64.526C256.589 64.6653 256.695 64.7753 256.842 64.856C256.988 64.9293 257.179 64.966 257.414 64.966C257.472 64.966 257.538 64.9623 257.612 64.955C257.685 64.9477 257.755 64.9403 257.821 64.933V66C257.718 66.0147 257.604 66.0293 257.48 66.044C257.355 66.0587 257.245 66.066 257.15 66.066ZM262.27 66.132C261.676 66.132 261.148 65.9963 260.686 65.725C260.232 65.4463 259.876 65.0723 259.619 64.603C259.363 64.1263 259.234 63.5947 259.234 63.008C259.234 62.4067 259.363 61.875 259.619 61.413C259.883 60.951 260.235 60.588 260.675 60.324C261.115 60.0527 261.614 59.917 262.171 59.917C262.619 59.917 263.018 59.994 263.37 60.148C263.722 60.302 264.019 60.5147 264.261 60.786C264.503 61.05 264.687 61.3543 264.811 61.699C264.943 62.0437 265.009 62.4103 265.009 62.799C265.009 62.8943 265.006 62.9933 264.998 63.096C264.991 63.1987 264.976 63.294 264.954 63.382H260.213V62.392H264.25L263.656 62.843C263.73 62.4837 263.704 62.1647 263.579 61.886C263.462 61.6 263.279 61.3763 263.029 61.215C262.787 61.0463 262.501 60.962 262.171 60.962C261.841 60.962 261.548 61.0463 261.291 61.215C261.035 61.3763 260.837 61.611 260.697 61.919C260.558 62.2197 260.503 62.5863 260.532 63.019C260.496 63.4223 260.551 63.7743 260.697 64.075C260.851 64.3757 261.064 64.6103 261.335 64.779C261.614 64.9477 261.929 65.032 262.281 65.032C262.641 65.032 262.945 64.9513 263.194 64.79C263.451 64.6287 263.653 64.4197 263.799 64.163L264.811 64.658C264.694 64.9367 264.511 65.1897 264.261 65.417C264.019 65.637 263.726 65.813 263.381 65.945C263.044 66.0697 262.674 66.132 262.27 66.132ZM269.522 66.132C268.95 66.132 268.437 65.9963 267.982 65.725C267.535 65.4463 267.179 65.0723 266.915 64.603C266.659 64.1337 266.53 63.6057 266.53 63.019C266.53 62.4323 266.662 61.9043 266.926 61.435C267.19 60.9657 267.546 60.5953 267.993 60.324C268.441 60.0527 268.947 59.917 269.511 59.917C269.988 59.917 270.41 60.0123 270.776 60.203C271.143 60.3937 271.433 60.6577 271.645 60.995L271.458 61.281V57.673H272.69V66H271.513V64.79L271.656 65.021C271.451 65.3803 271.158 65.6553 270.776 65.846C270.395 66.0367 269.977 66.132 269.522 66.132ZM269.643 64.977C269.988 64.977 270.296 64.8927 270.567 64.724C270.846 64.5553 271.062 64.3243 271.216 64.031C271.378 63.7303 271.458 63.393 271.458 63.019C271.458 62.645 271.378 62.3113 271.216 62.018C271.062 61.7247 270.846 61.4937 270.567 61.325C270.296 61.1563 269.988 61.072 269.643 61.072C269.299 61.072 268.987 61.1563 268.708 61.325C268.43 61.4937 268.213 61.7247 268.059 62.018C267.905 62.3113 267.828 62.645 267.828 63.019C267.828 63.393 267.905 63.7303 268.059 64.031C268.213 64.3243 268.426 64.5553 268.697 64.724C268.976 64.8927 269.291 64.977 269.643 64.977Z" fill="#00434C"/>
<circle cx="27.7245" cy="24.7245" r="24.7245" fill="#D9EFF2"/>
<path d="M27.3084 31.8237V22.5539H25.1862V20.8443H29.3127V31.8237H27.3084Z" fill="#6C6C6C"/>
<line x1="52.4492" y1="24.1065" x2="108.079" y2="24.1065" stroke="#00434C" stroke-width="1.23623"/>
<circle cx="132.804" cy="24.7245" r="24.7245" fill="#D9D9D9"/>
<path d="M132.387 31.8237V22.5539H130.265V20.8443H134.392V31.8237H132.387Z" fill="#D9EFF2"/>
<line x1="157.528" y1="24.1065" x2="213.159" y2="24.1065" stroke="#D9EFF2" stroke-width="1.23623"/>
<circle cx="132.804" cy="24.7245" r="24.7245" fill="#D9EFF2"/>
<path d="M130.516 31.8237V30.3058L133.493 27.1962C134.082 26.5772 134.534 26.0859 134.849 25.7224C135.173 25.3491 135.399 25.0298 135.527 24.7645C135.654 24.4992 135.718 24.229 135.718 23.9539C135.718 23.4921 135.571 23.1286 135.276 22.8633C134.991 22.5981 134.623 22.4654 134.171 22.4654C133.699 22.4654 133.291 22.603 132.947 22.8781C132.604 23.1434 132.353 23.5364 132.196 24.0571L130.442 23.5118C130.56 22.9321 130.801 22.431 131.164 22.0086C131.528 21.5763 131.97 21.2471 132.491 21.0212C133.021 20.7854 133.581 20.6675 134.171 20.6675C134.878 20.6675 135.497 20.7952 136.028 21.0506C136.568 21.3061 136.986 21.6647 137.28 22.1265C137.585 22.5882 137.737 23.1286 137.737 23.7476C137.737 24.1406 137.663 24.5287 137.516 24.9119C137.369 25.295 137.148 25.688 136.853 26.0909C136.558 26.4839 136.175 26.926 135.703 27.4172L133.124 30.1289H137.885V31.8237H130.516Z" fill="#6C6C6C"/>
<line x1="157.528" y1="24.1065" x2="213.159" y2="24.1065" stroke="#00434C" stroke-width="1.23623"/>
<circle cx="237.884" cy="24.7245" r="24.7245" fill="#00707E"/>
<path d="M239.236 32.0006C238.637 32.0006 238.067 31.8925 237.527 31.6764C236.996 31.4504 236.539 31.136 236.156 30.7332C235.783 30.3205 235.527 29.8342 235.39 29.2741L237.143 28.6552C237.32 29.1562 237.59 29.5394 237.954 29.8047C238.317 30.0601 238.745 30.1879 239.236 30.1879C239.629 30.1879 239.968 30.1142 240.253 29.9668C240.548 29.8194 240.779 29.6082 240.946 29.3331C241.113 29.0482 241.196 28.7141 241.196 28.3309C241.196 27.9478 241.113 27.6236 240.946 27.3583C240.788 27.0832 240.562 26.8719 240.268 26.7246C239.973 26.5772 239.624 26.5035 239.221 26.5035C239.035 26.5035 238.838 26.5232 238.632 26.5625C238.435 26.6018 238.258 26.6607 238.101 26.7393L237.644 25.7814L240.489 22.5391H236.009V20.8443H242.744V22.4212L239.884 25.7666L239.914 25.015C240.572 25.0248 241.147 25.1673 241.638 25.4424C242.13 25.7175 242.513 26.0958 242.788 26.5772C243.063 27.0586 243.2 27.6236 243.2 28.272C243.2 28.9794 243.028 29.618 242.685 30.1879C242.341 30.7479 241.869 31.19 241.27 31.5142C240.67 31.8385 239.993 32.0006 239.236 32.0006Z" fill="#D9EFF2"/>
</svg>
