<svg width="285" height="196" viewBox="0 0 285 196" fill="none" xmlns="http://www.w3.org/2000/svg">
<g filter="url(#filter0_d_189_24849)">
<path d="M221.041 61.3989V31.0178L216.41 32.5975V61.3989H221.041Z" fill="white"/>
<path d="M193.17 49.0864L141.236 66.7005C140.76 66.8736 140.262 66.9386 139.765 66.9386C139.267 66.9386 138.748 66.852 138.272 66.7005L86.3382 49.0864V92.6456H86.4031L86.2949 93.2515C86.2949 98.4232 110.249 110 139.743 110C169.237 110 193.126 98.4232 193.126 93.2515L192.997 92.6456H193.17V49.0864Z" fill="white"/>
<path d="M86.3162 40.4741L139.743 58.6075L193.169 40.4741L216.41 32.5975L221.04 31.0178L223.485 30.1956L139.743 2L56 30.1956L86.3162 40.4741Z" fill="white"/>
<path d="M213.25 68.4965V86.2188C213.25 89.2483 215.695 91.6935 218.725 91.6935C221.754 91.6935 224.199 89.2483 224.199 86.2188V68.4965C224.199 67.0034 223.593 65.6402 222.62 64.6448H214.83C213.856 65.6402 213.25 67.0034 213.25 68.4965Z" fill="white"/>
<path d="M214.115 61.3989V64.6664H214.829H222.619H223.312V61.3989H221.04H216.409H214.115Z" fill="white"/>
</g>
<path d="M62.5057 155.532V161.596H41.5178V155.532H62.5057Z" fill="white"/>
<path d="M67.9885 135.904H74.3704V181.388H67.9885V135.904ZM71.2781 175.379H97.2224V181.443H71.2781V175.379Z" fill="white"/>
<path d="M136.029 179.14C134.055 177.485 133.058 174.974 133.058 171.596C133.058 168.387 133.964 165.982 135.777 164.381C137.597 162.769 140.328 161.968 144.001 161.968H148.083V167.089H144.034C142.695 166.985 141.365 167.375 140.295 168.186C139.858 168.629 139.522 169.161 139.31 169.746C139.098 170.33 139.015 170.954 139.067 171.574C139.013 172.271 139.134 172.97 139.42 173.608C139.705 174.245 140.145 174.802 140.701 175.226C142.193 176.151 143.937 176.587 145.69 176.476C147.551 176.574 149.414 176.305 151.173 175.686C151.696 175.515 152.151 175.179 152.469 174.728C152.787 174.278 152.951 173.737 152.938 173.186L153.596 177.748C153.06 178.615 152.351 179.361 151.512 179.941C150.643 180.524 149.678 180.951 148.661 181.202C147.464 181.501 146.233 181.644 144.999 181.63C140.997 181.63 138.014 180.796 136.029 179.14ZM152.938 160.598C153.049 158.786 152.438 157.004 151.238 155.641C150.597 155.03 149.837 154.558 149.005 154.254C148.173 153.95 147.287 153.822 146.403 153.876C145.115 153.876 143.835 154.076 142.609 154.468C141.43 154.84 140.319 155.399 139.319 156.124L134.67 152.933C135.98 151.4 137.649 150.213 139.527 149.479C141.659 148.636 143.935 148.218 146.227 148.251C148.609 148.183 150.974 148.671 153.135 149.676C154.994 150.555 156.529 151.998 157.522 153.799C158.564 155.808 159.073 158.051 159.002 160.313V181.147H152.938V160.598Z" fill="white"/>
<path d="M163.388 148.722H169.77V181.158H163.388V148.722ZM179.113 154.841C178.166 154.473 177.156 154.294 176.141 154.315C175.285 154.263 174.428 154.385 173.62 154.671C172.812 154.957 172.069 155.403 171.437 155.981C170.86 156.602 170.414 157.332 170.128 158.13C169.841 158.927 169.72 159.774 169.77 160.62L169.112 154.38C169.999 152.571 171.331 151.017 172.983 149.863C174.528 148.801 176.361 148.238 178.235 148.251C179.6 148.23 180.957 148.445 182.249 148.887C183.417 149.296 184.489 149.941 185.396 150.784L181.24 156.409C180.678 155.725 179.96 155.187 179.145 154.841H179.113Z" fill="white"/>
<path d="M187.37 148.722H193.751V181.158H187.37V148.722ZM207.107 161.497C207.229 159.562 206.587 157.657 205.32 156.19C203.964 154.998 202.23 154.323 200.426 154.283C198.621 154.243 196.859 154.84 195.451 155.97C194.862 156.586 194.407 157.317 194.115 158.117C193.822 158.917 193.699 159.769 193.751 160.62L193.094 154.38C193.977 152.549 195.327 150.984 197.008 149.841C198.597 148.789 200.465 148.235 202.37 148.251C203.906 148.163 205.441 148.428 206.857 149.027C208.273 149.626 209.533 150.542 210.54 151.705C212.47 154.008 213.434 157.261 213.434 161.464V181.202H207.064L207.107 161.497Z" fill="white"/>
<path d="M217.854 135.904H224.235V142.275H217.854V135.904ZM217.854 148.909H224.235V181.345H217.854V148.909Z" fill="white"/>
<path d="M228.655 148.722H235.026V181.158H228.655V148.722ZM248.392 161.497C248.514 159.562 247.872 157.657 246.605 156.19C245.249 154.998 243.515 154.323 241.711 154.283C239.906 154.243 238.144 154.84 236.736 155.97C236.145 156.585 235.688 157.316 235.394 158.116C235.1 158.916 234.974 159.769 235.026 160.62L234.379 154.38C235.262 152.549 236.612 150.984 238.293 149.841C239.882 148.788 241.749 148.234 243.655 148.251C245.191 148.163 246.726 148.428 248.142 149.027C249.558 149.626 250.818 150.542 251.825 151.705C253.755 154.008 254.719 157.261 254.719 161.464V181.202H248.349L248.392 161.497Z" fill="white"/>
<path d="M264.27 180.719C262.557 179.647 261.22 178.068 260.443 176.202C259.514 173.943 259.065 171.516 259.128 169.074V161.925C259.064 159.475 259.5 157.039 260.411 154.764C261.164 152.911 262.47 151.333 264.15 150.246C265.924 149.178 267.968 148.641 270.038 148.7C271.901 148.686 273.728 149.207 275.302 150.203C276.939 151.243 278.271 152.7 279.162 154.424L278.504 161.004C278.539 159.784 278.284 158.574 277.758 157.473C277.266 156.536 276.501 155.771 275.565 155.28C274.494 154.744 273.308 154.481 272.111 154.512C271.2 154.459 270.289 154.608 269.444 154.949C268.598 155.291 267.838 155.815 267.22 156.486C265.994 158.041 265.378 159.991 265.488 161.968V169.03C265.357 171.011 265.975 172.968 267.22 174.513C267.846 175.182 268.612 175.705 269.463 176.044C270.314 176.384 271.229 176.531 272.144 176.476C273.345 176.513 274.535 176.237 275.598 175.675C276.546 175.154 277.312 174.354 277.791 173.384C278.318 172.26 278.573 171.028 278.537 169.787L278.975 176.629C278.322 178.247 277.223 179.647 275.806 180.665C274.226 181.782 272.324 182.352 270.389 182.288C268.243 182.351 266.122 181.808 264.27 180.719ZM264.402 193.538C262.57 192.715 261.014 191.383 259.917 189.7L264.27 185.796C265.051 186.896 266.071 187.803 267.253 188.45C268.735 189.22 270.413 189.527 272.071 189.331C273.729 189.136 275.29 188.447 276.552 187.354C277.253 186.588 277.791 185.687 278.134 184.707C278.477 183.727 278.618 182.688 278.547 181.652V149.27H284.929V180.741C285.005 183.395 284.441 186.028 283.285 188.417C282.24 190.482 280.576 192.169 278.526 193.242C276.187 194.399 273.601 194.968 270.992 194.898C268.725 194.939 266.478 194.475 264.413 193.538H264.402Z" fill="white"/>
<path d="M21.8128 180.445C18.9056 180.489 16.0371 179.775 13.4901 178.373C11.0145 176.967 8.9642 174.918 7.55537 172.444C6.14654 169.97 5.43137 167.162 5.48526 164.315C5.43986 161.448 6.15899 158.621 7.5687 156.124C8.97638 153.706 10.9994 151.703 13.432 150.32C15.8646 148.937 18.62 148.223 21.4181 148.251C24.0641 148.18 26.6784 148.84 28.9733 150.159C31.1727 151.458 32.9536 153.361 34.1051 155.641C35.3884 158.041 36.0376 160.728 35.9912 163.449C35.9912 163.887 35.9912 164.359 35.9254 164.885C35.8717 165.452 35.7875 166.016 35.6732 166.574H16.0231V161.65H32.548L30.355 163.537C30.4185 161.716 30.0423 159.907 29.2584 158.262C28.5786 156.852 27.4945 155.676 26.1442 154.885C24.6647 154.026 22.9748 153.596 21.2646 153.646C19.4221 153.608 17.6025 154.058 15.9902 154.951C14.4933 155.8 13.2745 157.064 12.4812 158.591C11.6292 160.291 11.2039 162.173 11.2421 164.074C11.1927 166.096 11.6528 168.099 12.5799 169.897C13.435 171.467 14.7209 172.76 16.2862 173.625C17.9772 174.507 19.8621 174.952 21.769 174.919C23.3969 174.939 25.012 174.629 26.517 174.009C27.9772 173.418 29.2717 172.481 30.2892 171.278L34.0613 175.116C32.5789 176.86 30.6983 178.222 28.5785 179.086C26.4387 179.993 24.1369 180.455 21.8128 180.445Z" fill="white"/>
<path d="M114.932 181.63C112.024 181.674 109.156 180.959 106.609 179.557C104.133 178.151 102.083 176.103 100.674 173.629C99.2653 171.154 98.5502 168.346 98.6041 165.499C98.5553 162.633 99.2707 159.806 100.677 157.308C102.084 154.89 104.107 152.887 106.54 151.505C108.972 150.122 111.728 149.408 114.526 149.435C117.168 149.365 119.779 150.025 122.07 151.343C124.27 152.643 126.05 154.545 127.202 156.826C128.485 159.225 129.134 161.913 129.088 164.633C129.088 165.072 129.088 165.543 129.022 166.07C128.969 166.637 128.884 167.2 128.77 167.758H109.12V162.835H125.645L123.452 164.721C123.515 162.9 123.139 161.091 122.355 159.446C121.696 158.047 120.64 156.873 119.318 156.069C117.838 155.21 116.148 154.781 114.438 154.83C112.596 154.794 110.777 155.244 109.164 156.135C107.667 156.984 106.448 158.248 105.655 159.775C104.803 161.475 104.378 163.357 104.416 165.258C104.343 167.274 104.776 169.276 105.677 171.081C106.523 172.671 107.81 173.985 109.383 174.864C111.074 175.746 112.959 176.191 114.866 176.158C116.494 176.178 118.109 175.868 119.614 175.248C121.074 174.657 122.369 173.72 123.386 172.517L127.158 176.355C125.676 178.099 123.795 179.461 121.675 180.325C119.538 181.21 117.245 181.654 114.932 181.63Z" fill="white"/>
<path d="M21.8128 180.445C18.9056 180.489 16.0371 179.775 13.4901 178.373C11.0145 176.967 8.9642 174.918 7.55537 172.444C6.14654 169.97 5.43137 167.162 5.48526 164.315C5.43986 161.448 6.15899 158.621 7.5687 156.124C8.97638 153.706 10.9994 151.703 13.432 150.32C15.8646 148.937 18.62 148.223 21.4181 148.251C24.0641 148.18 26.6784 148.84 28.9733 150.159C31.1727 151.458 32.9536 153.361 34.1051 155.641C35.3884 158.041 36.0376 160.728 35.9912 163.449C35.9912 163.887 35.9912 164.359 35.9254 164.885C35.8717 165.452 35.7875 166.016 35.6732 166.574H16.0231V161.65H32.548L30.355 163.537C30.4185 161.716 30.0423 159.907 29.2584 158.262C28.5786 156.852 27.4945 155.676 26.1442 154.885C24.6647 154.026 22.9748 153.596 21.2646 153.646C19.4221 153.608 17.6025 154.058 15.9902 154.951C14.4933 155.8 13.2745 157.064 12.4812 158.591C11.6292 160.291 11.2039 162.173 11.2421 164.074C11.1927 166.096 11.6528 168.099 12.5799 169.897C13.435 171.467 14.7209 172.76 16.2862 173.625C17.9772 174.507 19.8621 174.952 21.769 174.919C23.3969 174.939 25.012 174.629 26.517 174.009C27.9772 173.418 29.2717 172.481 30.2892 171.278L34.0613 175.116C32.5789 176.86 30.6983 178.222 28.5785 179.086C26.4387 179.993 24.1369 180.455 21.8128 180.445Z" fill="white"/>
<defs>
<filter id="filter0_d_189_24849" x="50.1" y="0.0999999" width="179.999" height="119.8" filterUnits="userSpaceOnUse" color-interpolation-filters="sRGB">
<feFlood flood-opacity="0" result="BackgroundImageFix"/>
<feColorMatrix in="SourceAlpha" type="matrix" values="0 0 0 0 0 0 0 0 0 0 0 0 0 0 0 0 0 0 127 0" result="hardAlpha"/>
<feOffset dy="4"/>
<feGaussianBlur stdDeviation="2.95"/>
<feComposite in2="hardAlpha" operator="out"/>
<feColorMatrix type="matrix" values="0 0 0 0 0.0117647 0 0 0 0 0.270588 0 0 0 0 0.305882 0 0 0 0.2 0"/>
<feBlend mode="normal" in2="BackgroundImageFix" result="effect1_dropShadow_189_24849"/>
<feBlend mode="normal" in="SourceGraphic" in2="effect1_dropShadow_189_24849" result="shape"/>
</filter>
</defs>
</svg>
